{
.formatVersion = 3;
axes = (
{
name = Weight;
tag = wght;
}
);
classes = (
{
code = "exclam parenleft parenright comma hyphen period slash colon semicolon question A G I J O bracketleft bracketright g o braceleft braceright Adieresis Edieresis Igrave Iacute Icircumflex Odieresis Udieresis agrave aacute acircumflex atilde adieresis aring edieresis idieresis odieresis udieresis ydieresis amacron abreve aogonek Cdotaccent cdotaccent Edotaccent edotaccent Gcircumflex gcircumflex Gbreve gbreve Gcommaaccent gcommaaccent Itilde Imacron Ibreve Iogonek IJ Ldot Scedilla scedilla Tcedilla tcedilla Ydieresis Zdotaccent zdotaccent Gcaron gcaron dotaccentcomb dieresiscomb dotbelowcomb strokeshortcomb slashshortcomb slashlongcomb Wdieresis wdieresis Adotbelow ahoi acircumflexacute acircumflexgrave acircumflexhoi acircumflextilde Acircumflexdotbelow abreveacute abrevegrave abrevehoi abrevetilde Abrevedotbelow Edotbelow edotbelow Ecircumflexdotbelow ecircumflexdotbelow Ihoi idotbelow Odotbelow odotbelow Ocircumflexdotbelow ocircumflexdotbelow Ohorndotbelow ohorndotbelow Udotbelow udotbelow Uhorndotbelow uhorndotbelow Ydotbelow ydotbelow endash emdash quoteleft quoteright quotesinglbase quotedblleft quotedblright quotedblbase bullet ellipsis fi zero.numr one.numr two.numr three.numr four.numr five.numr six.numr seven.numr eight.numr nine.numr f_f_i t_i.liga exclamdown.ss01 periodcentered.loclCAT.case questiondown.ss01 adieresis.ss05 Gdotaccent.ss01 gdotaccent.ss01 adotbelow.ss05 idotbelow.dotless idotaccent";
name = aalt;
},
{

glyphs = (
{
glyphname = .notdef;
layers = (
{
layerId = "0A0AAF82-7A3B-4E69-84DB-BE8E4A819DF7";
shapes = (
{
closed = 1;
nodes = (
(359,-12,o),
(373,-6,o),
(373,10,cs),
(373,80,l),
(358,77,o),
(346,76,o),
(334,76,cs),
(298,76,o),
(278,87,o),
(264,103,cs),
(250,119,o),
(241,139,o),
(230,156,cs),
(223,168,o),
(214,177,o),
(204,182,cs),
(194,187,o),
(189,192,o),
(189,199,cs),
(189,206,o),
(194,209,o),
(203,209,cs),
(232,209,o),
(248,187,o),
(265,167,c),
(281,146,o),
(298,124,o),
(330,124,cs),
(346,124,o),
(363,127,o),
(374,134,c),
(378,159,o),
(389,177,o),
(409,186,c),
(293,198,o),
(224,263,o),
(224,366,cs),
(224,417,o),
(239,450,o),
(264,477,c),
(253,509,o),
(255,550,o),
(268,579,c),
(307,582,o),
(348,566,o),
(372,539,c),
(404,550,o),
(436,553,o),
(469,553,cs),
(502,553,o),
(534,550,o),
(566,539,c),
(590,566,o),
(631,582,o),
(670,579,c),
(683,550,o),
(685,509,o),
(674,477,c),
(699,450,o),
(714,417,o),
(714,366,cs),
(714,263,o),
(645,198,o),
(529,186,c),
(552,175,o),
(565,150,o),
(565,115,cs),
(565,10,ls),
(565,-6,o),
(579,-12,o),
(592,-8,cs),
(671,17,o),
(735,64,o),
(781,126,cs),
(827,188,o),
(852,267,o),
(852,356,cs),
(852,471,o),
(814,566,o),
(747,633,cs),
(680,700,o),
(584,738,o),
(469,738,cs),
(354,738,o),
(259,700,o),
(192,633,cs),
(124,566,o),
(86,471,o),
(86,356,cs),
(86,267,o),
(112,188,o),
(158,126,cs),
(204,64,o),
(269,17,o),
(346,-8,cs)
);
},
{
closed = 1;
nodes = (
(262,150,o),
(264,152,o),
(264,155,cs),
(264,158,o),
(261,160,o),
(257,160,cs),
(253,160,o),
(251,158,o),
(251,155,cs),
(251,152,o),
(254,150,o),
(258,150,cs)
);
},
{
closed = 1;
nodes = (
(230,185,o),
(232,186,o),
(232,189,cs),
(232,192,o),
(230,193,o),
(226,193,cs),
(223,193,o),
(221,192,o),
(221,189,cs),
(221,186,o),
(223,185,o),
(227,185,cs)
);
},
{
closed = 1;
nodes = (
(245,171,o),
(247,172,o),
(247,175,cs),
(247,178,o),
(245,179,o),
(241,179,cs),
(238,179,o),
(236,178,o),
(236,175,cs),
(236,172,o),
(238,171,o),
(242,171,cs)
);
},
{
closed = 1;
nodes = (
(306,109,o),
(309,111,o),
(309,115,cs),
(309,119,o),
(306,121,o),
(301,121,cs),
(297,121,o),
(294,119,o),
(294,115,cs),
(294,111,o),
(297,109,o),
(302,109,cs)
);
},
{
closed = 1;
nodes = (
(337,104,o),
(340,106,o),
(340,110,cs),
(340,114,o),
(337,116,o),
(332,116,cs),
(328,116,o),
(325,114,o),
(325,110,cs),
(325,106,o),
(328,104,o),
(333,104,cs)
);
},
{
closed = 1;
nodes = (
(368,110,o),
(371,112,o),
(371,116,cs),
(371,120,o),
(368,122,o),
(363,122,cs),
(359,122,o),
(356,120,o),
(356,116,cs),
(356,112,o),
(359,110,o),
(364,110,cs)
);
},
{
closed = 1;
nodes = (
(280,127,o),
(283,129,o),
(283,133,cs),
(283,137,o),
(280,139,o),
(275,139,cs),
(271,139,o),
(268,137,o),
(268,133,cs),
(268,129,o),
(271,127,o),
(276,127,cs)
);
}
);
width = 894;
},
{
layerId = "DD839978-B654-4D5F-A0C6-3C33A53FE9CB";
shapes = (
{
closed = 1;
nodes = (
(362,-12,o),
(376,-6,o),
(376,10,cs),
(376,80,l),
(361,77,o),
(349,76,o),
(337,76,cs),
(301,76,o),
(281,87,o),
(267,103,cs),
(253,119,o),
(244,139,o),
(233,156,cs),
(226,168,o),
(217,177,o),
(207,182,cs),
(197,187,o),
(192,192,o),
(192,199,cs),
(192,206,o),
(197,209,o),
(206,209,cs),
(235,209,o),
(251,187,o),
(268,167,c),
(284,146,o),
(301,124,o),
(333,124,cs),
(349,124,o),
(366,127,o),
(377,134,c),
(381,159,o),
(392,177,o),
(412,186,c),
(296,198,o),
(227,263,o),
(227,366,cs),
(227,417,o),
(242,450,o),
(267,477,c),
(256,509,o),
(258,550,o),
(271,579,c),
(310,582,o),
(351,566,o),
(375,539,c),
(407,550,o),
(439,553,o),
(472,553,cs),
(505,553,o),
(537,550,o),
(569,539,c),
(593,566,o),
(634,582,o),
(673,579,c),
(686,550,o),
(688,509,o),
(677,477,c),
(702,450,o),
(717,417,o),
(717,366,cs),
(717,263,o),
(648,198,o),
(532,186,c),
(555,175,o),
(568,150,o),
(568,115,cs),
(568,10,ls),
(568,-6,o),
(582,-12,o),
(595,-8,cs),
(674,17,o),
(738,64,o),
(784,126,cs),
(830,188,o),
(855,267,o),
(855,356,cs),
(855,471,o),
(817,566,o),
(750,633,cs),
(683,700,o),
(587,738,o),
(472,738,cs),
(357,738,o),
(262,700,o),
(195,633,cs),
(127,566,o),
(89,471,o),
(89,356,cs),
(89,267,o),
(115,188,o),
(161,126,cs),
(207,64,o),
(272,17,o),
(349,-8,cs)
);
},
{
closed = 1;
nodes = (
(265,150,o),
(267,152,o),
(267,155,cs),
(267,158,o),
(264,160,o),
(260,160,cs),
(256,160,o),
(254,158,o),
(254,155,cs),
(254,152,o),
(257,150,o),
(261,150,cs)
);
},
{
closed = 1;
nodes = (
(233,185,o),
(235,186,o),
(235,189,cs),
(235,192,o),
(233,193,o),
(229,193,cs),
(226,193,o),
(224,192,o),
(224,189,cs),
(224,186,o),
(226,185,o),
(230,185,cs)
);
},
{
closed = 1;
nodes = (
(248,171,o),
(250,172,o),
(250,175,cs),
(250,178,o),
(248,179,o),
(244,179,cs),
(241,179,o),
(239,178,o),
(239,175,cs),
(239,172,o),
(241,171,o),
(245,171,cs)
);
},
{
closed = 1;
nodes = (
(309,109,o),
(312,111,o),
(312,115,cs),
(312,119,o),
(309,121,o),
(304,121,cs),
(300,121,o),
(297,119,o),
(297,115,cs),
(297,111,o),
(300,109,o),
(305,109,cs)
);
},
{
closed = 1;
nodes = (
(340,104,o),
(343,106,o),
(343,110,cs),
(343,114,o),
(340,116,o),
(335,116,cs),
(331,116,o),
(328,114,o),
(328,110,cs),
(328,106,o),
(331,104,o),
(336,104,cs)
);
},
{
closed = 1;
nodes = (
(371,110,o),
(374,112,o),
(374,116,cs),
(374,120,o),
(371,122,o),
(366,122,cs),
(362,122,o),
(359,120,o),
(359,116,cs),
(359,112,o),
(362,110,o),
(367,110,cs)
);
},
{
closed = 1;
nodes = (
(283,127,o),
(286,129,o),
(286,133,cs),
(286,137,o),
(283,139,o),
(278,139,cs),
(274,139,o),
(271,137,o),
(271,133,cs),
(271,129,o),
(274,127,o),
(279,127,cs)
);
}
);
width = 892;
},
{
layerId = "3FCCCC1A-F738-479A-AD82-BA541789BD82";
shapes = (
{
closed = 1;
nodes = (
(363,-12,o),
(377,-6,o),
(377,10,cs),
(377,80,l),
(362,77,o),
(350,76,o),
(338,76,cs),
(302,76,o),
(282,87,o),
(268,103,cs),
(254,119,o),
(245,139,o),
(234,156,cs),
(227,168,o),
(218,177,o),
(208,182,cs),
(198,187,o),
(193,192,o),
(193,199,cs),
(193,206,o),
(198,209,o),
(207,209,cs),
(236,209,o),
(252,187,o),
(269,167,c),
(285,146,o),
(302,124,o),
(334,124,cs),
(350,124,o),
(367,127,o),
(378,134,c),
(382,159,o),
(393,177,o),
(413,186,c),
(297,198,o),
(228,263,o),
(228,366,cs),
(228,417,o),
(243,450,o),
(268,477,c),
(257,509,o),
(259,550,o),
(272,579,c),
(311,582,o),
(352,566,o),
(376,539,c),
(408,550,o),
(440,553,o),
(473,553,cs),
(506,553,o),
(538,550,o),
(570,539,c),
(594,566,o),
(635,582,o),
(674,579,c),
(687,550,o),
(689,509,o),
(678,477,c),
(703,450,o),
(718,417,o),
(718,366,cs),
(718,263,o),
(649,198,o),
(533,186,c),
(556,175,o),
(569,150,o),
(569,115,cs),
(569,10,ls),
(569,-6,o),
(583,-12,o),
(596,-8,cs),
(675,17,o),
(739,64,o),
(785,126,cs),
(831,188,o),
(856,267,o),
(856,356,cs),
(856,471,o),
(818,566,o),
(751,633,cs),
(684,700,o),
(588,738,o),
(473,738,cs),
(358,738,o),
(263,700,o),
(196,633,cs),
(128,566,o),
(90,471,o),
(90,356,cs),
(90,267,o),
(116,188,o),
(162,126,cs),
(208,64,o),
(273,17,o),
(350,-8,cs)
);
},
{
closed = 1;
nodes = (
(266,150,o),
(268,152,o),
(268,155,cs),
(268,158,o),
(265,160,o),
(261,160,cs),
(257,160,o),
(255,158,o),
(255,155,cs),
(255,152,o),
(258,150,o),
(262,150,cs)
);
},
{
closed = 1;
nodes = (
(234,185,o),
(236,186,o),
(236,189,cs),
(236,192,o),
(234,193,o),
(230,193,cs),
(227,193,o),
(225,192,o),
(225,189,cs),
(225,186,o),
(227,185,o),
(231,185,cs)
);
},
{
closed = 1;
nodes = (
(249,171,o),
(251,172,o),
(251,175,cs),
(251,178,o),
(249,179,o),
(245,179,cs),
(242,179,o),
(240,178,o),
(240,175,cs),
(240,172,o),
(242,171,o),
(246,171,cs)
);
},
{
closed = 1;
nodes = (
(310,109,o),
(313,111,o),
(313,115,cs),
(313,119,o),
(310,121,o),
(305,121,cs),
(301,121,o),
(298,119,o),
(298,115,cs),
(298,111,o),
(301,109,o),
(306,109,cs)
);
},
{
closed = 1;
nodes = (
(341,104,o),
(344,106,o),
(344,110,cs),
(344,114,o),
(341,116,o),
(336,116,cs),
(332,116,o),
(329,114,o),
(329,110,cs),
(329,106,o),
(332,104,o),
(337,104,cs)
);
},
{
closed = 1;
nodes = (
(372,110,o),
(375,112,o),
(375,116,cs),
(375,120,o),
(372,122,o),
(367,122,cs),
(363,122,o),
(360,120,o),
(360,116,cs),
(360,112,o),
(363,110,o),
(368,110,cs)
);
},
{
closed = 1;
nodes = (
(284,127,o),
(287,129,o),
(287,133,cs),
(287,137,o),
(284,139,o),
(279,139,cs),
(275,139,o),
(272,137,o),
(272,133,cs),
(272,129,o),
(275,127,o),
(280,127,cs)
);
}
);
width = 891;
}
);
},
{
glyphname = exclam;
layers = (
{
layerId = "0A0AAF82-7A3B-4E69-84DB-BE8E4A819DF7";
shapes = (
{
closed = 1;
nodes = (
(204,243,l),
(329,484,l),
(397,729,l),
(162,729,l),
(95,484,l),
(86,243,l)
);
},
{
closed = 1;
nodes = (
(176,-9,o),
(232,34,o),
(232,107,cs),
(232,163,o),
(187,200,o),
(118,200,cs),
(34,200,o),
(-21,157,o),
(-21,82,cs),
(-21,27,o),
(23,-9,o),
(91,-9,cs)
);
}
);
width = 309;
},
{
layerId = "DD839978-B654-4D5F-A0C6-3C33A53FE9CB";
shapes = (
{
closed = 1;
nodes = (
(127,202,l),
(231,491,l),
(297,729,l),
(203,729,l),
(137,491,l),
(80,202,l)
);
},
{
closed = 1;
nodes = (
(92,-8,o),
(117,12,o),
(117,47,cs),
(117,75,o),
(96,93,o),
(65,93,cs),
(28,93,o),
(3,73,o),
(3,38,cs),
(3,10,o),
(23,-8,o),
(55,-8,cs)
);
}
);
width = 241;
},
{
layerId = "3FCCCC1A-F738-479A-AD82-BA541789BD82";
shapes = (
{
closed = 1;
nodes = (
(97,186,l),
(192,493,l),
(258,729,l),
(219,729,l),
(153,493,l),
(77,186,l)
);
},
{
closed = 1;
nodes = (
(60,-7,o),
(72,4,o),
(72,23,cs),
(72,40,o),
(61,51,o),
(44,51,cs),
(25,51,o),
(12,40,o),
(12,21,cs),
(12,4,o),
(24,-7,o),
(41,-7,cs)
);
}
);
width = 215;
}
);
unicode = 33;
},
{
glyphname = numbersign;
layers = (
{
layerId = "0A0AAF82-7A3B-4E69-84DB-BE8E4A819DF7";
shapes = (
{
closed = 1;
nodes = (
(239,0,l),
(282,160,l),
(381,160,l),
(338,0,l),
(514,0,l),
(557,160,l),
(673,160,l),
(716,316,l),
(600,316,l),
(626,411,l),
(742,411,l),
(785,568,l),
(669,568,l),
(713,729,l),
(537,729,l),
(493,568,l),
(395,568,l),
(438,729,l),
(260,729,l),
(217,568,l),
(102,568,l),
(58,411,l),
(173,411,l),
(148,316,l),
(33,316,l),
(-11,160,l),
(104,160,l),
(61,0,l)
);
},
{
closed = 1;
nodes = (
(351,411,l),
(450,411,l),
(424,316,l),
(326,316,l)
);
}
);
width = 726;
},
{
layerId = "DD839978-B654-4D5F-A0C6-3C33A53FE9CB";
shapes = (
{
closed = 1;
nodes = (
(180,0,l),
(240,221,l),
(406,221,l),
(346,0,l),
(419,0,l),
(479,221,l),
(628,221,l),
(646,285,l),
(497,285,l),
(545,460,l),
(694,460,l),
(712,524,l),
(563,524,l),
(618,729,l),
(546,729,l),
(490,524,l),
(324,524,l),
(380,729,l),
(306,729,l),
(251,524,l),
(98,524,l),
(80,460,l),
(233,460,l),
(185,285,l),
(32,285,l),
(14,221,l),
(167,221,l),
(107,0,l)
);
},
{
closed = 1;
nodes = (
(306,460,l),
(472,460,l),
(424,285,l),
(258,285,l)
);
}
);
width = 666;
},
{
layerId = "3FCCCC1A-F738-479A-AD82-BA541789BD82";
shapes = (
{
closed = 1;
nodes = (
(157,0,l),
(224,245,l),
(416,245,l),
(350,0,l),
(382,0,l),
(448,245,l),
(610,245,l),
(618,273,l),
(456,273,l),
(513,480,l),
(675,480,l),
(683,507,l),
(521,507,l),
(581,729,l),
(549,729,l),
(489,507,l),
(297,507,l),
(357,729,l),
(325,729,l),
(265,507,l),
(97,507,l),
(89,480,l),
(257,480,l),
(200,273,l),
(32,273,l),
(24,245,l),
(192,245,l),
(125,0,l)
);
},
{
closed = 1;
nodes = (
(289,480,l),
(481,480,l),
(424,273,l),
(232,273,l)
);
}
);
width = 642;
}
);
unicode = 35;
},
{
glyphname = dollar;
layers = (
{
layerId = "0A0AAF82-7A3B-4E69-84DB-BE8E4A819DF7";
shapes = (
{
closed = 1;
nodes = (
(433,8,o),
(520,31,o),
(580,79,cs),
(639,126,o),
(672,195,o),
(672,284,cs),
(672,336,o),
(658,374,o),
(621,406,cs),
(584,438,o),
(524,461,o),
(432,481,c),
(413,488,o),
(397,491,o),
(386,496,c),
(374,500,o),
(367,506,o),
(367,515,cs),
(367,522,o),
(370,527,o),
(376,531,cs),
(382,534,o),
(392,535,o),
(407,535,cs),
(426,535,o),
(440,532,o),
(449,525,c),
(457,517,o),
(461,508,o),
(460,497,c),
(717,497,l),
(720,558,o),
(694,615,o),
(643,656,cs),
(592,696,o),
(517,722,o),
(424,722,cs),
(339,722,o),
(254,704,o),
(193,662,cs),
(132,620,o),
(91,556,o),
(91,467,cs),
(91,418,o),
(107,378,o),
(144,344,cs),
(180,310,o),
(237,283,o),
(318,262,c),
(349,251,o),
(370,247,o),
(382,243,cs),
(394,239,o),
(399,235,o),
(399,226,cs),
(399,215,o),
(395,208,o),
(386,204,cs),
(377,199,o),
(362,197,o),
(338,197,cs),
(314,197,o),
(295,203,o),
(282,213,cs),
(269,223,o),
(263,234,o),
(263,247,c),
(12,247,l),
(7,172,o),
(36,112,o),
(89,72,cs),
(142,31,o),
(223,8,o),
(322,8,cs)
);
},
{
closed = 1;
nodes = (
(319,-85,l),
(376,130,l),
(211,130,l),
(154,-85,l)
);
},
{
closed = 1;
nodes = (
(509,609,l),
(567,815,l),
(402,815,l),
(345,609,l)
);
}
);
width = 701;
},
{
layerId = "DD839978-B654-4D5F-A0C6-3C33A53FE9CB";
shapes = (
{
closed = 1;
nodes = (
(398,9,o),
(468,30,o),
(519,70,cs),
(570,110,o),
(599,167,o),
(599,238,cs),
(599,286,o),
(584,322,o),
(552,351,c),
(519,379,o),
(468,400,o),
(392,417,cs),
(341,428,o),
(304,442,o),
(280,459,cs),
(255,476,o),
(242,499,o),
(242,524,cs),
(242,561,o),
(259,591,o),
(287,612,cs),
(315,632,o),
(355,643,o),
(400,643,cs),
(449,643,o),
(488,630,o),
(516,608,cs),
(544,586,o),
(559,553,o),
(556,516,c),
(656,516,l),
(660,577,o),
(636,629,o),
(593,665,cs),
(549,701,o),
(485,722,o),
(409,722,cs),
(330,722,o),
(262,703,o),
(214,667,cs),
(165,630,o),
(135,576,o),
(135,508,cs),
(135,464,o),
(149,429,o),
(184,400,cs),
(219,371,o),
(274,348,o),
(357,328,cs),
(406,316,o),
(441,303,o),
(462,286,cs),
(483,269,o),
(491,247,o),
(491,218,cs),
(491,181,o),
(476,148,o),
(446,125,cs),
(416,101,o),
(372,87,o),
(316,87,cs),
(261,87,o),
(216,101,o),
(185,126,cs),
(153,151,o),
(137,188,o),
(138,235,c),
(39,235,l),
(34,166,o),
(57,109,o),
(105,70,cs),
(152,30,o),
(223,9,o),
(315,9,cs)
);
},
{
closed = 1;
nodes = (
(258,-85,l),
(297,62,l),
(227,62,l),
(188,-85,l)
);
},
{
closed = 1;
nodes = (
(468,679,l),
(505,814,l),
(435,814,l),
(398,679,l)
);
}
);
width = 660;
},
{
layerId = "3FCCCC1A-F738-479A-AD82-BA541789BD82";
shapes = (
{
closed = 1;
nodes = (
(384,9,o),
(448,30,o),
(495,67,cs),
(542,103,o),
(570,156,o),
(570,220,cs),
(570,267,o),
(556,302,o),
(525,329,cs),
(494,356,o),
(445,376,o),
(376,392,c),
(313,405,o),
(268,422,o),
(238,445,cs),
(208,468,o),
(193,496,o),
(193,528,cs),
(193,577,o),
(216,616,o),
(253,644,cs),
(289,671,o),
(339,685,o),
(398,685,cs),
(458,685,o),
(508,669,o),
(543,641,cs),
(578,612,o),
(597,571,o),
(594,523,c),
(632,523,l),
(636,586,o),
(613,636,o),
(573,670,cs),
(532,704,o),
(472,722,o),
(403,722,cs),
(328,722,o),
(266,703,o),
(222,668,cs),
(178,633,o),
(152,584,o),
(152,524,cs),
(152,483,o),
(166,450,o),
(200,423,cs),
(234,395,o),
(289,373,o),
(372,354,cs),
(429,341,o),
(468,325,o),
(493,303,cs),
(518,281,o),
(528,252,o),
(528,216,cs),
(528,167,o),
(508,124,o),
(469,93,cs),
(430,62,o),
(375,44,o),
(307,44,cs),
(242,44,o),
(185,61,o),
(146,92,cs),
(107,123,o),
(86,170,o),
(89,230,c),
(49,230,l),
(45,162,o),
(66,107,o),
(111,69,cs),
(155,31,o),
(223,9,o),
(311,9,cs)
);
},
{
closed = 1;
nodes = (
(234,-85,l),
(266,35,l),
(233,35,l),
(201,-85,l)
);
},
{
closed = 1;
nodes = (
(451,707,l),
(481,814,l),
(448,814,l),
(419,707,l)
);
}
);
width = 645;
}
);
unicode = 36;
},
{
glyphname = percent;
layers = (
{
layerId = "0A0AAF82-7A3B-4E69-84DB-BE8E4A819DF7";
shapes = (
{
closed = 1;
nodes = (
(282,0,l),
(950,729,l),
(774,729,l),
(104,0,l)
);
},
{
closed = 1;
nodes = (
(338,329,o),
(392,355,o),
(428,398,cs),
(464,441,o),
(484,499,o),
(483,563,cs),
(483,611,o),
(468,652,o),
(440,682,cs),
(412,712,o),
(370,729,o),
(315,729,cs),
(250,729,o),
(196,703,o),
(160,660,cs),
(124,617,o),
(104,560,o),
(105,495,cs),
(105,447,o),
(120,406,o),
(148,376,cs),
(176,346,o),
(218,329,o),
(273,329,cs)
);
},
{
closed = 1;
nodes = (
(271,459,o),
(264,470,o),
(262,486,cs),
(260,501,o),
(263,523,o),
(267,544,c),
(272,560,o),
(276,574,o),
(281,584,cs),
(286,594,o),
(293,599,o),
(304,599,cs),
(319,599,o),
(325,588,o),
(327,572,cs),
(329,556,o),
(325,535,o),
(321,514,cs),
(317,497,o),
(312,483,o),
(307,474,cs),
(302,465,o),
(295,459,o),
(284,459,cs)
);
},
{
closed = 1;
nodes = (
(797,-8,o),
(851,19,o),
(887,61,cs),
(923,103,o),
(943,161,o),
(943,225,c),
(942,273,o),
(928,315,o),
(900,345,cs),
(872,375,o),
(830,392,o),
(775,392,cs),
(710,392,o),
(656,366,o),
(620,324,cs),
(584,282,o),
(564,222,o),
(565,157,cs),
(565,112,o),
(580,68,o),
(608,39,cs),
(636,10,o),
(677,-8,o),
(732,-8,cs)
);
},
{
closed = 1;
nodes = (
(729,122,o),
(724,133,o),
(722,149,cs),
(720,164,o),
(723,185,o),
(727,206,c),
(732,223,o),
(736,237,o),
(741,247,cs),
(746,257,o),
(753,261,o),
(764,261,cs),
(777,261,o),
(785,251,o),
(786,236,cs),
(787,220,o),
(784,198,o),
(780,177,cs),
(776,160,o),
(771,146,o),
(766,137,cs),
(761,128,o),
(755,122,o),
(744,122,cs)
);
}
);
width = 1002;
},
{
layerId = "DD839978-B654-4D5F-A0C6-3C33A53FE9CB";
shapes = (
{
closed = 1;
nodes = (
(166,0,l),
(843,729,l),
(760,729,l),
(83,0,l)
);
},
{
closed = 1;
nodes = (
(311,349,o),
(358,375,o),
(391,418,cs),
(423,461,o),
(443,521,o),
(444,590,cs),
(445,630,o),
(434,665,o),
(412,690,cs),
(390,714,o),
(355,729,o),
(312,729,cs),
(256,729,o),
(210,703,o),
(177,660,cs),
(144,617,o),
(126,557,o),
(123,488,c),
(123,448,o),
(135,413,o),
(157,389,cs),
(179,364,o),
(212,349,o),
(256,349,cs)
);
},
{
closed = 1;
nodes = (
(235,409,o),
(218,419,o),
(207,435,cs),
(196,451,o),
(192,475,o),
(195,500,c),
(198,551,o),
(210,593,o),
(230,623,cs),
(250,653,o),
(277,670,o),
(309,670,cs),
(333,670,o),
(349,660,o),
(360,644,cs),
(371,627,o),
(376,603,o),
(373,578,c),
(370,527,o),
(358,486,o),
(338,456,cs),
(318,426,o),
(291,409,o),
(258,409,cs)
);
},
{
closed = 1;
nodes = (
(660,-10,o),
(707,15,o),
(740,59,cs),
(772,102,o),
(792,162,o),
(793,231,cs),
(794,271,o),
(783,306,o),
(760,331,cs),
(737,355,o),
(704,370,o),
(661,370,cs),
(605,370,o),
(559,344,o),
(526,301,cs),
(493,258,o),
(474,199,o),
(473,128,cs),
(472,89,o),
(482,54,o),
(505,30,cs),
(528,5,o),
(561,-10,o),
(604,-10,cs)
);
},
{
closed = 1;
nodes = (
(584,49,o),
(567,59,o),
(556,76,cs),
(545,92,o),
(541,116,o),
(544,141,c),
(547,192,o),
(559,234,o),
(579,264,cs),
(599,294,o),
(626,310,o),
(658,310,cs),
(682,310,o),
(698,301,o),
(710,285,c),
(721,268,o),
(725,245,o),
(722,218,c),
(719,169,o),
(706,127,o),
(687,97,cs),
(667,67,o),
(639,49,o),
(607,49,cs)
);
}
);
width = 864;
},
{
layerId = "3FCCCC1A-F738-479A-AD82-BA541789BD82";
shapes = (
{
closed = 1;
nodes = (
(120,0,l),
(801,729,l),
(755,729,l),
(74,0,l)
);
},
{
closed = 1;
nodes = (
(301,357,o),
(345,383,o),
(377,426,cs),
(408,469,o),
(426,530,o),
(429,601,cs),
(430,638,o),
(420,670,o),
(400,693,cs),
(380,716,o),
(350,729,o),
(311,729,cs),
(259,729,o),
(216,704,o),
(184,661,cs),
(152,617,o),
(134,556,o),
(131,485,c),
(128,448,o),
(140,417,o),
(160,394,cs),
(180,371,o),
(209,357,o),
(249,357,cs)
);
},
{
closed = 1;
nodes = (
(221,389,o),
(200,399,o),
(186,415,cs),
(172,431,o),
(165,455,o),
(166,483,cs),
(169,547,o),
(185,601,o),
(210,639,cs),
(235,677,o),
(271,698,o),
(312,698,cs),
(339,698,o),
(360,688,o),
(374,672,cs),
(388,655,o),
(396,631,o),
(393,603,c),
(392,539,o),
(375,485,o),
(350,448,cs),
(325,411,o),
(289,389,o),
(248,389,cs)
);
},
{
closed = 1;
nodes = (
(605,-11,o),
(650,14,o),
(682,58,cs),
(713,102,o),
(731,162,o),
(734,234,cs),
(735,270,o),
(726,302,o),
(706,325,cs),
(685,348,o),
(655,361,o),
(616,361,cs),
(564,361,o),
(520,336,o),
(489,293,cs),
(457,249,o),
(439,189,o),
(436,117,cs),
(435,80,o),
(444,49,o),
(465,26,c),
(485,2,o),
(516,-11,o),
(553,-11,cs)
);
},
{
closed = 1;
nodes = (
(526,20,o),
(506,30,o),
(492,47,cs),
(478,63,o),
(470,87,o),
(471,116,cs),
(474,179,o),
(490,233,o),
(515,271,cs),
(540,309,o),
(576,330,o),
(617,330,cs),
(644,330,o),
(664,320,o),
(679,304,cs),
(694,287,o),
(702,263,o),
(699,235,c),
(696,172,o),
(680,119,o),
(655,81,cs),
(630,43,o),
(594,20,o),
(553,20,cs)
);
}
);
width = 809;
}
);
leftKerningGroup = percent;
unicode = 37;
},
{
glyphname = ampersand;
layers = (
{
layerId = "0A0AAF82-7A3B-4E69-84DB-BE8E4A819DF7";
shapes = (
{
closed = 1;
nodes = (
(257,-10,o),
(298,-5,o),
(333,4,cs),
(368,13,o),
(398,27,o),
(418,44,c),
(325,191,l),
(309,178,o),
(287,178,o),
(283,178,c),
(268,177,o),
(257,181,o),
(249,189,c),
(240,196,o),
(235,207,o),
(234,220,c),
(235,228,o),
(237,236,o),
(241,243,cs),
(244,250,o),
(250,258,o),
(255,263,c),
(430,0,l),
(691,0,l),
(571,181,l),
(571,161,l),
(584,168,o),
(597,178,o),
(610,188,cs),
(622,198,o),
(634,208,o),
(643,217,c),
(704,217,l),
(746,392,l),
(540,392,l),
(535,376,o),
(526,361,o),
(517,348,cs),
(508,335,o),
(498,322,o),
(485,311,c),
(455,354,l),
(455,362,l),
(503,374,o),
(544,400,o),
(573,433,cs),
(601,466,o),
(620,506,o),
(621,553,c),
(624,606,o),
(604,654,o),
(565,687,cs),
(525,720,o),
(467,739,o),
(394,739,cs),
(329,739,o),
(263,718,o),
(215,679,cs),
(167,640,o),
(135,587,o),
(132,520,cs),
(129,473,o),
(142,424,o),
(178,380,c),
(184,394,l),
(128,381,o),
(81,356,o),
(47,320,cs),
(13,283,o),
(-8,236,o),
(-11,177,cs),
(-14,122,o),
(7,75,o),
(47,43,c),
(86,10,o),
(144,-10,o),
(217,-10,cs)
);
},
{
closed = 1;
nodes = (
(373,473,l),
(364,482,o),
(352,503,o),
(355,518,c),
(354,529,o),
(360,538,o),
(367,544,cs),
(374,550,o),
(382,553,o),
(389,553,cs),
(402,553,o),
(414,541,o),
(414,525,cs),
(414,516,o),
(409,505,o),
(402,497,cs),
(395,488,o),
(388,480,o),
(380,473,c)
);
}
);
width = 757;
},
{
layerId = "DD839978-B654-4D5F-A0C6-3C33A53FE9CB";
shapes = (
{
closed = 1;
nodes = (
(264,-10,o),
(309,-1,o),
(349,16,cs),
(388,33,o),
(421,57,o),
(448,88,c),
(409,150,l),
(369,97,o),
(311,67,o),
(236,67,cs),
(200,67,o),
(167,78,o),
(144,99,cs),
(120,120,o),
(108,152,o),
(109,192,c),
(112,233,o),
(128,267,o),
(156,295,cs),
(183,322,o),
(223,342,o),
(268,354,c),
(490,0,l),
(594,0,l),
(496,156,l),
(494,128,l),
(514,149,o),
(532,177,o),
(548,207,cs),
(564,237,o),
(578,269,o),
(585,300,c),
(686,300,l),
(704,373,l),
(535,373,l),
(531,345,o),
(521,314,o),
(509,284,cs),
(497,254,o),
(482,224,o),
(466,203,c),
(353,383,l),
(354,388,l),
(417,403,o),
(465,429,o),
(500,462,cs),
(535,495,o),
(555,537,o),
(556,582,c),
(559,630,o),
(543,668,o),
(513,696,cs),
(483,723,o),
(439,739,o),
(386,739,cs),
(331,739,o),
(282,719,o),
(246,687,cs),
(209,654,o),
(187,606,o),
(184,553,cs),
(181,505,o),
(197,460,o),
(238,399,c),
(242,410,l),
(174,395,o),
(118,366,o),
(79,326,cs),
(39,285,o),
(17,233,o),
(14,176,cs),
(11,116,o),
(32,70,o),
(69,39,cs),
(106,7,o),
(159,-10,o),
(219,-10,cs)
);
},
{
closed = 1;
nodes = (
(316,437,l),
(288,478,o),
(270,512,o),
(273,552,c),
(274,585,o),
(287,613,o),
(307,633,cs),
(326,652,o),
(352,663,o),
(383,663,cs),
(442,663,o),
(474,625,o),
(471,572,c),
(471,540,o),
(457,512,o),
(431,489,cs),
(405,466,o),
(369,448,o),
(321,437,c)
);
}
);
width = 699;
},
{
layerId = "3FCCCC1A-F738-479A-AD82-BA541789BD82";
shapes = (
{
closed = 1;
nodes = (
(268,-10,o),
(314,1,o),
(355,21,cs),
(395,41,o),
(431,69,o),
(460,105,c),
(442,133,l),
(393,64,o),
(319,23,o),
(218,23,c),
(173,24,o),
(131,37,o),
(103,64,cs),
(74,91,o),
(57,130,o),
(60,181,cs),
(63,236,o),
(85,280,o),
(122,316,cs),
(159,351,o),
(212,376,o),
(273,391,c),
(513,0,l),
(556,0,l),
(466,146,l),
(464,115,l),
(485,142,o),
(507,177,o),
(524,215,cs),
(541,253,o),
(555,293,o),
(563,333,c),
(679,333,l),
(688,365,l),
(534,365,l),
(529,333,o),
(519,295,o),
(506,259,cs),
(493,222,o),
(477,187,o),
(458,160,c),
(312,395,l),
(314,398,l),
(382,414,o),
(435,440,o),
(472,473,cs),
(508,506,o),
(529,547,o),
(530,594,c),
(533,638,o),
(519,674,o),
(492,699,cs),
(465,724,o),
(428,739,o),
(383,739,cs),
(332,739,o),
(289,721,o),
(258,690,cs),
(226,659,o),
(207,616,o),
(204,565,cs),
(201,518,o),
(218,475,o),
(261,406,c),
(266,416,l),
(193,401,o),
(134,371,o),
(92,329,cs),
(50,287,o),
(26,232,o),
(23,176,cs),
(20,115,o),
(42,68,o),
(78,37,cs),
(114,6,o),
(164,-10,o),
(220,-10,cs)
);
},
{
closed = 1;
nodes = (
(293,423,l),
(257,476,o),
(238,515,o),
(241,566,cs),
(244,607,o),
(258,643,o),
(283,667,cs),
(307,691,o),
(341,706,o),
(381,706,cs),
(457,706,o),
(497,659,o),
(494,590,cs),
(493,550,o),
(475,515,o),
(442,487,cs),
(409,458,o),
(361,436,o),
(297,423,c)
);
}
);
width = 677;
}
);
unicode = 38;
},
{
glyphname = quotesingle;
layers = (
{
layerId = "0A0AAF82-7A3B-4E69-84DB-BE8E4A819DF7";
shapes = (
{
closed = 1;
nodes = (
(205,389,l),
(317,601,l),
(352,729,l),
(144,729,l),
(108,601,l),
(104,389,l)
);
}
);
width = 244;
},
{
layerId = "DD839978-B654-4D5F-A0C6-3C33A53FE9CB";
shapes = (
{
closed = 1;
nodes = (
(167,463,l),
(230,617,l),
(260,729,l),
(178,729,l),
(147,617,l),
(124,463,l)
);
}
);
width = 181;
},
{
layerId = "3FCCCC1A-F738-479A-AD82-BA541789BD82";
shapes = (
{
closed = 1;
nodes = (
(152,492,l),
(195,623,l),
(224,729,l),
(191,729,l),
(162,623,l),
(132,492,l)
);
}
);
width = 157;
}
);
leftKerningGroup = quotedbl2;
rightKerningGroup = quotedbl;
unicode = 39;
},
{
glyphname = parenleft;
layers = (
{
layerId = "0A0AAF82-7A3B-4E69-84DB-BE8E4A819DF7";
shapes = (
{
closed = 1;
nodes = (
(276,-167,l),
(252,-102,o),
(238,-22,o),
(235,61,cs),
(231,144,o),
(240,229,o),
(260,304,c),
(284,404,o),
(327,500,o),
(380,585,cs),
(433,669,o),
(497,742,o),
(568,793,c),
(348,793,l),
(279,748,o),
(213,679,o),
(158,599,cs),
(103,519,o),
(60,426,o),
(36,334,cs),
(13,245,o),
(7,149,o),
(18,61,cs),
(29,-27,o),
(55,-107,o),
(95,-167,c)
);
}
);
width = 425;
},
{
layerId = "DD839978-B654-4D5F-A0C6-3C33A53FE9CB";
shapes = (
{
closed = 1;
nodes = (
(204,-167,l),
(167,-107,o),
(141,-30,o),
(133,57,cs),
(124,143,o),
(130,235,o),
(153,326,cs),
(177,421,o),
(219,513,o),
(274,595,cs),
(329,677,o),
(395,746,o),
(467,793,c),
(375,793,l),
(303,746,o),
(235,677,o),
(183,598,cs),
(130,518,o),
(88,428,o),
(64,336,cs),
(40,244,o),
(34,149,o),
(46,61,cs),
(57,-27,o),
(85,-107,o),
(129,-167,c)
);
}
);
width = 353;
},
{
layerId = "3FCCCC1A-F738-479A-AD82-BA541789BD82";
shapes = (
{
closed = 1;
nodes = (
(176,-167,l),
(132,-110,o),
(104,-32,o),
(93,55,cs),
(81,142,o),
(86,238,o),
(111,335,cs),
(135,426,o),
(177,518,o),
(232,599,cs),
(287,679,o),
(354,748,o),
(427,793,c),
(386,793,l),
(311,745,o),
(245,677,o),
(193,598,cs),
(140,518,o),
(99,428,o),
(75,337,cs),
(51,244,o),
(44,149,o),
(56,62,cs),
(68,-26,o),
(96,-107,o),
(143,-167,c)
);
}
);
width = 325;
}
);
unicode = 40;
},
{
glyphname = parenright;
layers = (
{
layerId = "0A0AAF82-7A3B-4E69-84DB-BE8E4A819DF7";
shapes = (
{
closed = 1;
nodes = (
(169,793,l),
(194,728,o),
(208,648,o),
(211,565,cs),
(214,482,o),
(205,397,o),
(186,322,cs),
(161,222,o),
(120,126,o),
(66,42,cs),
(12,-43,o),
(-53,-116,o),
(-122,-167,c),
(97,-167,l),
(166,-122,o),
(232,-53,o),
(287,27,cs),
(342,107,o),
(386,200,o),
(410,292,cs),
(433,381,o),
(438,477,o),
(428,565,cs),
(418,653,o),
(390,733,o),
(350,793,c)
);
}
);
width = 425;
},
{
layerId = "DD839978-B654-4D5F-A0C6-3C33A53FE9CB";
shapes = (
{
closed = 1;
nodes = (
(177,793,l),
(214,733,o),
(240,656,o),
(249,570,cs),
(257,484,o),
(251,391,o),
(228,300,cs),
(204,205,o),
(162,114,o),
(107,32,cs),
(52,-51,o),
(-14,-120,o),
(-86,-167,c),
(6,-167,l),
(79,-120,o),
(146,-51,o),
(199,29,cs),
(251,108,o),
(293,198,o),
(317,290,cs),
(341,382,o),
(347,477,o),
(336,565,cs),
(324,653,o),
(296,733,o),
(252,793,c)
);
}
);
width = 353;
},
{
layerId = "3FCCCC1A-F738-479A-AD82-BA541789BD82";
shapes = (
{
closed = 1;
nodes = (
(180,793,l),
(223,736,o),
(252,658,o),
(264,571,cs),
(275,484,o),
(269,388,o),
(244,291,cs),
(220,200,o),
(178,108,o),
(124,28,cs),
(70,-53,o),
(1,-122,o),
(-72,-167,c),
(-30,-167,l),
(45,-119,o),
(111,-51,o),
(164,29,cs),
(216,109,o),
(257,198,o),
(281,289,cs),
(305,382,o),
(311,477,o),
(300,565,cs),
(288,652,o),
(260,733,o),
(213,793,c)
);
}
);
width = 325;
}
);
unicode = 41;
},
{
glyphname = asterisk;
layers = (
{
layerId = "0A0AAF82-7A3B-4E69-84DB-BE8E4A819DF7";
shapes = (
{
closed = 1;
nodes = (
(238,446,l),
(248,483,l),
(246,542,l),
(277,497,l),
(305,479,l),
(365,552,l),
(337,570,l),
(281,587,l),
(346,603,l),
(383,622,l),
(359,694,l),
(321,676,l),
(267,631,l),
(299,691,l),
(309,729,l),
(225,729,l),
(215,691,l),
(218,631,l),
(185,676,l),
(157,694,l),
(98,622,l),
(125,603,l),
(182,587,l),
(117,570,l),
(81,552,l),
(102,479,l),
(140,497,l),
(196,542,l),
(165,483,l),
(155,446,l)
);
}
);
width = 293;
},
{
layerId = "DD839978-B654-4D5F-A0C6-3C33A53FE9CB";
shapes = (
{
closed = 1;
nodes = (
(226,452,l),
(239,505,l),
(244,570,l),
(285,528,l),
(325,502,l),
(355,540,l),
(316,567,l),
(263,591,l),
(329,615,l),
(379,640,l),
(367,679,l),
(316,653,l),
(255,612,l),
(280,677,l),
(294,729,l),
(249,729,l),
(236,677,l),
(232,612,l),
(191,653,l),
(151,679,l),
(122,640,l),
(159,615,l),
(213,591,l),
(147,567,l),
(96,540,l),
(109,502,l),
(160,528,l),
(221,570,l),
(194,505,l),
(182,452,l)
);
}
);
width = 298;
},
{
layerId = "3FCCCC1A-F738-479A-AD82-BA541789BD82";
shapes = (
{
closed = 1;
nodes = (
(221,454,l),
(235,513,l),
(243,581,l),
(289,541,l),
(333,511,l),
(351,536,l),
(308,566,l),
(257,593,l),
(322,619,l),
(378,647,l),
(370,672,l),
(314,644,l),
(250,605,l),
(273,672,l),
(288,729,l),
(259,729,l),
(244,672,l),
(238,605,l),
(193,644,l),
(149,672,l),
(131,647,l),
(172,619,l),
(225,593,l),
(159,566,l),
(102,536,l),
(111,511,l),
(168,541,l),
(231,581,l),
(206,513,l),
(192,454,l)
);
}
);
width = 300;
}
);
unicode = 42;
},
{
glyphname = plus;
layers = (
{
layerId = "0A0AAF82-7A3B-4E69-84DB-BE8E4A819DF7";
shapes = (
{
closed = 1;
nodes = (
(369,115,l),
(412,266,l),
(557,266,l),
(609,455,l),
(464,455,l),
(507,606,l),
(312,606,l),
(270,455,l),
(126,455,l),
(74,266,l),
(218,266,l),
(176,115,l)
);
}
);
width = 636;
},
{
layerId = "DD839978-B654-4D5F-A0C6-3C33A53FE9CB";
shapes = (
{
closed = 1;
nodes = (
(316,118,l),
(373,323,l),
(573,323,l),
(594,399,l),
(395,399,l),
(452,604,l),
(372,604,l),
(316,399,l),
(116,399,l),
(95,323,l),
(295,323,l),
(237,118,l)
);
}
);
width = 636;
},
{
layerId = "3FCCCC1A-F738-479A-AD82-BA541789BD82";
shapes = (
{
closed = 1;
nodes = (
(295,120,l),
(358,345,l),
(580,345,l),
(589,377,l),
(367,377,l),
(430,603,l),
(396,603,l),
(334,377,l),
(113,377,l),
(104,345,l),
(325,345,l),
(261,120,l)
);
}
);
width = 636;
}
);
unicode = 43;
},
{
glyphname = comma;
layers = (
{
layerId = "0A0AAF82-7A3B-4E69-84DB-BE8E4A819DF7";
shapes = (
{
closed = 1;
nodes = (
(19,-178,l),
(63,-153,o),
(112,-111,o),
(149,-63,cs),
(185,-15,o),
(211,38,o),
(211,89,cs),
(211,156,o),
(166,200,o),
(93,200,cs),
(10,200,o),
(-38,155,o),
(-38,91,cs),
(-38,39,o),
(5,3,o),
(64,3,cs),
(84,3,o),
(97,6,o),
(105,9,c),
(86,29,l),
(51,-35,o),
(-24,-110,o),
(-131,-178,c)
);
}
);
width = 277;
},
{
layerId = "DD839978-B654-4D5F-A0C6-3C33A53FE9CB";
shapes = (
{
closed = 1;
nodes = (
(-24,-139,l),
(4,-118,o),
(32,-86,o),
(56,-54,c),
(79,-21,o),
(94,12,o),
(94,39,cs),
(94,72,o),
(74,93,o),
(38,93,cs),
(1,93,o),
(-22,72,o),
(-22,39,cs),
(-22,11,o),
(0,-6,o),
(29,-6,cs),
(38,-6,o),
(45,-4,o),
(50,-3,c),
(43,8,l),
(23,-37,o),
(-25,-92,o),
(-84,-139,c)
);
}
);
width = 198;
},
{
layerId = "3FCCCC1A-F738-479A-AD82-BA541789BD82";
shapes = (
{
closed = 1;
nodes = (
(-40,-124,l),
(-20,-104,o),
(2,-77,o),
(19,-50,cs),
(36,-23,o),
(48,3,o),
(48,20,cs),
(48,39,o),
(37,51,o),
(16,51,cs),
(-3,51,o),
(-15,40,o),
(-15,19,cs),
(-15,0,o),
(-3,-9,o),
(16,-9,cs),
(20,-9,o),
(24,-9,o),
(29,-8,c),
(26,0,l),
(11,-39,o),
(-26,-85,o),
(-65,-124,c)
);
}
);
width = 167;
}
);
unicode = 44;
},
{
glyphname = hyphen;
layers = (
{
layerId = "0A0AAF82-7A3B-4E69-84DB-BE8E4A819DF7";
shapes = (
{
closed = 1;
nodes = (
(375,177,l),
(431,373,l),
(58,373,l),
(4,177,l)
);
}
);
width = 433;
},
{
layerId = "DD839978-B654-4D5F-A0C6-3C33A53FE9CB";
shapes = (
{
closed = 1;
nodes = (
(333,224,l),
(356,303,l),
(60,303,l),
(38,224,l)
);
}
);
width = 392;
},
{
layerId = "3FCCCC1A-F738-479A-AD82-BA541789BD82";
shapes = (
{
closed = 1;
nodes = (
(316,242,l),
(326,275,l),
(61,275,l),
(52,242,l)
);
}
);
width = 376;
}
);
leftKerningGroup = hyphen2;
rightKerningGroup = hyphen;
unicode = 45;
},
{
glyphname = period;
layers = (
{
layerId = "0A0AAF82-7A3B-4E69-84DB-BE8E4A819DF7";
shapes = (
{
closed = 1;
nodes = (
(158,-9,o),
(214,34,o),
(214,107,cs),
(214,163,o),
(170,200,o),
(101,200,cs),
(17,200,o),
(-39,157,o),
(-39,82,cs),
(-39,27,o),
(5,-9,o),
(74,-9,cs)
);
}
);
width = 274;
},
{
layerId = "DD839978-B654-4D5F-A0C6-3C33A53FE9CB";
shapes = (
{
closed = 1;
nodes = (
(69,-8,o),
(93,12,o),
(93,47,cs),
(93,75,o),
(73,93,o),
(41,93,cs),
(4,93,o),
(-21,73,o),
(-21,38,cs),
(-21,10,o),
(0,-8,o),
(32,-8,cs)
);
}
);
width = 194;
},
{
layerId = "3FCCCC1A-F738-479A-AD82-BA541789BD82";
shapes = (
{
closed = 1;
nodes = (
(34,-7,o),
(46,4,o),
(46,23,cs),
(46,40,o),
(34,51,o),
(17,51,cs),
(-2,51,o),
(-14,40,o),
(-14,21,cs),
(-14,4,o),
(-2,-7,o),
(15,-7,cs)
);
}
);
width = 163;
}
);
unicode = 46;
},
{
glyphname = slash;
layers = (
{
layerId = "0A0AAF82-7A3B-4E69-84DB-BE8E4A819DF7";
shapes = (
{
closed = 1;
nodes = (
(139,-82,l),
(657,729,l),
(408,729,l),
(-107,-82,l)
);
}
);
width = 533;
},
{
layerId = "DD839978-B654-4D5F-A0C6-3C33A53FE9CB";
shapes = (
{
closed = 1;
nodes = (
(-1,-81,l),
(554,729,l),
(456,729,l),
(-99,-81,l)
);
}
);
width = 436;
},
{
layerId = "3FCCCC1A-F738-479A-AD82-BA541789BD82";
shapes = (
{
closed = 1;
nodes = (
(-57,-81,l),
(513,729,l),
(475,729,l),
(-96,-81,l)
);
}
);
width = 397;
}
);
unicode = 47;
},
{
glyphname = zero.lf;
layers = (
{
layerId = "0A0AAF82-7A3B-4E69-84DB-BE8E4A819DF7";
shapes = (
{
closed = 1;
nodes = (
(402,-9,o),
(485,18,o),
(551,74,cs),
(617,129,o),
(667,211,o),
(691,321,cs),
(719,447,o),
(709,551,o),
(665,624,cs),
(621,696,o),
(541,736,o),
(432,736,cs),
(340,736,o),
(258,709,o),
(191,653,cs),
(124,598,o),
(76,517,o),
(52,406,cs),
(22,281,o),
(33,177,o),
(79,104,cs),
(124,31,o),
(202,-9,o),
(310,-9,cs)
);
},
{
closed = 1;
nodes = (
(300,193,o),
(282,215,o),
(276,249,cs),
(270,281,o),
(276,327,o),
(289,375,cs),
(304,433,o),
(318,473,o),
(337,498,cs),
(355,523,o),
(378,534,o),
(409,534,cs),
(442,534,o),
(461,513,o),
(467,480,cs),
(473,447,o),
(468,401,o),
(453,353,c),
(438,293,o),
(424,254,o),
(404,230,cs),
(385,204,o),
(363,193,o),
(334,193,cs)
);
}
);
width = 689;
},
{
layerId = "DD839978-B654-4D5F-A0C6-3C33A53FE9CB";
shapes = (
{
closed = 1;
nodes = (
(379,-9,o),
(453,22,o),
(513,84,cs),
(572,146,o),
(617,238,o),
(637,359,c),
(658,465,o),
(653,560,o),
(618,628,cs),
(582,696,o),
(517,737,o),
(420,737,cs),
(336,737,o),
(261,705,o),
(201,643,cs),
(142,581,o),
(98,490,o),
(77,369,cs),
(57,260,o),
(63,166,o),
(99,98,cs),
(134,30,o),
(198,-9,o),
(295,-9,cs)
);
},
{
closed = 1;
nodes = (
(241,73,o),
(200,102,o),
(180,151,cs),
(159,199,o),
(158,269,o),
(171,346,cs),
(187,446,o),
(216,523,o),
(258,575,cs),
(298,627,o),
(351,655,o),
(412,655,cs),
(475,655,o),
(515,626,o),
(535,577,cs),
(555,528,o),
(557,459,o),
(544,381,cs),
(529,287,o),
(500,209,o),
(460,156,cs),
(419,102,o),
(366,73,o),
(302,73,cs)
);
}
);
width = 654;
},
{
layerId = "3FCCCC1A-F738-479A-AD82-BA541789BD82";
shapes = (
{
closed = 1;
nodes = (
(370,-10,o),
(442,23,o),
(498,88,cs),
(554,153,o),
(597,249,o),
(616,374,c),
(635,472,o),
(630,564,o),
(599,630,cs),
(567,696,o),
(508,737,o),
(415,737,cs),
(335,737,o),
(263,704,o),
(206,640,cs),
(150,575,o),
(107,479,o),
(88,354,c),
(69,253,o),
(74,162,o),
(106,96,cs),
(138,30,o),
(196,-10,o),
(289,-10,cs)
);
},
{
closed = 1;
nodes = (
(216,24,o),
(167,57,o),
(142,112,cs),
(116,168,o),
(111,246,o),
(124,335,cs),
(141,451,o),
(177,542,o),
(226,606,cs),
(276,669,o),
(340,703,o),
(413,703,cs),
(488,703,o),
(536,670,o),
(562,615,cs),
(588,559,o),
(593,482,o),
(579,392,cs),
(564,283,o),
(531,192,o),
(481,127,cs),
(432,62,o),
(367,24,o),
(290,24,cs)
);
}
);
width = 640;
}
);
leftKerningGroup = six.lf;
},
{
glyphname = one.lf;
layers = (
{
layerId = "0A0AAF82-7A3B-4E69-84DB-BE8E4A819DF7";
shapes = (
{
closed = 1;
nodes = (
(369,0,l),
(570,729,l),
(339,729,l),
(323,689,o),
(292,655,o),
(256,632,cs),
(218,608,o),
(175,594,o),
(130,594,cs),
(100,594,l),
(49,406,l),
(234,406,l),
(121,0,l)
);
}
);
width = 488;
},
{
layerId = "DD839978-B654-4D5F-A0C6-3C33A53FE9CB";
shapes = (
{
closed = 1;
nodes = (
(209,0,l),
(411,729,l),
(318,729,l),
(303,692,o),
(282,661,o),
(254,641,cs),
(224,621,o),
(189,609,o),
(145,609,cs),
(117,609,l),
(97,535,l),
(259,535,l),
(111,0,l)
);
}
);
width = 356;
},
{
layerId = "3FCCCC1A-F738-479A-AD82-BA541789BD82";
shapes = (
{
closed = 1;
nodes = (
(146,0,l),
(347,729,l),
(310,729,l),
(297,693,o),
(278,664,o),
(253,645,cs),
(227,625,o),
(194,615,o),
(151,615,cs),
(124,615,l),
(116,585,l),
(268,585,l),
(107,0,l)
);
}
);
width = 304;
}
);
},
{
glyphname = two.lf;
layers = (
{
layerId = "0A0AAF82-7A3B-4E69-84DB-BE8E4A819DF7";
shapes = (
{
closed = 1;
nodes = (
(542,0,l),
(596,203,l),
(316,203,l),
(335,212,o),
(356,221,o),
(380,232,cs),
(428,251,o),
(478,275,o),
(527,306,cs),
(550,322,o),
(572,340,o),
(591,361,cs),
(630,401,o),
(654,454,o),
(654,522,cs),
(654,590,o),
(631,643,o),
(584,680,cs),
(538,717,o),
(470,737,o),
(386,737,cs),
(302,737,o),
(227,711,o),
(173,666,cs),
(118,621,o),
(82,556,o),
(77,480,c),
(312,480,l),
(309,520,o),
(337,541,o),
(369,541,cs),
(385,541,o),
(396,539,o),
(402,533,cs),
(408,527,o),
(412,518,o),
(412,506,cs),
(412,488,o),
(402,473,o),
(383,459,cs),
(345,431,o),
(284,401,o),
(212,362,cs),
(177,342,o),
(142,317,o),
(108,288,cs),
(40,230,o),
(-18,151,o),
(-43,34,cs),
(-51,0,l)
);
}
);
width = 628;
},
{
layerId = "DD839978-B654-4D5F-A0C6-3C33A53FE9CB";
shapes = (
{
closed = 1;
nodes = (
(492,0,l),
(515,82,l),
(132,82,l),
(144,110,o),
(164,135,o),
(191,157,cs),
(247,200,o),
(318,238,o),
(394,278,cs),
(432,297,o),
(467,320,o),
(498,345,cs),
(561,393,o),
(606,453,o),
(606,538,cs),
(606,599,o),
(583,647,o),
(544,682,cs),
(505,718,o),
(448,737,o),
(382,737,cs),
(306,737,o),
(243,717,o),
(194,677,cs),
(146,638,o),
(113,582,o),
(100,511,c),
(197,511,l),
(216,607,o),
(279,657,o),
(377,657,cs),
(418,657,o),
(451,644,o),
(473,623,cs),
(495,602,o),
(509,570,o),
(509,534,cs),
(509,499,o),
(497,469,o),
(476,444,cs),
(432,392,o),
(362,351,o),
(281,309,cs),
(240,288,o),
(201,266,o),
(164,242,cs),
(89,192,o),
(24,130,o),
(3,44,cs),
(-7,0,l)
);
}
);
width = 588;
},
{
layerId = "3FCCCC1A-F738-479A-AD82-BA541789BD82";
shapes = (
{
closed = 1;
nodes = (
(473,0,l),
(483,34,l),
(60,34,l),
(69,70,o),
(87,101,o),
(116,127,cs),
(174,180,o),
(256,223,o),
(342,267,cs),
(385,288,o),
(425,312,o),
(461,339,cs),
(534,390,o),
(586,453,o),
(586,545,cs),
(586,602,o),
(565,650,o),
(529,684,cs),
(491,717,o),
(441,737,o),
(380,737,cs),
(308,737,o),
(248,718,o),
(203,681,cs),
(158,645,o),
(125,593,o),
(109,523,c),
(151,523,l),
(180,641,o),
(256,703,o),
(380,703,cs),
(430,703,o),
(472,687,o),
(502,659,c),
(530,631,o),
(547,590,o),
(547,545,cs),
(547,504,o),
(536,468,o),
(513,439,c),
(467,378,o),
(393,331,o),
(308,289,cs),
(265,268,o),
(224,247,o),
(186,223,cs),
(108,177,o),
(41,122,o),
(20,49,c),
(9,0,l)
);
}
);
width = 572;
}
);
},
{
glyphname = three.lf;
layers = (
{
layerId = "0A0AAF82-7A3B-4E69-84DB-BE8E4A819DF7";
shapes = (
{
closed = 1;
nodes = (
(374,-9,o),
(457,13,o),
(518,54,cs),
(577,94,o),
(613,153,o),
(613,222,cs),
(613,260,o),
(600,293,o),
(583,318,cs),
(566,344,o),
(544,360,o),
(524,367,c),
(526,375,l),
(575,395,o),
(611,423,o),
(634,453,cs),
(657,483,o),
(667,517,o),
(667,552,cs),
(667,608,o),
(642,654,o),
(599,687,cs),
(555,719,o),
(494,736,o),
(425,736,cs),
(336,736,o),
(254,715,o),
(193,675,cs),
(131,635,o),
(91,576,o),
(79,503,c),
(318,503,l),
(324,523,o),
(343,538,o),
(374,538,cs),
(389,538,o),
(398,535,o),
(405,530,cs),
(413,525,o),
(416,518,o),
(416,507,cs),
(416,490,o),
(407,476,o),
(394,467,cs),
(381,458,o),
(361,453,o),
(338,453,cs),
(266,453,l),
(216,282,l),
(303,282,ls),
(316,282,o),
(331,282,o),
(344,276,cs),
(356,270,o),
(364,258,o),
(364,238,cs),
(364,218,o),
(356,207,o),
(344,199,cs),
(332,191,o),
(316,188,o),
(297,188,cs),
(284,188,o),
(271,192,o),
(260,198,cs),
(249,204,o),
(241,213,o),
(238,231,c),
(-3,231,l),
(-6,159,o),
(20,100,o),
(69,58,cs),
(116,15,o),
(187,-9,o),
(277,-9,cs)
);
}
);
width = 635;
},
{
layerId = "DD839978-B654-4D5F-A0C6-3C33A53FE9CB";
shapes = (
{
closed = 1;
nodes = (
(337,-11,o),
(407,12,o),
(459,53,cs),
(511,93,o),
(541,150,o),
(541,218,cs),
(541,255,o),
(529,287,o),
(510,314,cs),
(490,342,o),
(466,360,o),
(442,368,c),
(444,373,l),
(497,385,o),
(541,411,o),
(570,444,cs),
(600,476,o),
(615,518,o),
(615,563,cs),
(615,615,o),
(595,659,o),
(556,690,cs),
(518,720,o),
(464,737,o),
(396,737,cs),
(323,737,o),
(259,721,o),
(208,686,cs),
(158,650,o),
(121,599,o),
(105,527,c),
(199,527,l),
(222,605,o),
(279,656,o),
(381,656,cs),
(423,656,o),
(456,646,o),
(480,627,c),
(504,607,o),
(516,579,o),
(516,546,cs),
(516,503,o),
(497,469,o),
(466,446,cs),
(435,423,o),
(392,411,o),
(341,411,cs),
(257,411,l),
(237,338,l),
(306,338,ls),
(350,338,o),
(383,328,o),
(406,308,cs),
(430,288,o),
(443,260,o),
(443,223,cs),
(443,178,o),
(427,140,o),
(395,112,cs),
(364,85,o),
(320,70,o),
(263,70,cs),
(217,70,o),
(178,82,o),
(152,106,cs),
(125,129,o),
(111,164,o),
(115,207,c),
(21,207,l),
(17,144,o),
(37,89,o),
(78,51,cs),
(117,12,o),
(177,-11,o),
(255,-11,cs)
);
}
);
width = 593;
},
{
layerId = "3FCCCC1A-F738-479A-AD82-BA541789BD82";
shapes = (
{
closed = 1;
nodes = (
(323,-11,o),
(388,11,o),
(437,52,cs),
(484,92,o),
(514,149,o),
(514,217,cs),
(514,253,o),
(500,285,o),
(481,312,cs),
(461,340,o),
(436,360,o),
(411,368,c),
(412,372,l),
(468,381,o),
(513,406,o),
(545,440,cs),
(576,473,o),
(595,518,o),
(595,567,cs),
(595,617,o),
(574,660,o),
(539,691,cs),
(503,721,o),
(450,737,o),
(385,737,cs),
(317,737,o),
(259,722,o),
(213,690,cs),
(168,656,o),
(132,607,o),
(115,537,c),
(152,537,l),
(183,637,o),
(255,703,o),
(384,703,cs),
(437,703,o),
(480,690,o),
(510,665,cs),
(539,640,o),
(555,606,o),
(555,561,cs),
(555,509,o),
(532,466,o),
(495,438,cs),
(458,408,o),
(403,393,o),
(342,393,cs),
(253,393,l),
(245,360,l),
(308,360,ls),
(362,360,o),
(403,345,o),
(432,321,c),
(459,295,o),
(474,260,o),
(474,218,cs),
(474,162,o),
(453,113,o),
(416,79,cs),
(378,44,o),
(322,23,o),
(250,23,cs),
(190,23,o),
(141,39,o),
(108,70,cs),
(76,100,o),
(62,144,o),
(67,199,c),
(31,199,l),
(26,138,o),
(44,84,o),
(81,48,cs),
(117,11,o),
(173,-11,o),
(247,-11,cs)
);
}
);
width = 577;
}
);
},
{
glyphname = four.lf;
layers = (
{
layerId = "0A0AAF82-7A3B-4E69-84DB-BE8E4A819DF7";
shapes = (
{
closed = 1;
nodes = (
(508,0,l),
(711,729,l),
(416,729,l),
(20,312,l),
(-26,140,l),
(646,140,l),
(701,334,l),
(270,334,l),
(398,474,l),
(398,474,l),
(264,0,l)
);
}
);
width = 692;
},
{
layerId = "DD839978-B654-4D5F-A0C6-3C33A53FE9CB";
shapes = (
{
closed = 1;
nodes = (
(417,0,l),
(619,729,l),
(507,729,l),
(21,256,l),
(1,182,l),
(597,182,l),
(619,261,l),
(124,261,l),
(491,612,l),
(492,612,l),
(322,0,l)
);
}
);
width = 637;
},
{
layerId = "3FCCCC1A-F738-479A-AD82-BA541789BD82";
shapes = (
{
closed = 1;
nodes = (
(381,0,l),
(582,729,l),
(543,729,l),
(21,234,l),
(12,198,l),
(577,198,l),
(586,232,l),
(67,232,l),
(529,666,l),
(529,666,l),
(345,0,l)
);
}
);
width = 615;
}
);
},
{
glyphname = five.lf;
layers = (
{
layerId = "0A0AAF82-7A3B-4E69-84DB-BE8E4A819DF7";
shapes = (
{
closed = 1;
nodes = (
(386,-9,o),
(471,20,o),
(532,70,cs),
(593,118,o),
(627,189,o),
(627,275,cs),
(627,333,o),
(607,384,o),
(571,421,cs),
(536,457,o),
(484,477,o),
(423,477,cs),
(397,477,o),
(360,480,o),
(325,465,c),
(317,468,l),
(344,524,l),
(646,524,l),
(703,729,l),
(178,729,l),
(25,257,l),
(259,257,l),
(263,280,o),
(289,299,o),
(327,299,cs),
(343,299,o),
(357,295,o),
(366,287,cs),
(375,278,o),
(380,267,o),
(380,255,cs),
(380,235,o),
(375,218,o),
(363,207,cs),
(351,195,o),
(333,189,o),
(311,189,cs),
(298,189,o),
(286,191,o),
(278,196,cs),
(270,200,o),
(262,208,o),
(258,216,c),
(8,216,l),
(9,148,o),
(35,91,o),
(85,52,cs),
(133,12,o),
(202,-9,o),
(286,-9,cs)
);
}
);
width = 641;
},
{
layerId = "DD839978-B654-4D5F-A0C6-3C33A53FE9CB";
shapes = (
{
closed = 1;
nodes = (
(358,-11,o),
(432,17,o),
(484,65,cs),
(537,112,o),
(567,179,o),
(567,259,cs),
(567,323,o),
(547,374,o),
(511,411,cs),
(474,447,o),
(424,467,o),
(360,467,cs),
(303,467,o),
(239,452,o),
(198,420,c),
(193,421,l),
(269,646,l),
(640,646,l),
(662,729,l),
(204,729,l),
(76,328,l),
(171,328,l),
(204,368,o),
(267,393,o),
(328,393,cs),
(369,393,o),
(405,380,o),
(431,356,cs),
(455,332,o),
(469,296,o),
(469,253,cs),
(469,201,o),
(452,156,o),
(420,123,cs),
(386,90,o),
(338,70,o),
(278,70,cs),
(233,70,o),
(195,83,o),
(169,107,cs),
(143,130,o),
(126,164,o),
(125,203,c),
(29,203,l),
(29,139,o),
(54,85,o),
(95,49,cs),
(136,11,o),
(197,-11,o),
(269,-11,cs)
);
}
);
width = 606;
},
{
layerId = "3FCCCC1A-F738-479A-AD82-BA541789BD82";
shapes = (
{
closed = 1;
nodes = (
(347,-11,o),
(416,17,o),
(466,64,cs),
(517,110,o),
(544,176,o),
(544,254,cs),
(544,317,o),
(524,370,o),
(487,406,cs),
(450,443,o),
(399,464,o),
(335,464,cs),
(266,464,o),
(192,442,o),
(148,401,c),
(144,401,l),
(240,695,l),
(637,695,l),
(646,729,l),
(214,729,l),
(95,355,l),
(136,355,l),
(182,403,o),
(259,431,o),
(328,431,cs),
(380,431,o),
(424,415,o),
(455,384,cs),
(486,354,o),
(504,308,o),
(504,253,cs),
(504,189,o),
(482,131,o),
(442,90,cs),
(400,49,o),
(341,23,o),
(265,23,cs),
(205,23,o),
(158,41,o),
(125,72,cs),
(92,102,o),
(73,147,o),
(74,198,c),
(37,198,l),
(37,136,o),
(60,83,o),
(99,47,cs),
(139,10,o),
(195,-11,o),
(263,-11,cs)
);
}
);
width = 592;
}
);
},
{
glyphname = six.lf;
layers = (
{
layerId = "0A0AAF82-7A3B-4E69-84DB-BE8E4A819DF7";
shapes = (
{
closed = 1;
nodes = (
(426,-10,o),
(506,17,o),
(564,66,cs),
(623,113,o),
(656,183,o),
(656,268,cs),
(656,334,o),
(632,387,o),
(591,425,cs),
(550,461,o),
(493,481,o),
(428,481,cs),
(390,481,o),
(333,474,o),
(301,452,c),
(293,456,l),
(302,484,o),
(316,506,o),
(336,520,cs),
(355,534,o),
(379,540,o),
(407,540,cs),
(427,540,o),
(443,536,o),
(455,532,cs),
(467,527,o),
(476,520,o),
(477,509,c),
(715,509,l),
(712,578,o),
(680,634,o),
(630,674,cs),
(579,714,o),
(510,736,o),
(432,736,cs),
(299,736,o),
(199,684,o),
(134,600,cs),
(69,516,o),
(37,400,o),
(38,274,c),
(41,198,o),
(64,127,o),
(113,76,cs),
(162,23,o),
(235,-10,o),
(336,-10,cs)
);
},
{
closed = 1;
nodes = (
(313,188,o),
(299,194,o),
(289,203,cs),
(279,212,o),
(273,223,o),
(273,240,cs),
(273,260,o),
(278,279,o),
(290,292,cs),
(302,305,o),
(322,314,o),
(350,314,cs),
(369,314,o),
(385,308,o),
(395,300,cs),
(405,291,o),
(412,277,o),
(412,261,cs),
(412,237,o),
(403,217,o),
(390,206,cs),
(377,194,o),
(356,188,o),
(331,188,cs)
);
}
);
width = 671;
},
{
layerId = "DD839978-B654-4D5F-A0C6-3C33A53FE9CB";
shapes = (
{
closed = 1;
nodes = (
(405,-11,o),
(476,17,o),
(526,66,cs),
(574,113,o),
(604,179,o),
(604,256,cs),
(604,321,o),
(580,373,o),
(541,409,cs),
(500,446,o),
(447,466,o),
(383,466,cs),
(298,466,o),
(211,434,o),
(180,384,c),
(175,385,l),
(176,452,o),
(207,527,o),
(253,578,cs),
(298,630,o),
(360,656,o),
(429,656,cs),
(472,656,o),
(508,645,o),
(534,626,cs),
(560,606,o),
(576,576,o),
(580,543,c),
(674,543,l),
(669,603,o),
(642,650,o),
(601,685,cs),
(559,719,o),
(502,737,o),
(436,737,cs),
(328,737,o),
(240,691,o),
(176,613,cs),
(112,535,o),
(75,424,o),
(70,294,cs),
(65,198,o),
(84,122,o),
(126,71,cs),
(169,18,o),
(235,-11,o),
(324,-11,cs)
);
},
{
closed = 1;
nodes = (
(272,70,o),
(235,85,o),
(208,110,cs),
(182,135,o),
(167,174,o),
(167,219,cs),
(167,272,o),
(187,316,o),
(220,347,cs),
(254,377,o),
(301,395,o),
(357,395,cs),
(401,395,o),
(439,381,o),
(465,357,cs),
(491,333,o),
(507,296,o),
(507,253,cs),
(507,197,o),
(486,152,o),
(454,120,cs),
(421,88,o),
(373,70,o),
(317,70,cs)
);
}
);
width = 645;
},
{
layerId = "3FCCCC1A-F738-479A-AD82-BA541789BD82";
shapes = (
{
closed = 1;
nodes = (
(398,-11,o),
(465,18,o),
(511,66,cs),
(556,113,o),
(583,178,o),
(583,251,cs),
(583,315,o),
(560,367,o),
(521,403,cs),
(481,440,o),
(427,460,o),
(366,460,cs),
(258,460,o),
(165,415,o),
(117,315,c),
(113,315,l),
(125,440,o),
(164,536,o),
(220,602,cs),
(277,667,o),
(352,703,o),
(438,703,cs),
(489,703,o),
(532,690,o),
(564,663,cs),
(596,637,o),
(616,601,o),
(621,556,c),
(659,556,l),
(651,612,o),
(627,656,o),
(589,689,cs),
(552,720,o),
(499,737,o),
(438,737,cs),
(340,737,o),
(254,695,o),
(193,619,cs),
(131,542,o),
(91,433,o),
(83,302,c),
(74,200,o),
(91,120,o),
(131,69,cs),
(171,16,o),
(235,-11,o),
(318,-11,cs)
);
},
{
closed = 1;
nodes = (
(256,23,o),
(209,41,o),
(177,74,cs),
(144,106,o),
(125,154,o),
(125,211,cs),
(125,276,o),
(151,331,o),
(193,368,cs),
(236,405,o),
(293,427,o),
(359,427,cs),
(415,427,o),
(460,411,o),
(492,379,cs),
(525,348,o),
(544,304,o),
(544,249,cs),
(544,183,o),
(520,125,o),
(479,86,cs),
(438,47,o),
(380,23,o),
(311,23,cs)
);
}
);
width = 635;
}
);
leftKerningGroup = six.lf;
},
{
glyphname = seven.lf;
layers = (
{
layerId = "0A0AAF82-7A3B-4E69-84DB-BE8E4A819DF7";
shapes = (
{
closed = 1;
nodes = (
(350,0,l),
(394,128,o),
(449,233,o),
(511,322,cs),
(571,409,o),
(640,485,o),
(709,555,c),
(757,729,l),
(145,729,l),
(87,521,l),
(275,521,l),
(275,521,l),
(436,521,l),
(374,465,o),
(308,387,o),
(249,298,cs),
(189,208,o),
(136,106,o),
(99,0,c)
);
}
);
width = 637;
},
{
layerId = "DD839978-B654-4D5F-A0C6-3C33A53FE9CB";
shapes = (
{
closed = 1;
nodes = (
(225,0,l),
(274,112,o),
(331,221,o),
(401,331,cs),
(472,439,o),
(556,547,o),
(660,653,c),
(682,729,l),
(163,729,l),
(140,646,l),
(216,646,l),
(216,646,l),
(555,646,l),
(470,562,o),
(389,466,o),
(316,358,cs),
(243,250,o),
(179,129,o),
(123,0,c)
);
}
);
width = 571;
},
{
layerId = "3FCCCC1A-F738-479A-AD82-BA541789BD82";
shapes = (
{
closed = 1;
nodes = (
(177,0,l),
(225,105,o),
(284,217,o),
(358,335,cs),
(432,451,o),
(524,571,o),
(642,692,c),
(652,729,l),
(171,729,l),
(161,696,l),
(193,696,l),
(193,696,l),
(603,696,l),
(509,602,o),
(421,497,o),
(343,382,cs),
(265,267,o),
(194,139,o),
(133,0,c)
);
}
);
width = 545;
}
);
},
{
glyphname = eight.lf;
layers = (
{
layerId = "0A0AAF82-7A3B-4E69-84DB-BE8E4A819DF7";
shapes = (
{
closed = 1;
nodes = (
(402,-10,o),
(483,10,o),
(540,47,cs),
(596,83,o),
(626,136,o),
(627,202,cs),
(628,239,o),
(617,270,o),
(598,296,cs),
(578,323,o),
(553,344,o),
(525,352,c),
(527,360,l),
(574,372,o),
(615,394,o),
(643,425,cs),
(670,455,o),
(687,493,o),
(687,539,cs),
(687,596,o),
(661,644,o),
(613,680,cs),
(564,716,o),
(492,737,o),
(402,737,cs),
(318,737,o),
(243,716,o),
(187,679,cs),
(131,642,o),
(99,588,o),
(99,519,cs),
(99,491,o),
(107,462,o),
(120,441,cs),
(133,420,o),
(152,402,o),
(172,391,c),
(170,381,l),
(121,373,o),
(79,350,o),
(48,316,cs),
(15,283,o),
(-3,240,o),
(-3,188,cs),
(-3,120,o),
(29,71,o),
(84,38,cs),
(139,6,o),
(213,-10,o),
(301,-10,cs)
);
},
{
closed = 1;
nodes = (
(288,188,o),
(274,193,o),
(263,201,cs),
(252,209,o),
(247,221,o),
(247,235,cs),
(247,251,o),
(253,265,o),
(265,275,cs),
(276,285,o),
(295,290,o),
(321,290,cs),
(340,290,o),
(354,284,o),
(365,275,cs),
(376,266,o),
(382,254,o),
(382,239,cs),
(382,225,o),
(376,212,o),
(364,203,cs),
(352,194,o),
(334,188,o),
(308,188,cs)
);
},
{
closed = 1;
nodes = (
(368,457,o),
(354,462,o),
(345,470,cs),
(336,478,o),
(330,488,o),
(330,500,cs),
(330,529,o),
(354,546,o),
(398,546,cs),
(414,546,o),
(427,541,o),
(436,534,cs),
(445,527,o),
(450,517,o),
(450,506,cs),
(450,489,o),
(444,477,o),
(433,470,cs),
(422,462,o),
(405,457,o),
(385,457,cs)
);
}
);
width = 656;
},
{
layerId = "DD839978-B654-4D5F-A0C6-3C33A53FE9CB";
shapes = (
{
closed = 1;
nodes = (
(365,-9,o),
(437,12,o),
(488,50,cs),
(540,87,o),
(569,142,o),
(569,210,cs),
(569,247,o),
(556,280,o),
(535,307,cs),
(514,335,o),
(484,353,o),
(449,361,c),
(450,365,l),
(508,372,o),
(556,393,o),
(590,427,cs),
(625,460,o),
(644,505,o),
(644,558,cs),
(644,612,o),
(620,659,o),
(577,690,cs),
(535,720,o),
(474,737,o),
(402,737,cs),
(325,737,o),
(257,715,o),
(209,677,cs),
(161,640,o),
(133,586,o),
(133,522,cs),
(133,489,o),
(145,460,o),
(163,437,cs),
(181,413,o),
(205,394,o),
(237,385,c),
(236,380,l),
(176,376,o),
(123,352,o),
(84,315,cs),
(44,279,o),
(20,229,o),
(20,171,cs),
(20,115,o),
(44,71,o),
(89,39,cs),
(133,8,o),
(197,-9,o),
(277,-9,cs)
);
},
{
closed = 1;
nodes = (
(236,71,o),
(194,82,o),
(166,102,c),
(136,121,o),
(119,152,o),
(119,188,cs),
(119,234,o),
(139,272,o),
(171,297,cs),
(203,323,o),
(249,338,o),
(304,338,cs),
(356,338,o),
(397,329,o),
(426,309,cs),
(454,289,o),
(470,261,o),
(470,221,cs),
(470,174,o),
(452,136,o),
(420,111,cs),
(387,86,o),
(342,71,o),
(285,71,cs)
);
},
{
closed = 1;
nodes = (
(338,409,o),
(300,419,o),
(273,436,cs),
(245,453,o),
(226,479,o),
(226,516,cs),
(226,606,o),
(291,659,o),
(399,659,cs),
(440,659,o),
(477,650,o),
(506,631,cs),
(533,612,o),
(550,584,o),
(550,545,cs),
(550,502,o),
(532,468,o),
(500,445,cs),
(469,422,o),
(427,409,o),
(377,409,cs)
);
}
);
width = 624;
},
{
layerId = "3FCCCC1A-F738-479A-AD82-BA541789BD82";
shapes = (
{
closed = 1;
nodes = (
(349,-9,o),
(419,12,o),
(468,51,cs),
(518,89,o),
(547,145,o),
(547,212,cs),
(547,252,o),
(533,286,o),
(511,312,cs),
(488,339,o),
(456,356,o),
(420,364,c),
(420,367,l),
(481,371,o),
(533,393,o),
(570,428,cs),
(607,462,o),
(628,509,o),
(628,565,cs),
(628,619,o),
(603,663,o),
(562,693,cs),
(522,722,o),
(465,737,o),
(403,737,cs),
(326,737,o),
(262,715,o),
(217,677,cs),
(172,640,o),
(148,584,o),
(148,523,cs),
(148,489,o),
(159,459,o),
(179,435,c),
(198,409,o),
(226,391,o),
(262,382,c),
(262,379,l),
(198,376,o),
(140,353,o),
(99,315,cs),
(58,278,o),
(30,225,o),
(30,164,cs),
(30,114,o),
(51,71,o),
(91,40,cs),
(131,10,o),
(191,-9,o),
(268,-9,cs)
);
},
{
closed = 1;
nodes = (
(214,25,o),
(163,38,o),
(126,63,cs),
(90,87,o),
(70,124,o),
(70,170,cs),
(70,227,o),
(94,275,o),
(134,307,cs),
(175,339,o),
(233,357,o),
(298,357,cs),
(363,357,o),
(415,345,o),
(450,322,cs),
(485,298,o),
(505,263,o),
(505,215,cs),
(505,155,o),
(482,107,o),
(443,75,cs),
(402,42,o),
(345,25,o),
(275,25,cs)
);
},
{
closed = 1;
nodes = (
(326,390,o),
(280,400,o),
(245,422,cs),
(209,443,o),
(186,476,o),
(186,522,cs),
(186,636,o),
(267,704,o),
(400,704,cs),
(450,704,o),
(497,693,o),
(533,669,cs),
(568,645,o),
(589,610,o),
(589,561,cs),
(589,508,o),
(566,464,o),
(528,436,cs),
(489,406,o),
(435,390,o),
(373,390,cs)
);
}
);
width = 611;
}
);
},
{
glyphname = nine.lf;
layers = (
{
layerId = "0A0AAF82-7A3B-4E69-84DB-BE8E4A819DF7";
shapes = (
{
closed = 1;
nodes = (
(298,736,o),
(219,709,o),
(162,661,cs),
(104,613,o),
(69,543,o),
(69,458,cs),
(69,392,o),
(93,339,o),
(134,302,cs),
(175,265,o),
(232,245,o),
(297,245,cs),
(336,245,o),
(391,252,o),
(424,274,c),
(433,270,l),
(424,242,o),
(409,221,o),
(390,207,cs),
(371,193,o),
(346,186,o),
(317,186,cs),
(298,186,o),
(283,190,o),
(271,195,cs),
(259,199,o),
(251,206,o),
(248,217,c),
(10,217,l),
(14,148,o),
(45,92,o),
(96,53,cs),
(147,12,o),
(215,-10,o),
(293,-10,cs),
(427,-10,o),
(526,42,o),
(591,126,cs),
(656,210,o),
(690,327,o),
(687,452,cs),
(684,528,o),
(661,599,o),
(613,651,cs),
(564,703,o),
(491,736,o),
(390,736,cs)
);
},
{
closed = 1;
nodes = (
(412,538,o),
(427,533,o),
(437,524,cs),
(447,515,o),
(452,503,o),
(452,486,cs),
(452,466,o),
(447,447,o),
(435,434,cs),
(423,421,o),
(403,412,o),
(375,412,cs),
(356,412,o),
(342,418,o),
(331,427,cs),
(320,435,o),
(313,449,o),
(313,465,cs),
(313,489,o),
(323,509,o),
(336,521,cs),
(349,532,o),
(370,538,o),
(394,538,cs)
);
}
);
width = 671;
},
{
layerId = "DD839978-B654-4D5F-A0C6-3C33A53FE9CB";
shapes = (
{
closed = 1;
nodes = (
(299,737,o),
(230,709,o),
(181,661,cs),
(131,613,o),
(102,547,o),
(102,470,cs),
(102,405,o),
(125,353,o),
(166,316,cs),
(205,280,o),
(261,260,o),
(323,260,cs),
(406,260,o),
(496,295,o),
(526,342,c),
(532,342,l),
(530,275,o),
(498,199,o),
(453,148,cs),
(407,96,o),
(347,70,o),
(277,70,cs),
(236,70,o),
(198,81,o),
(173,101,cs),
(148,120,o),
(130,150,o),
(125,183,c),
(31,183,l),
(36,123,o),
(64,77,o),
(105,42,cs),
(147,8,o),
(204,-11,o),
(270,-11,cs),
(378,-11,o),
(466,35,o),
(530,113,cs),
(594,191,o),
(631,302,o),
(636,432,cs),
(641,528,o),
(623,604,o),
(580,656,cs),
(538,708,o),
(471,737,o),
(383,737,cs)
);
},
{
closed = 1;
nodes = (
(434,656,o),
(472,641,o),
(498,616,cs),
(525,590,o),
(539,552,o),
(539,507,cs),
(539,454,o),
(520,411,o),
(486,380,cs),
(453,350,o),
(405,331,o),
(350,331,cs),
(304,331,o),
(268,345,o),
(242,369,cs),
(215,393,o),
(200,430,o),
(200,473,cs),
(200,529,o),
(219,574,o),
(253,607,cs),
(285,638,o),
(333,656,o),
(389,656,cs)
);
}
);
width = 645;
},
{
layerId = "3FCCCC1A-F738-479A-AD82-BA541789BD82";
shapes = (
{
closed = 1;
nodes = (
(300,737,o),
(234,709,o),
(188,661,cs),
(143,613,o),
(115,548,o),
(115,475,cs),
(115,412,o),
(139,359,o),
(178,323,cs),
(217,286,o),
(271,266,o),
(333,266,cs),
(438,266,o),
(534,312,o),
(580,411,c),
(584,411,l),
(572,286,o),
(535,190,o),
(478,124,cs),
(422,59,o),
(347,23,o),
(261,23,cs),
(209,23,o),
(167,38,o),
(134,64,cs),
(102,89,o),
(83,125,o),
(78,170,c),
(39,170,l),
(47,114,o),
(71,70,o),
(109,38,cs),
(148,6,o),
(199,-11,o),
(261,-11,cs),
(359,-11,o),
(444,31,o),
(506,108,cs),
(567,184,o),
(608,293,o),
(616,424,cs),
(624,528,o),
(608,606,o),
(568,658,cs),
(528,711,o),
(464,737,o),
(380,737,cs)
);
},
{
closed = 1;
nodes = (
(443,703,o),
(489,685,o),
(523,652,cs),
(555,620,o),
(573,572,o),
(573,515,cs),
(573,450,o),
(549,395,o),
(507,359,cs),
(464,322,o),
(404,299,o),
(340,299,cs),
(284,299,o),
(239,317,o),
(206,348,cs),
(174,378,o),
(155,422,o),
(155,477,cs),
(155,545,o),
(179,601,o),
(220,640,cs),
(261,679,o),
(318,703,o),
(386,703,cs)
);
}
);
width = 635;
}
);
},
{
glyphname = less;
layers = (
{
layerId = "0A0AAF82-7A3B-4E69-84DB-BE8E4A819DF7";
shapes = (
{
closed = 1;
nodes = (
(108,495,l),
(35,230,l),
(509,57,l),
(575,295,l),
(305,354,l),
(310,372,l),
(611,428,l),
(678,664,l)
);
}
);
width = 636;
},
{
layerId = "DD839978-B654-4D5F-A0C6-3C33A53FE9CB";
shapes = (
{
closed = 1;
nodes = (
(106,416,l),
(76,309,l),
(520,108,l),
(545,199,l),
(181,357,l),
(184,364,l),
(634,519,l),
(660,614,l)
);
}
);
width = 636;
},
{
layerId = "3FCCCC1A-F738-479A-AD82-BA541789BD82";
shapes = (
{
closed = 1;
nodes = (
(105,385,l),
(92,340,l),
(524,128,l),
(534,162,l),
(132,357,l),
(134,361,l),
(643,554,l),
(653,594,l)
);
}
);
width = 636;
}
);
unicode = 60;
},
{
glyphname = equal;
layers = (
{
layerId = "0A0AAF82-7A3B-4E69-84DB-BE8E4A819DF7";
shapes = (
{
closed = 1;
nodes = (
(588,395,l),
(642,583,l),
(167,583,l),
(114,395,l)
);
},
{
closed = 1;
nodes = (
(517,138,l),
(569,326,l),
(95,326,l),
(42,138,l)
);
}
);
width = 636;
},
{
layerId = "DD839978-B654-4D5F-A0C6-3C33A53FE9CB";
shapes = (
{
closed = 1;
nodes = (
(604,440,l),
(625,516,l),
(149,516,l),
(128,440,l)
);
},
{
closed = 1;
nodes = (
(539,206,l),
(561,282,l),
(85,282,l),
(63,206,l)
);
}
);
width = 636;
},
{
layerId = "3FCCCC1A-F738-479A-AD82-BA541789BD82";
shapes = (
{
closed = 1;
nodes = (
(610,458,l),
(618,490,l),
(142,490,l),
(134,458,l)
);
},
{
closed = 1;
nodes = (
(548,233,l),
(558,265,l),
(81,265,l),
(71,233,l)
);
}
);
width = 636;
}
);
unicode = 61;
},
{
glyphname = greater;
layers = (
{
layerId = "0A0AAF82-7A3B-4E69-84DB-BE8E4A819DF7";
shapes = (
{
closed = 1;
nodes = (
(575,226,l),
(648,491,l),
(175,664,l),
(108,426,l),
(378,367,l),
(373,349,l),
(72,293,l),
(5,57,l)
);
}
);
width = 636;
},
{
layerId = "DD839978-B654-4D5F-A0C6-3C33A53FE9CB";
shapes = (
{
closed = 1;
nodes = (
(583,306,l),
(614,413,l),
(170,614,l),
(144,522,l),
(509,365,l),
(506,357,l),
(55,203,l),
(29,108,l)
);
}
);
width = 636;
},
{
layerId = "3FCCCC1A-F738-479A-AD82-BA541789BD82";
shapes = (
{
closed = 1;
nodes = (
(587,337,l),
(600,382,l),
(168,594,l),
(158,560,l),
(560,365,l),
(558,361,l),
(49,168,l),
(39,128,l)
);
}
);
width = 636;
}
);
unicode = 62;
},
{
glyphname = question;
layers = (
{
layerId = "0A0AAF82-7A3B-4E69-84DB-BE8E4A819DF7";
shapes = (
{
closed = 1;
nodes = (
(402,236,l),
(402,239,l),
(405,250,o),
(413,260,o),
(426,271,cs),
(452,291,o),
(489,313,o),
(530,340,cs),
(550,353,o),
(569,369,o),
(587,387,cs),
(623,422,o),
(649,466,o),
(652,526,cs),
(656,614,o),
(620,667,o),
(568,698,cs),
(516,729,o),
(448,738,o),
(389,738,cs),
(305,738,o),
(232,716,o),
(177,674,cs),
(122,632,o),
(87,571,o),
(72,492,c),
(301,492,l),
(310,527,o),
(329,542,o),
(365,542,cs),
(373,542,o),
(383,539,o),
(391,535,cs),
(399,530,o),
(403,522,o),
(403,507,c),
(402,493,o),
(398,481,o),
(389,470,cs),
(371,449,o),
(343,432,o),
(311,413,cs),
(294,403,o),
(279,392,o),
(264,380,cs),
(235,355,o),
(209,322,o),
(198,274,cs),
(190,236,l)
);
},
{
closed = 1;
nodes = (
(332,-9,o),
(387,34,o),
(387,107,cs),
(387,163,o),
(345,200,o),
(274,200,cs),
(190,200,o),
(135,157,o),
(135,82,cs),
(135,27,o),
(179,-9,o),
(248,-9,cs)
);
}
);
width = 599;
},
{
layerId = "DD839978-B654-4D5F-A0C6-3C33A53FE9CB";
shapes = (
{
closed = 1;
nodes = (
(290,186,l),
(295,200,ls),
(302,221,o),
(313,239,o),
(329,255,cs),
(361,287,o),
(402,316,o),
(446,347,cs),
(468,362,o),
(488,379,o),
(507,398,cs),
(543,435,o),
(571,482,o),
(574,549,c),
(578,613,o),
(555,659,o),
(516,691,cs),
(477,722,o),
(423,737,o),
(363,737,cs),
(300,737,o),
(244,721,o),
(200,688,cs),
(155,655,o),
(122,605,o),
(106,536,c),
(196,536,l),
(217,612,o),
(265,658,o),
(352,658,cs),
(388,658,o),
(420,649,o),
(443,630,cs),
(466,610,o),
(477,581,o),
(476,544,cs),
(475,517,o),
(468,493,o),
(457,474,cs),
(433,434,o),
(397,404,o),
(356,377,cs),
(335,364,o),
(316,349,o),
(297,334,cs),
(259,302,o),
(225,265,o),
(212,210,c),
(207,186,l)
);
},
{
closed = 1;
nodes = (
(247,-8,o),
(272,12,o),
(272,47,cs),
(272,75,o),
(252,93,o),
(220,93,cs),
(183,93,o),
(158,73,o),
(158,38,cs),
(158,10,o),
(178,-8,o),
(210,-8,cs)
);
}
);
width = 537;
},
{
layerId = "3FCCCC1A-F738-479A-AD82-BA541789BD82";
shapes = (
{
closed = 1;
nodes = (
(247,167,l),
(253,185,ls),
(262,210,o),
(274,231,o),
(291,250,cs),
(324,286,o),
(368,318,o),
(413,350,cs),
(436,366,o),
(456,384,o),
(475,403,cs),
(512,442,o),
(540,490,o),
(544,558,cs),
(547,611,o),
(528,656,o),
(495,688,cs),
(462,719,o),
(413,736,o),
(353,736,cs),
(300,736,o),
(249,723,o),
(209,694,cs),
(168,665,o),
(136,619,o),
(119,554,c),
(155,554,l),
(182,645,o),
(240,704,o),
(347,704,cs),
(395,704,o),
(435,691,o),
(463,667,cs),
(491,642,o),
(508,606,o),
(505,558,c),
(504,526,o),
(497,498,o),
(484,475,cs),
(459,428,o),
(419,394,o),
(375,364,cs),
(352,349,o),
(331,333,o),
(310,316,cs),
(268,282,o),
(233,242,o),
(217,185,c),
(213,167,l)
);
},
{
closed = 1;
nodes = (
(214,-7,o),
(227,4,o),
(227,23,cs),
(227,40,o),
(215,51,o),
(198,51,cs),
(179,51,o),
(167,40,o),
(167,21,cs),
(167,4,o),
(178,-7,o),
(195,-7,cs)
);
}
);
width = 513;
}
);
rightKerningGroup = question;
unicode = 63;
},
{
glyphname = at;
layers = (
{
layerId = "0A0AAF82-7A3B-4E69-84DB-BE8E4A819DF7";
shapes = (
{
closed = 1;
nodes = (
(497,-99,o),
(585,-77,o),
(638,-44,c),
(618,57,l),
(567,29,o),
(504,14,o),
(435,14,cs),
(355,14,o),
(288,36,o),
(241,77,cs),
(194,118,o),
(167,180,o),
(167,259,cs),
(167,363,o),
(205,453,o),
(267,517,cs),
(329,581,o),
(413,619,o),
(510,619,cs),
(585,619,o),
(644,598,o),
(687,560,cs),
(730,522,o),
(754,465,o),
(754,392,cs),
(754,344,o),
(743,295,o),
(723,259,cs),
(703,222,o),
(674,198,o),
(639,198,cs),
(612,198,o),
(601,210,o),
(598,230,cs),
(595,249,o),
(602,272,o),
(610,292,c),
(672,489,l),
(592,494,l),
(568,452,l),
(560,453,l),
(548,492,o),
(508,517,o),
(453,517,cs),
(400,517,o),
(348,488,o),
(311,441,cs),
(274,394,o),
(249,330,o),
(249,259,cs),
(249,214,o),
(260,175,o),
(281,151,c),
(301,126,o),
(333,112,o),
(372,112,cs),
(423,112,o),
(465,132,o),
(486,164,c),
(494,163,l),
(499,140,o),
(514,120,o),
(537,106,cs),
(560,92,o),
(589,83,o),
(626,83,cs),
(699,83,o),
(765,118,o),
(811,175,cs),
(857,231,o),
(884,311,o),
(884,403,cs),
(884,503,o),
(849,587,o),
(786,645,cs),
(722,703,o),
(632,735,o),
(520,735,cs),
(383,735,o),
(261,685,o),
(174,600,cs),
(87,515,o),
(33,394,o),
(33,253,cs),
(33,142,o),
(73,54,o),
(138,-7,cs),
(202,-67,o),
(295,-99,o),
(400,-99,cs)
);
},
{
closed = 1;
nodes = (
(403,222,o),
(393,227,o),
(386,237,cs),
(378,247,o),
(375,261,o),
(375,281,cs),
(375,313,o),
(384,343,o),
(400,366,cs),
(415,389,o),
(436,403,o),
(459,403,cs),
(476,403,o),
(488,397,o),
(495,386,cs),
(502,375,o),
(504,362,o),
(505,347,c),
(505,314,o),
(497,283,o),
(481,260,cs),
(465,237,o),
(443,222,o),
(419,222,cs)
);
}
);
width = 883;
},
{
layerId = "DD839978-B654-4D5F-A0C6-3C33A53FE9CB";
shapes = (
{
closed = 1;
nodes = (
(510,-99,o),
(594,-79,o),
(643,-47,c),
(629,1,l),
(584,-27,o),
(515,-44,o),
(438,-44,cs),
(346,-44,o),
(269,-16,o),
(215,35,cs),
(161,86,o),
(129,161,o),
(129,254,cs),
(129,374,o),
(169,479,o),
(240,556,cs),
(311,632,o),
(411,679,o),
(532,679,cs),
(624,679,o),
(699,653,o),
(751,605,cs),
(803,556,o),
(833,488,o),
(833,401,cs),
(833,333,o),
(817,267,o),
(788,219,cs),
(759,171,o),
(718,140,o),
(665,140,cs),
(636,140,o),
(616,152,o),
(608,176,cs),
(599,200,o),
(601,236,o),
(616,281,cs),
(685,492,l),
(639,494,l),
(612,416,l),
(606,417,l),
(601,476,o),
(557,514,o),
(493,514,cs),
(438,514,o),
(388,484,o),
(350,436,cs),
(312,387,o),
(287,322,o),
(287,251,cs),
(287,207,o),
(299,173,o),
(320,150,cs),
(341,127,o),
(371,115,o),
(408,115,cs),
(468,115,o),
(520,146,o),
(551,201,c),
(556,201,l),
(553,168,o),
(562,139,o),
(580,119,cs),
(598,98,o),
(625,87,o),
(660,87,cs),
(725,87,o),
(783,119,o),
(826,175,cs),
(869,231,o),
(894,311,o),
(894,406,cs),
(894,505,o),
(858,588,o),
(796,645,cs),
(734,702,o),
(644,735,o),
(537,735,cs),
(401,735,o),
(283,684,o),
(200,598,cs),
(116,512,o),
(67,391,o),
(67,251,cs),
(67,143,o),
(103,56,o),
(166,-5,cs),
(229,-65,o),
(319,-99,o),
(423,-99,cs)
);
},
{
closed = 1;
nodes = (
(404,166,o),
(383,173,o),
(369,188,cs),
(355,203,o),
(347,226,o),
(347,257,cs),
(347,310,o),
(363,360,o),
(391,399,cs),
(418,438,o),
(456,462,o),
(497,462,cs),
(529,462,o),
(553,447,o),
(566,423,cs),
(578,399,o),
(581,363,o),
(573,323,cs),
(564,276,o),
(545,238,o),
(521,210,cs),
(496,182,o),
(464,166,o),
(429,166,cs)
);
}
);
width = 918;
},
{
layerId = "3FCCCC1A-F738-479A-AD82-BA541789BD82";
shapes = (
{
closed = 1;
nodes = (
(515,-98,o),
(597,-80,o),
(646,-48,c),
(634,-21,l),
(590,-49,o),
(519,-67,o),
(439,-67,cs),
(342,-67,o),
(261,-36,o),
(204,19,cs),
(147,74,o),
(114,152,o),
(114,252,cs),
(114,377,o),
(156,490,o),
(230,571,cs),
(304,652,o),
(410,703,o),
(541,703,cs),
(640,703,o),
(720,674,o),
(776,622,cs),
(832,570,o),
(864,496,o),
(864,405,cs),
(864,329,o),
(846,256,o),
(814,204,cs),
(781,151,o),
(735,117,o),
(676,117,cs),
(645,117,o),
(622,130,o),
(611,155,cs),
(600,180,o),
(602,222,o),
(619,277,c),
(690,493,l),
(658,494,l),
(629,402,l),
(625,402,l),
(622,470,o),
(577,512,o),
(509,512,cs),
(454,512,o),
(403,482,o),
(365,434,cs),
(327,385,o),
(303,319,o),
(303,248,cs),
(303,204,o),
(315,172,o),
(336,150,cs),
(356,128,o),
(386,117,o),
(422,117,cs),
(486,117,o),
(542,151,o),
(577,216,c),
(581,216,l),
(574,179,o),
(580,147,o),
(596,124,cs),
(612,101,o),
(639,88,o),
(674,88,cs),
(735,88,o),
(791,120,o),
(832,176,cs),
(873,231,o),
(897,311,o),
(897,408,cs),
(897,505,o),
(862,588,o),
(800,645,cs),
(738,702,o),
(650,735,o),
(543,735,cs),
(408,735,o),
(292,683,o),
(210,596,cs),
(128,509,o),
(80,389,o),
(80,250,cs),
(80,145,o),
(116,57,o),
(178,-4,cs),
(240,-64,o),
(328,-98,o),
(432,-98,cs)
);
},
{
closed = 1;
nodes = (
(404,144,o),
(379,152,o),
(363,169,cs),
(346,186,o),
(336,212,o),
(336,248,cs),
(336,309,o),
(355,368,o),
(388,412,cs),
(420,456,o),
(463,485,o),
(511,485,cs),
(550,485,o),
(578,468,o),
(594,438,cs),
(609,408,o),
(611,365,o),
(600,314,cs),
(588,262,o),
(565,219,o),
(536,190,cs),
(507,161,o),
(472,144,o),
(433,144,cs)
);
}
);
width = 931;
}
);
unicode = 64;
},
{
glyphname = A;
layers = (
{
layerId = "0A0AAF82-7A3B-4E69-84DB-BE8E4A819DF7";
shapes = (
{
closed = 1;
nodes = (
(182,0,l),
(380,373,l),
(434,475,l),
(443,475,l),
(449,375,l),
(448,0,l),
(687,0,l),
(646,729,l),
(352,729,l),
(-74,0,l)
);
},
{
closed = 1;
nodes = (
(464,110,l),
(457,301,l),
(327,301,l),
(219,110,l)
);
}
);
width = 762;
},
{
layerId = "DD839978-B654-4D5F-A0C6-3C33A53FE9CB";
shapes = (
{
closed = 1;
nodes = (
(50,0,l),
(400,534,l),
(458,628,l),
(462,628,l),
(473,531,l),
(529,0,l),
(624,0,l),
(541,729,l),
(425,729,l),
(-54,0,l)
);
},
{
closed = 1;
nodes = (
(521,174,l),
(513,252,l),
(199,252,l),
(151,174,l)
);
}
);
width = 716;
},
{
layerId = "3FCCCC1A-F738-479A-AD82-BA541789BD82";
shapes = (
{
closed = 1;
nodes = (
(-3,0,l),
(409,597,l),
(467,689,l),
(470,689,l),
(482,592,l),
(561,0,l),
(599,0,l),
(500,729,l),
(454,729,l),
(-46,0,l)
);
},
{
closed = 1;
nodes = (
(544,200,l),
(536,232,l),
(149,232,l),
(124,200,l)
);
}
);
width = 698;
}
);
leftKerningGroup = A2;
rightKerningGroup = A;
unicode = 65;
},
{
glyphname = B;
layers = (
{
layerId = "0A0AAF82-7A3B-4E69-84DB-BE8E4A819DF7";
shapes = (
{
closed = 1;
nodes = (
(375,0,ls),
(474,0,o),
(551,20,o),
(606,57,cs),
(661,94,o),
(690,147,o),
(693,214,c),
(696,251,o),
(684,285,o),
(667,312,cs),
(650,339,o),
(627,357,o),
(599,368,c),
(600,376,l),
(651,389,o),
(689,414,o),
(714,444,cs),
(738,474,o),
(754,511,o),
(754,551,c),
(759,658,o),
(692,729,o),
(531,729,cs),
(173,729,l),
(-27,0,l)
);
},
{
closed = 1;
nodes = (
(371,545,l),
(457,545,ls),
(481,545,o),
(499,536,o),
(499,511,cs),
(499,494,o),
(493,480,o),
(482,472,cs),
(470,464,o),
(455,459,o),
(436,459,cs),
(330,459,l),
(280,284,l),
(387,284,ls),
(416,284,o),
(438,274,o),
(439,247,c),
(439,226,o),
(430,210,o),
(417,200,cs),
(404,190,o),
(387,184,o),
(364,184,cs),
(270,184,l)
);
}
);
width = 726;
},
{
layerId = "DD839978-B654-4D5F-A0C6-3C33A53FE9CB";
shapes = (
{
closed = 1;
nodes = (
(364,0,ls),
(452,0,o),
(523,21,o),
(572,60,cs),
(621,99,o),
(649,154,o),
(650,222,cs),
(651,259,o),
(641,293,o),
(623,318,cs),
(605,342,o),
(578,362,o),
(546,371,c),
(547,376,l),
(595,388,o),
(636,411,o),
(665,443,cs),
(694,475,o),
(712,517,o),
(713,565,cs),
(714,666,o),
(647,729,o),
(518,729,cs),
(204,729,l),
(3,0,l)
);
},
{
closed = 1;
nodes = (
(281,651,l),
(495,651,ls),
(570,651,o),
(612,616,o),
(611,555,cs),
(611,508,o),
(594,474,o),
(563,450,cs),
(532,425,o),
(489,412,o),
(436,412,cs),
(203,412,l),
(182,337,l),
(425,337,ls),
(502,337,o),
(550,301,o),
(550,232,c),
(549,183,o),
(531,145,o),
(499,118,cs),
(467,91,o),
(420,78,o),
(363,78,cs),
(122,78,l)
);
}
);
width = 705;
},
{
layerId = "3FCCCC1A-F738-479A-AD82-BA541789BD82";
shapes = (
{
closed = 1;
nodes = (
(359,0,ls),
(444,0,o),
(512,22,o),
(559,62,cs),
(606,101,o),
(633,156,o),
(634,225,cs),
(634,262,o),
(624,295,o),
(605,320,cs),
(586,344,o),
(558,364,o),
(525,372,c),
(526,376,l),
(573,388,o),
(615,410,o),
(646,443,cs),
(677,476,o),
(696,519,o),
(696,570,cs),
(697,670,o),
(631,729,o),
(512,729,cs),
(216,729,l),
(15,0,l)
);
},
{
closed = 1;
nodes = (
(246,693,l),
(510,693,ls),
(606,693,o),
(656,649,o),
(655,572,cs),
(655,515,o),
(634,471,o),
(596,440,cs),
(558,409,o),
(504,393,o),
(436,393,cs),
(153,393,l),
(143,358,l),
(439,358,ls),
(538,358,o),
(594,313,o),
(594,226,cs),
(593,166,o),
(571,118,o),
(532,86,cs),
(492,54,o),
(434,36,o),
(362,36,cs),
(63,36,l)
);
}
);
width = 696;
}
);
leftKerningGroup = B;
unicode = 66;
},
{
glyphname = C;
layers = (
{
layerId = "0A0AAF82-7A3B-4E69-84DB-BE8E4A819DF7";
shapes = (
{
closed = 1;
nodes = (
(507,-9,o),
(590,16,o),
(654,62,cs),
(717,108,o),
(759,175,o),
(775,259,c),
(517,259,l),
(509,235,o),
(495,219,o),
(476,209,cs),
(457,199,o),
(433,195,o),
(402,196,cs),
(371,197,o),
(345,209,o),
(326,232,cs),
(307,255,o),
(298,288,o),
(299,332,c),
(303,385,o),
(317,436,o),
(342,472,cs),
(367,508,o),
(406,532,o),
(455,532,cs),
(486,532,o),
(512,526,o),
(532,514,cs),
(552,502,o),
(565,483,o),
(570,459,c),
(825,459,l),
(824,543,o),
(787,611,o),
(723,660,cs),
(659,708,o),
(569,736,o),
(460,736,cs),
(341,736,o),
(239,696,o),
(166,626,cs),
(93,556,o),
(48,456,o),
(41,337,c),
(37,236,o),
(66,148,o),
(127,88,cs),
(188,27,o),
(281,-9,o),
(408,-9,cs)
);
}
);
width = 790;
},
{
layerId = "DD839978-B654-4D5F-A0C6-3C33A53FE9CB";
shapes = (
{
closed = 1;
nodes = (
(453,-10,o),
(532,13,o),
(595,57,cs),
(658,100,o),
(705,163,o),
(725,243,c),
(626,243,l),
(607,191,o),
(575,148,o),
(532,120,cs),
(488,91,o),
(434,75,o),
(371,75,cs),
(308,75,o),
(256,95,o),
(220,134,cs),
(184,173,o),
(165,230,o),
(168,309,cs),
(173,412,o),
(205,499,o),
(258,560,cs),
(310,620,o),
(385,655,o),
(476,655,cs),
(533,655,o),
(583,638,o),
(620,608,cs),
(656,578,o),
(678,536,o),
(681,485,c),
(778,485,l),
(778,560,o),
(747,623,o),
(695,668,cs),
(642,712,o),
(567,739,o),
(478,739,cs),
(362,739,o),
(262,696,o),
(190,621,cs),
(118,545,o),
(74,439,o),
(67,311,cs),
(63,214,o),
(89,134,o),
(141,78,cs),
(193,22,o),
(269,-10,o),
(368,-10,cs)
);
}
);
width = 762;
},
{
layerId = "3FCCCC1A-F738-479A-AD82-BA541789BD82";
shapes = (
{
closed = 1;
nodes = (
(433,-10,o),
(509,13,o),
(572,55,cs),
(635,97,o),
(682,159,o),
(706,236,c),
(668,236,l),
(647,173,o),
(607,121,o),
(554,85,cs),
(501,48,o),
(435,27,o),
(359,27,cs),
(284,27,o),
(222,50,o),
(179,95,cs),
(135,140,o),
(113,208,o),
(117,299,cs),
(122,423,o),
(160,523,o),
(224,594,cs),
(288,665,o),
(377,704,o),
(484,704,cs),
(553,704,o),
(611,682,o),
(654,645,cs),
(697,608,o),
(724,556,o),
(725,495,c),
(759,495,l),
(760,567,o),
(731,627,o),
(683,671,cs),
(635,715,o),
(566,740,o),
(485,740,cs),
(370,740,o),
(271,695,o),
(199,619,cs),
(127,542,o),
(85,432,o),
(78,301,cs),
(73,206,o),
(98,129,o),
(146,74,cs),
(194,19,o),
(265,-10,o),
(352,-10,cs)
);
}
);
width = 751;
}
);
leftKerningGroup = C2;
rightKerningGroup = C;
unicode = 67;
},
{
glyphname = D;
layers = (
{
layerId = "0A0AAF82-7A3B-4E69-84DB-BE8E4A819DF7";
shapes = (
{
closed = 1;
nodes = (
(310,0,ls),
(446,0,o),
(559,43,o),
(639,120,cs),
(719,197,o),
(769,308,o),
(774,444,cs),
(778,535,o),
(751,606,o),
(700,655,cs),
(649,703,o),
(572,729,o),
(479,729,cs),
(172,729,l),
(-27,0,l)
);
},
{
closed = 1;
nodes = (
(368,525,l),
(421,525,ls),
(449,525,o),
(474,517,o),
(491,500,cs),
(507,483,o),
(516,456,o),
(515,420,c),
(511,356,o),
(494,302,o),
(463,264,cs),
(431,226,o),
(385,204,o),
(326,204,cs),
(281,204,l)
);
}
);
width = 760;
},
{
layerId = "DD839978-B654-4D5F-A0C6-3C33A53FE9CB";
shapes = (
{
closed = 1;
nodes = (
(306,0,ls),
(431,0,o),
(537,42,o),
(613,118,cs),
(689,194,o),
(736,304,o),
(741,436,cs),
(745,528,o),
(718,602,o),
(667,652,cs),
(616,702,o),
(540,729,o),
(447,729,cs),
(204,729,l),
(3,0,l)
);
},
{
closed = 1;
nodes = (
(279,646,l),
(429,646,ls),
(500,646,o),
(553,626,o),
(589,589,cs),
(624,552,o),
(641,498,o),
(638,430,cs),
(633,325,o),
(600,238,o),
(545,178,cs),
(489,118,o),
(411,84,o),
(318,84,cs),
(123,84,l)
);
}
);
width = 749;
},
{
layerId = "3FCCCC1A-F738-479A-AD82-BA541789BD82";
shapes = (
{
closed = 1;
nodes = (
(304,0,ls),
(425,0,o),
(529,42,o),
(603,118,cs),
(677,193,o),
(722,302,o),
(727,433,cs),
(732,525,o),
(705,599,o),
(654,650,cs),
(603,701,o),
(528,729,o),
(435,729,cs),
(216,729,l),
(15,0,l)
);
},
{
closed = 1;
nodes = (
(244,693,l),
(433,693,ls),
(518,693,o),
(584,669,o),
(628,625,cs),
(671,580,o),
(690,516,o),
(686,433,cs),
(681,313,o),
(642,213,o),
(578,145,cs),
(513,76,o),
(422,36,o),
(314,36,cs),
(61,36,l)
);
}
);
width = 744;
}
);
leftKerningGroup = B;
rightKerningGroup = D;
unicode = 68;
},
{
glyphname = E;
layers = (
{
layerId = "0A0AAF82-7A3B-4E69-84DB-BE8E4A819DF7";
shapes = (
{
closed = 1;
nodes = (
(554,0,l),
(610,210,l),
(228,210,l),
(269,157,l),
(381,571,l),
(313,519,l),
(692,519,l),
(750,729,l),
(172,729,l),
(-27,0,l)
);
},
{
closed = 1;
nodes = (
(574,264,l),
(628,460,l),
(296,460,l),
(241,264,l)
);
}
);
width = 658;
},
{
layerId = "DD839978-B654-4D5F-A0C6-3C33A53FE9CB";
shapes = (
{
closed = 1;
nodes = (
(519,0,l),
(542,85,l),
(101,85,l),
(117,60,l),
(286,672,l),
(254,644,l),
(695,644,l),
(718,729,l),
(204,729,l),
(3,0,l)
);
},
{
closed = 1;
nodes = (
(564,331,l),
(585,411,l),
(193,411,l),
(173,331,l)
);
}
);
width = 624;
},
{
layerId = "3FCCCC1A-F738-479A-AD82-BA541789BD82";
shapes = (
{
closed = 1;
nodes = (
(505,0,l),
(515,36,l),
(51,36,l),
(57,22,l),
(249,713,l),
(231,693,l),
(697,693,l),
(706,729,l),
(216,729,l),
(15,0,l)
);
},
{
closed = 1;
nodes = (
(560,358,l),
(569,392,l),
(152,392,l),
(146,358,l)
);
}
);
width = 610;
}
);
leftKerningGroup = B;
rightKerningGroup = E;
unicode = 69;
},
{
glyphname = F;
layers = (
{
layerId = "0A0AAF82-7A3B-4E69-84DB-BE8E4A819DF7";
shapes = (
{
closed = 1;
nodes = (
(224,0,l),
(382,579,l),
(306,519,l),
(668,519,l),
(727,729,l),
(172,729,l),
(-27,0,l)
);
},
{
closed = 1;
nodes = (
(551,238,l),
(608,436,l),
(266,436,l),
(212,238,l)
);
}
);
width = 618;
},
{
layerId = "DD839978-B654-4D5F-A0C6-3C33A53FE9CB";
shapes = (
{
closed = 1;
nodes = (
(101,0,l),
(285,670,l),
(253,644,l),
(688,644,l),
(711,729,l),
(204,729,l),
(3,0,l)
);
},
{
closed = 1;
nodes = (
(559,318,l),
(581,399,l),
(175,399,l),
(148,318,l)
);
}
);
width = 607;
},
{
layerId = "3FCCCC1A-F738-479A-AD82-BA541789BD82";
shapes = (
{
closed = 1;
nodes = (
(53,0,l),
(247,706,l),
(232,693,l),
(695,693,l),
(704,729,l),
(216,729,l),
(15,0,l)
);
},
{
closed = 1;
nodes = (
(562,349,l),
(570,384,l),
(139,384,l),
(123,349,l)
);
}
);
width = 603;
}
);
leftKerningGroup = B;
unicode = 70;
},
{
glyphname = G;
layers = (
{
layerId = "0A0AAF82-7A3B-4E69-84DB-BE8E4A819DF7";
shapes = (
{
closed = 1;
nodes = (
(411,-9,o),
(493,4,o),
(539,55,c),
(546,55,l),
(546,0,l),
(726,0,l),
(842,417,l),
(463,417,l),
(414,243,l),
(550,243,l),
(539,257,l),
(539,258,l),
(532,235,o),
(517,220,o),
(497,210,cs),
(476,200,o),
(451,196,o),
(424,196,cs),
(384,196,o),
(351,208,o),
(330,228,cs),
(309,248,o),
(297,277,o),
(296,313,cs),
(295,378,o),
(312,433,o),
(341,470,cs),
(369,507,o),
(411,528,o),
(459,528,cs),
(494,528,o),
(523,521,o),
(545,510,cs),
(567,499,o),
(580,483,o),
(584,463,c),
(839,463,l),
(839,544,o),
(799,612,o),
(734,660,cs),
(669,708,o),
(578,736,o),
(478,736,cs),
(339,736,o),
(229,687,o),
(153,607,cs),
(77,527,o),
(37,414,o),
(38,289,cs),
(38,258,o),
(42,230,o),
(49,204,cs),
(63,151,o),
(88,106,o),
(125,72,cs),
(143,55,o),
(163,40,o),
(186,28,cs),
(231,4,o),
(286,-9,o),
(346,-9,cs)
);
}
);
width = 832;
},
{
layerId = "DD839978-B654-4D5F-A0C6-3C33A53FE9CB";
shapes = (
{
closed = 1;
nodes = (
(456,-10,o),
(550,27,o),
(596,89,c),
(602,89,l),
(587,0,l),
(661,0,l),
(768,388,l),
(406,388,l),
(386,313,l),
(654,313,l),
(648,321,l),
(633,265,l),
(616,208,o),
(585,159,o),
(542,126,cs),
(499,93,o),
(444,74,o),
(377,74,cs),
(313,74,o),
(259,94,o),
(223,132,cs),
(187,170,o),
(167,226,o),
(168,299,cs),
(171,407,o),
(203,496,o),
(256,558,cs),
(309,620,o),
(386,654,o),
(475,654,cs),
(534,654,o),
(583,638,o),
(619,611,cs),
(655,584,o),
(677,545,o),
(681,500,c),
(783,500,l),
(782,573,o),
(750,633,o),
(696,675,cs),
(642,717,o),
(568,739,o),
(485,739,cs),
(362,739,o),
(258,693,o),
(185,614,cs),
(112,535,o),
(70,424,o),
(67,293,cs),
(66,262,o),
(69,234,o),
(75,207,cs),
(86,153,o),
(109,108,o),
(142,73,cs),
(159,55,o),
(178,40,o),
(199,28,cs),
(242,3,o),
(293,-10,o),
(352,-10,cs)
);
}
);
width = 787;
},
{
layerId = "3FCCCC1A-F738-479A-AD82-BA541789BD82";
shapes = (
{
closed = 1;
nodes = (
(471,-10,o),
(576,39,o),
(632,145,c),
(638,145,l),
(603,0,l),
(635,0,l),
(739,376,l),
(384,376,l),
(375,340,l),
(695,340,l),
(691,346,l),
(670,268,l),
(649,197,o),
(612,136,o),
(560,93,cs),
(508,50,o),
(442,26,o),
(359,26,cs),
(284,26,o),
(223,49,o),
(181,94,cs),
(139,138,o),
(115,205,o),
(118,293,cs),
(122,418,o),
(159,521,o),
(223,593,cs),
(286,664,o),
(376,704,o),
(481,704,cs),
(549,704,o),
(607,684,o),
(649,651,cs),
(691,618,o),
(716,571,o),
(720,515,c),
(760,515,l),
(760,586,o),
(729,641,o),
(681,680,cs),
(632,719,o),
(564,740,o),
(488,740,cs),
(371,740,o),
(271,695,o),
(199,617,cs),
(126,539,o),
(83,427,o),
(78,294,cs),
(77,263,o),
(80,235,o),
(85,208,cs),
(96,154,o),
(117,108,o),
(150,73,cs),
(166,55,o),
(184,40,o),
(205,28,cs),
(246,3,o),
(296,-10,o),
(355,-10,cs)
);
}
);
width = 770;
}
);
leftKerningGroup = C2;
rightKerningGroup = G;
unicode = 71;
},
{
glyphname = H;
layers = (
{
layerId = "0A0AAF82-7A3B-4E69-84DB-BE8E4A819DF7";
shapes = (
{
closed = 1;
nodes = (
(224,0,l),
(425,729,l),
(172,729,l),
(-27,0,l)
);
},
{
closed = 1;
nodes = (
(690,0,l),
(892,729,l),
(638,729,l),
(438,0,l)
);
},
{
closed = 1;
nodes = (
(594,265,l),
(650,474,l),
(274,474,l),
(217,265,l)
);
}
);
width = 812;
},
{
layerId = "DD839978-B654-4D5F-A0C6-3C33A53FE9CB";
shapes = (
{
closed = 1;
nodes = (
(101,0,l),
(302,729,l),
(204,729,l),
(3,0,l)
);
},
{
closed = 1;
nodes = (
(629,0,l),
(830,729,l),
(731,729,l),
(531,0,l)
);
},
{
closed = 1;
nodes = (
(659,325,l),
(680,410,l),
(179,410,l),
(152,325,l)
);
}
);
width = 778;
},
{
layerId = "3FCCCC1A-F738-479A-AD82-BA541789BD82";
shapes = (
{
closed = 1;
nodes = (
(53,0,l),
(254,729,l),
(216,729,l),
(15,0,l)
);
},
{
closed = 1;
nodes = (
(605,0,l),
(806,729,l),
(768,729,l),
(567,0,l)
);
},
{
closed = 1;
nodes = (
(685,349,l),
(692,385,l),
(141,385,l),
(127,349,l)
);
}
);
width = 764;
}
);
leftKerningGroup = B;
rightKerningGroup = H;
unicode = 72;
},
{
glyphname = I;
layers = (
{
layerId = "0A0AAF82-7A3B-4E69-84DB-BE8E4A819DF7";
shapes = (
{
closed = 1;
nodes = (
(224,0,l),
(425,729,l),
(172,729,l),
(-27,0,l)
);
}
);
width = 346;
},
{
layerId = "DD839978-B654-4D5F-A0C6-3C33A53FE9CB";
shapes = (
{
closed = 1;
nodes = (
(101,0,l),
(303,729,l),
(204,729,l),
(3,0,l)
);
}
);
width = 250;
},
{
layerId = "3FCCCC1A-F738-479A-AD82-BA541789BD82";
shapes = (
{
closed = 1;
nodes = (
(53,0,l),
(254,729,l),
(216,729,l),
(15,0,l)
);
}
);
width = 213;
}
);
leftKerningGroup = B;
rightKerningGroup = H;
unicode = 73;
},
{
glyphname = J;
layers = (
{
layerId = "0A0AAF82-7A3B-4E69-84DB-BE8E4A819DF7";
shapes = (
{
closed = 1;
nodes = (
(134,-11,o),
(197,-3,o),
(250,33,cs),
(303,68,o),
(346,132,o),
(378,247,cs),
(512,729,l),
(260,729,l),
(139,305,l),
(128,260,o),
(118,232,o),
(103,217,cs),
(88,201,o),
(69,197,o),
(42,197,cs),
(22,197,o),
(-4,203,o),
(-12,212,c),
(-67,16,l),
(-46,1,o),
(10,-11,o),
(70,-11,cs)
);
}
);
width = 459;
},
{
layerId = "DD839978-B654-4D5F-A0C6-3C33A53FE9CB";
shapes = (
{
closed = 1;
nodes = (
(99,-10,o),
(149,4,o),
(191,36,cs),
(233,68,o),
(265,120,o),
(285,196,cs),
(433,729,l),
(335,729,l),
(191,215,l),
(178,163,o),
(158,128,o),
(133,106,cs),
(108,84,o),
(76,74,o),
(37,74,cs),
(5,74,o),
(-24,82,o),
(-39,97,c),
(-61,15,l),
(-42,2,o),
(-5,-10,o),
(40,-10,cs)
);
}
);
width = 402;
},
{
layerId = "3FCCCC1A-F738-479A-AD82-BA541789BD82";
shapes = (
{
closed = 1;
nodes = (
(84,-9,o),
(131,6,o),
(168,37,cs),
(204,68,o),
(232,115,o),
(248,176,cs),
(402,729,l),
(365,729,l),
(212,180,ls),
(197,124,o),
(175,86,o),
(145,62,cs),
(115,37,o),
(79,26,o),
(36,26,cs),
(-3,26,o),
(-33,36,o),
(-50,52,c),
(-59,15,l),
(-42,2,o),
(-12,-9,o),
(28,-9,cs)
);
}
);
width = 380;
}
);
leftKerningGroup = J2;
rightKerningGroup = J;
unicode = 74;
},
{
glyphname = K;
layers = (
{
layerId = "0A0AAF82-7A3B-4E69-84DB-BE8E4A819DF7";
shapes = (
{
closed = 1;
nodes = (
(729,0,l),
(563,418,l),
(908,729,l),
(594,729,l),
(346,486,l),
(259,169,l),
(361,257,l),
(454,0,l)
);
},
{
closed = 1;
nodes = (
(224,0,l),
(425,729,l),
(172,729,l),
(-27,0,l)
);
}
);
width = 803;
},
{
layerId = "DD839978-B654-4D5F-A0C6-3C33A53FE9CB";
shapes = (
{
closed = 1;
nodes = (
(605,0,l),
(422,419,l),
(795,729,l),
(666,729,l),
(182,325,l),
(147,199,l),
(344,358,l),
(498,0,l)
);
},
{
closed = 1;
nodes = (
(101,0,l),
(303,729,l),
(204,729,l),
(3,0,l)
);
}
);
width = 695;
},
{
layerId = "3FCCCC1A-F738-479A-AD82-BA541789BD82";
shapes = (
{
closed = 1;
nodes = (
(555,0,l),
(367,420,l),
(750,729,l),
(694,729,l),
(117,262,l),
(103,212,l),
(337,398,l),
(515,0,l)
);
},
{
closed = 1;
nodes = (
(53,0,l),
(254,729,l),
(216,729,l),
(15,0,l)
);
}
);
width = 653;
}
);
leftKerningGroup = B;
rightKerningGroup = K;
unicode = 75;
},
{
glyphname = L;
layers = (
{
layerId = "0A0AAF82-7A3B-4E69-84DB-BE8E4A819DF7";
shapes = (
{
closed = 1;
nodes = (
(498,0,l),
(558,218,l),
(265,218,l),
(278,199,l),
(425,729,l),
(172,729,l),
(-27,0,l)
);
}
);
width = 586;
},
{
layerId = "DD839978-B654-4D5F-A0C6-3C33A53FE9CB";
shapes = (
{
closed = 1;
nodes = (
(457,0,l),
(480,88,l),
(113,88,l),
(121,77,l),
(302,729,l),
(204,729,l),
(3,0,l)
);
}
);
width = 550;
},
{
layerId = "3FCCCC1A-F738-479A-AD82-BA541789BD82";
shapes = (
{
closed = 1;
nodes = (
(441,0,l),
(450,37,l),
(53,37,l),
(59,29,l),
(254,729,l),
(216,729,l),
(15,0,l)
);
}
);
width = 536;
}
);
leftKerningGroup = B;
rightKerningGroup = L;
unicode = 76;
},
{
glyphname = M;
layers = (
{
layerId = "0A0AAF82-7A3B-4E69-84DB-BE8E4A819DF7";
shapes = (
{
closed = 1;
nodes = (
(214,0,l),
(284,254,l),
(346,494,l),
(356,494,l),
(336,298,l),
(305,0,l),
(511,0,l),
(642,291,l),
(729,494,l),
(738,494,l),
(672,255,l),
(602,0,l),
(842,0,l),
(1043,729,l),
(668,729,l),
(550,457,l),
(507,338,l),
(498,338,l),
(520,458,l),
(547,729,l),
(172,729,l),
(-27,0,l)
);
}
);
width = 965;
},
{
layerId = "DD839978-B654-4D5F-A0C6-3C33A53FE9CB";
shapes = (
{
closed = 1;
nodes = (
(98,0,l),
(202,373,l),
(271,631,l),
(278,631,l),
(297,409,l),
(338,0,l),
(426,0,l),
(694,415,l),
(832,631,l),
(839,631,l),
(765,373,l),
(662,0,l),
(757,0,l),
(958,729,l),
(805,729,l),
(526,297,l),
(419,132,l),
(413,132,l),
(402,293,l),
(351,729,l),
(204,729,l),
(3,0,l)
);
}
);
width = 906;
},
{
layerId = "3FCCCC1A-F738-479A-AD82-BA541789BD82";
shapes = (
{
closed = 1;
nodes = (
(53,0,l),
(169,420,l),
(241,685,l),
(247,685,l),
(281,453,l),
(352,0,l),
(392,0,l),
(715,464,l),
(872,685,l),
(879,685,l),
(802,420,l),
(685,0,l),
(724,0,l),
(925,729,l),
(860,729,l),
(517,234,l),
(385,50,l),
(380,50,l),
(356,229,l),
(274,729,l),
(216,729,l),
(15,0,l)
);
}
);
width = 883;
}
);
leftKerningGroup = B;
rightKerningGroup = H;
unicode = 77;
},
{
glyphname = N;
layers = (
{
layerId = "0A0AAF82-7A3B-4E69-84DB-BE8E4A819DF7";
shapes = (
{
closed = 1;
nodes = (
(223,0,l),
(274,184,l),
(313,371,l),
(322,371,l),
(394,0,l),
(679,0,l),
(881,729,l),
(630,729,l),
(579,541,l),
(538,351,l),
(529,351,l),
(456,729,l),
(172,729,l),
(-27,0,l)
);
}
);
width = 803;
},
{
layerId = "DD839978-B654-4D5F-A0C6-3C33A53FE9CB";
shapes = (
{
closed = 1;
nodes = (
(101,0,l),
(202,365,l),
(261,598,l),
(267,598,l),
(504,0,l),
(622,0,l),
(823,729,l),
(726,729,l),
(627,370,l),
(566,129,l),
(560,129,l),
(321,729,l),
(204,729,l),
(3,0,l)
);
}
);
width = 771;
},
{
layerId = "3FCCCC1A-F738-479A-AD82-BA541789BD82";
shapes = (
{
closed = 1;
nodes = (
(53,0,l),
(173,436,l),
(241,687,l),
(245,687,l),
(548,0,l),
(599,0,l),
(801,729,l),
(763,729,l),
(646,303,l),
(577,42,l),
(572,42,l),
(268,729,l),
(216,729,l),
(15,0,l)
);
}
);
width = 759;
}
);
leftKerningGroup = B;
rightKerningGroup = H;
unicode = 78;
},
{
glyphname = O;
layers = (
{
layerId = "0A0AAF82-7A3B-4E69-84DB-BE8E4A819DF7";
shapes = (
{
closed = 1;
nodes = (
(525,-9,o),
(627,32,o),
(701,102,cs),
(775,172,o),
(821,272,o),
(826,391,cs),
(827,425,o),
(825,457,o),
(820,488,c),
(808,548,o),
(781,599,o),
(741,640,cs),
(720,661,o),
(696,678,o),
(669,693,c),
(614,721,o),
(546,737,o),
(463,737,cs),
(343,737,o),
(241,698,o),
(167,628,cs),
(93,558,o),
(48,457,o),
(41,337,c),
(37,237,o),
(65,149,o),
(126,88,cs),
(187,27,o),
(280,-9,o),
(405,-9,cs)
);
},
{
closed = 1;
nodes = (
(376,197,o),
(347,209,o),
(328,232,cs),
(308,255,o),
(298,288,o),
(299,332,c),
(303,387,o),
(317,437,o),
(343,473,cs),
(369,508,o),
(406,531,o),
(457,531,cs),
(492,531,o),
(520,520,o),
(540,497,c),
(559,473,o),
(570,439,o),
(567,396,cs),
(564,343,o),
(551,292,o),
(526,256,cs),
(501,220,o),
(464,197,o),
(412,197,cs)
);
}
);
width = 818;
},
{
layerId = "DD839978-B654-4D5F-A0C6-3C33A53FE9CB";
shapes = (
{
closed = 1;
nodes = (
(484,-10,o),
(584,34,o),
(656,109,cs),
(728,184,o),
(773,291,o),
(778,418,cs),
(779,450,o),
(778,480,o),
(773,509,cs),
(763,565,o),
(740,614,o),
(706,651,cs),
(689,670,o),
(669,686,o),
(646,699,cs),
(601,725,o),
(545,739,o),
(478,739,cs),
(362,739,o),
(262,696,o),
(190,621,cs),
(118,545,o),
(74,438,o),
(67,311,cs),
(63,215,o),
(89,134,o),
(141,78,cs),
(193,22,o),
(269,-10,o),
(368,-10,cs)
);
},
{
closed = 1;
nodes = (
(309,74,o),
(256,94,o),
(220,134,cs),
(184,173,o),
(165,232,o),
(168,309,cs),
(173,413,o),
(205,500,o),
(257,561,cs),
(309,621,o),
(383,656,o),
(471,656,cs),
(536,656,o),
(590,635,o),
(626,596,c),
(661,556,o),
(680,497,o),
(677,420,cs),
(672,317,o),
(640,230,o),
(588,170,cs),
(535,109,o),
(461,74,o),
(373,74,cs)
);
}
);
width = 790;
},
{
layerId = "3FCCCC1A-F738-479A-AD82-BA541789BD82";
shapes = (
{
closed = 1;
nodes = (
(467,-10,o),
(567,35,o),
(638,112,cs),
(709,188,o),
(755,300,o),
(760,429,cs),
(761,460,o),
(760,490,o),
(755,518,cs),
(746,573,o),
(724,619,o),
(692,655,cs),
(676,673,o),
(658,688,o),
(637,701,cs),
(595,726,o),
(544,740,o),
(484,740,cs),
(369,740,o),
(270,695,o),
(199,618,cs),
(128,541,o),
(85,430,o),
(78,301,cs),
(73,206,o),
(98,129,o),
(147,74,cs),
(195,19,o),
(265,-10,o),
(354,-10,cs)
);
},
{
closed = 1;
nodes = (
(282,25,o),
(221,49,o),
(178,94,cs),
(135,139,o),
(113,208,o),
(117,299,cs),
(122,423,o),
(160,524,o),
(224,595,cs),
(287,666,o),
(374,705,o),
(477,705,cs),
(553,705,o),
(616,680,o),
(659,635,cs),
(702,590,o),
(724,521,o),
(720,430,cs),
(715,307,o),
(676,206,o),
(613,135,cs),
(549,64,o),
(461,25,o),
(357,25,cs)
);
}
);
width = 779;
}
);
leftKerningGroup = C2;
rightKerningGroup = O;
unicode = 79;
},
{
glyphname = P;
layers = (
{
layerId = "0A0AAF82-7A3B-4E69-84DB-BE8E4A819DF7";
shapes = (
{
closed = 1;
nodes = (
(227,0,l),
(374,535,l),
(360,524,l),
(416,524,ls),
(433,524,o),
(448,520,o),
(459,513,cs),
(470,505,o),
(475,494,o),
(474,479,c),
(474,455,o),
(466,438,o),
(450,426,cs),
(434,414,o),
(413,408,o),
(388,408,cs),
(321,408,l),
(270,222,l),
(414,222,ls),
(502,222,o),
(579,248,o),
(636,296,cs),
(692,343,o),
(728,412,o),
(732,496,cs),
(736,568,o),
(718,625,o),
(674,666,cs),
(630,706,o),
(563,729,o),
(467,729,cs),
(172,729,l),
(-27,0,l)
);
}
);
width = 689;
},
{
layerId = "DD839978-B654-4D5F-A0C6-3C33A53FE9CB";
shapes = (
{
closed = 1;
nodes = (
(102,0,l),
(284,654,l),
(269,645,l),
(452,645,ls),
(499,645,o),
(536,635,o),
(561,615,cs),
(586,594,o),
(600,564,o),
(600,524,c),
(599,468,o),
(578,423,o),
(542,393,cs),
(505,363,o),
(452,347,o),
(387,347,cs),
(186,347,l),
(165,268,l),
(392,268,ls),
(483,268,o),
(560,293,o),
(614,338,cs),
(668,382,o),
(699,449,o),
(700,530,c),
(703,590,o),
(683,639,o),
(644,675,cs),
(605,710,o),
(546,729,o),
(469,729,cs),
(204,729,l),
(3,0,l)
);
}
);
width = 667;
},
{
layerId = "3FCCCC1A-F738-479A-AD82-BA541789BD82";
shapes = (
{
closed = 1;
nodes = (
(53,0,l),
(248,702,l),
(233,693,l),
(467,693,ls),
(524,693,o),
(570,680,o),
(602,655,cs),
(633,630,o),
(650,591,o),
(649,543,cs),
(648,472,o),
(623,417,o),
(578,380,cs),
(533,343,o),
(469,323,o),
(386,323,cs),
(133,323,l),
(124,287,l),
(383,287,ls),
(476,287,o),
(552,310,o),
(605,354,cs),
(657,398,o),
(687,463,o),
(688,543,cs),
(688,599,o),
(669,646,o),
(632,678,cs),
(595,710,o),
(540,729,o),
(469,729,cs),
(216,729,l),
(15,0,l)
);
}
);
width = 658;
}
);
leftKerningGroup = B;
unicode = 80;
},
{
glyphname = Q;
layers = (
{
layerId = "0A0AAF82-7A3B-4E69-84DB-BE8E4A819DF7";
shapes = (
{
closed = 1;
nodes = (
(672,-186,l),
(730,21,l),
(559,39,l),
(559,34,l),
(637,48,o),
(702,97,o),
(749,163,cs),
(792,225,o),
(820,304,o),
(824,391,cs),
(827,492,o),
(799,579,o),
(739,641,cs),
(679,703,o),
(584,737,o),
(461,737,cs),
(342,737,o),
(240,698,o),
(165,628,cs),
(90,558,o),
(47,457,o),
(40,337,cs),
(36,245,o),
(58,164,o),
(109,104,cs),
(160,44,o),
(238,5,o),
(345,-6,c),
(654,-184,l)
);
},
{
closed = 1;
nodes = (
(374,197,o),
(345,209,o),
(325,232,cs),
(305,255,o),
(294,288,o),
(297,332,cs),
(300,387,o),
(314,437,o),
(340,473,cs),
(366,508,o),
(404,531,o),
(455,531,cs),
(490,531,o),
(519,520,o),
(539,497,c),
(558,473,o),
(568,439,o),
(565,396,cs),
(562,343,o),
(548,292,o),
(524,256,cs),
(499,220,o),
(459,197,o),
(410,197,cs)
);
}
);
width = 822;
},
{
layerId = "DD839978-B654-4D5F-A0C6-3C33A53FE9CB";
shapes = (
{
closed = 1;
nodes = (
(563,-173,l),
(590,-80,l),
(412,19,l),
(406,1,l),
(512,8,o),
(600,57,o),
(663,135,cs),
(722,209,o),
(757,307,o),
(762,418,cs),
(766,515,o),
(741,595,o),
(690,651,cs),
(638,707,o),
(562,739,o),
(462,739,cs),
(346,739,o),
(246,696,o),
(174,621,cs),
(102,545,o),
(58,439,o),
(51,311,cs),
(47,220,o),
(70,143,o),
(116,88,cs),
(162,32,o),
(231,-3,o),
(320,-8,c),
(553,-172,l)
);
},
{
closed = 1;
nodes = (
(293,74,o),
(240,94,o),
(204,134,cs),
(168,173,o),
(149,232,o),
(153,309,cs),
(157,413,o),
(189,500,o),
(242,561,cs),
(294,621,o),
(367,656,o),
(455,656,cs),
(520,656,o),
(574,635,o),
(610,596,c),
(645,556,o),
(664,497,o),
(660,420,cs),
(656,317,o),
(625,230,o),
(573,170,cs),
(520,109,o),
(445,74,o),
(357,74,cs)
);
}
);
width = 766;
},
{
layerId = "3FCCCC1A-F738-479A-AD82-BA541789BD82";
shapes = (
{
closed = 1;
nodes = (
(520,-167,l),
(530,-133,l),
(350,-3,l),
(346,-13,l),
(462,-9,o),
(560,42,o),
(628,124,cs),
(693,202,o),
(733,308,o),
(738,429,cs),
(742,524,o),
(718,602,o),
(671,655,cs),
(623,708,o),
(552,740,o),
(463,740,cs),
(348,740,o),
(249,695,o),
(178,618,cs),
(106,541,o),
(63,432,o),
(56,301,cs),
(52,210,o),
(73,134,o),
(118,81,cs),
(162,28,o),
(227,-5,o),
(310,-9,c),
(513,-167,l)
);
},
{
closed = 1;
nodes = (
(261,25,o),
(200,49,o),
(157,94,cs),
(114,139,o),
(92,208,o),
(96,299,cs),
(101,423,o),
(140,524,o),
(203,595,cs),
(266,666,o),
(353,705,o),
(456,705,cs),
(532,705,o),
(596,680,o),
(638,635,cs),
(680,590,o),
(702,521,o),
(698,430,cs),
(693,307,o),
(655,206,o),
(592,135,cs),
(528,64,o),
(440,25,o),
(336,25,cs)
);
}
);
width = 744;
}
);
leftKerningGroup = C2;
unicode = 81;
},
{
glyphname = R;
layers = (
{
layerId = "0A0AAF82-7A3B-4E69-84DB-BE8E4A819DF7";
shapes = (
{
closed = 1;
nodes = (
(225,0,l),
(370,535,l),
(484,535,ls),
(512,535,o),
(528,525,o),
(537,513,cs),
(546,500,o),
(547,482,o),
(540,466,c),
(531,430,o),
(494,413,o),
(445,414,c),
(320,414,l),
(266,222,l),
(379,222,ls),
(399,222,o),
(417,218,o),
(426,207,cs),
(435,196,o),
(437,180,o),
(430,153,cs),
(405,55,l),
(397,34,o),
(395,19,o),
(394,0,c),
(649,0,l),
(649,7,o),
(649,13,o),
(650,22,cs),
(651,31,o),
(655,44,o),
(660,68,c),
(690,176,l),
(698,209,o),
(698,237,o),
(689,260,cs),
(680,283,o),
(659,301,o),
(626,314,c),
(627,321,l),
(715,345,o),
(774,398,o),
(795,471,c),
(800,482,o),
(803,496,o),
(805,513,cs),
(808,547,o),
(802,585,o),
(782,624,c),
(771,643,o),
(756,661,o),
(736,677,cs),
(695,708,o),
(631,729,o),
(538,729,cs),
(172,729,l),
(-27,0,l)
);
}
);
width = 755;
},
{
layerId = "DD839978-B654-4D5F-A0C6-3C33A53FE9CB";
shapes = (
{
closed = 1;
nodes = (
(101,0,l),
(280,648,l),
(492,648,ls),
(564,648,o),
(604,624,o),
(622,592,cs),
(640,560,o),
(639,520,o),
(627,491,c),
(608,420,o),
(543,383,o),
(459,383,cs),
(195,383,l),
(173,304,l),
(451,304,ls),
(482,304,o),
(507,296,o),
(521,276,cs),
(535,256,o),
(537,224,o),
(524,175,cs),
(495,73,l),
(486,37,o),
(481,16,o),
(482,0,c),
(582,0,l),
(581,7,o),
(581,12,o),
(582,23,cs),
(583,34,o),
(587,49,o),
(592,72,c),
(624,183,ls),
(636,226,o),
(636,259,o),
(625,285,cs),
(614,311,o),
(593,330,o),
(561,342,c),
(562,348,l),
(646,365,o),
(706,418,o),
(729,494,cs),
(733,506,o),
(736,520,o),
(738,537,cs),
(741,569,o),
(735,605,o),
(718,639,cs),
(709,656,o),
(696,671,o),
(679,684,cs),
(644,711,o),
(593,729,o),
(518,729,cs),
(204,729,l),
(3,0,l)
);
}
);
width = 710;
},
{
layerId = "3FCCCC1A-F738-479A-AD82-BA541789BD82";
shapes = (
{
closed = 1;
nodes = (
(53,0,l),
(244,693,l),
(496,693,ls),
(584,693,o),
(634,662,o),
(656,623,cs),
(678,583,o),
(674,536,o),
(661,501,c),
(638,417,o),
(562,371,o),
(465,371,cs),
(146,371,l),
(137,336,l),
(479,336,ls),
(514,336,o),
(542,327,o),
(558,304,c),
(573,280,o),
(576,243,o),
(561,184,c),
(531,80,l),
(522,39,o),
(514,15,o),
(517,0,c),
(555,0,l),
(554,7,o),
(554,12,o),
(555,24,cs),
(556,35,o),
(560,50,o),
(565,74,c),
(598,186,ls),
(611,231,o),
(611,267,o),
(600,295,cs),
(589,322,o),
(567,341,o),
(536,353,c),
(537,358,l),
(620,375,o),
(681,426,o),
(702,503,c),
(707,516,o),
(710,530,o),
(711,546,cs),
(714,578,o),
(709,612,o),
(693,644,c),
(684,660,o),
(672,674,o),
(657,687,c),
(625,712,o),
(578,729,o),
(510,729,cs),
(216,729,l),
(15,0,l)
);
}
);
width = 692;
}
);
leftKerningGroup = B;
rightKerningGroup = R;
unicode = 82;
},
{
glyphname = S;
layers = (
{
layerId = "0A0AAF82-7A3B-4E69-84DB-BE8E4A819DF7";
shapes = (
{
closed = 1;
nodes = (
(421,-10,o),
(509,17,o),
(569,66,cs),
(629,115,o),
(662,188,o),
(662,280,cs),
(662,335,o),
(647,375,o),
(609,406,cs),
(571,437,o),
(510,461,o),
(421,481,c),
(404,486,o),
(388,489,o),
(377,495,cs),
(365,501,o),
(358,506,o),
(358,517,cs),
(358,528,o),
(361,537,o),
(368,543,cs),
(375,549,o),
(387,553,o),
(403,553,cs),
(424,553,o),
(439,548,o),
(448,539,cs),
(457,530,o),
(459,519,o),
(458,503,c),
(713,503,l),
(716,570,o),
(691,628,o),
(640,670,cs),
(589,712,o),
(514,738,o),
(421,738,cs),
(328,738,o),
(244,715,o),
(184,671,cs),
(123,627,o),
(84,561,o),
(84,472,cs),
(84,420,o),
(102,379,o),
(139,345,cs),
(176,311,o),
(235,284,o),
(316,261,c),
(340,253,o),
(360,249,o),
(372,245,cs),
(384,240,o),
(391,233,o),
(391,220,cs),
(391,208,o),
(389,198,o),
(379,190,cs),
(369,182,o),
(353,178,o),
(326,178,cs),
(302,178,o),
(281,184,o),
(268,196,cs),
(255,207,o),
(249,222,o),
(250,239,c),
(1,239,l),
(-4,160,o),
(24,98,o),
(77,56,cs),
(130,14,o),
(210,-10,o),
(310,-10,cs)
);
}
);
width = 686;
},
{
layerId = "DD839978-B654-4D5F-A0C6-3C33A53FE9CB";
shapes = (
{
closed = 1;
nodes = (
(391,-11,o),
(463,12,o),
(514,53,cs),
(565,94,o),
(595,154,o),
(595,231,cs),
(595,272,o),
(584,308,o),
(552,339,cs),
(520,370,o),
(467,395,o),
(382,418,c),
(329,431,o),
(292,447,o),
(268,466,cs),
(244,485,o),
(233,507,o),
(233,535,cs),
(233,575,o),
(251,607,o),
(280,628,cs),
(308,649,o),
(349,660,o),
(396,660,cs),
(448,660,o),
(489,647,o),
(517,623,cs),
(545,598,o),
(560,564,o),
(557,523,c),
(657,523,l),
(660,588,o),
(636,643,o),
(592,680,cs),
(547,717,o),
(483,739,o),
(404,739,cs),
(327,739,o),
(257,720,o),
(207,684,cs),
(157,647,o),
(126,592,o),
(126,520,cs),
(126,473,o),
(140,436,o),
(176,405,cs),
(211,374,o),
(265,351,o),
(342,331,cs),
(407,314,o),
(444,295,o),
(464,275,cs),
(484,254,o),
(488,233,o),
(488,212,cs),
(488,163,o),
(470,128,o),
(438,104,cs),
(406,80,o),
(360,68,o),
(305,68,cs),
(249,68,o),
(201,83,o),
(169,110,cs),
(137,137,o),
(119,176,o),
(123,227,c),
(24,227,l),
(19,154,o),
(42,94,o),
(90,53,cs),
(138,12,o),
(211,-11,o),
(303,-11,cs)
);
}
);
width = 646;
},
{
layerId = "3FCCCC1A-F738-479A-AD82-BA541789BD82";
shapes = (
{
closed = 1;
nodes = (
(378,-11,o),
(445,10,o),
(493,48,cs),
(540,86,o),
(568,141,o),
(568,212,cs),
(568,247,o),
(559,281,o),
(530,313,cs),
(501,344,o),
(450,371,o),
(366,392,c),
(299,411,o),
(254,431,o),
(225,455,cs),
(196,479,o),
(183,507,o),
(183,542,cs),
(183,594,o),
(207,635,o),
(245,662,cs),
(283,689,o),
(335,703,o),
(394,703,cs),
(457,703,o),
(508,686,o),
(544,656,cs),
(579,626,o),
(599,583,o),
(596,531,c),
(635,531,l),
(638,596,o),
(615,648,o),
(573,684,cs),
(531,720,o),
(470,739,o),
(398,739,cs),
(326,739,o),
(262,723,o),
(216,688,cs),
(170,653,o),
(142,604,o),
(142,539,cs),
(142,495,o),
(157,460,o),
(190,430,cs),
(223,400,o),
(277,377,o),
(353,358,cs),
(433,338,o),
(477,313,o),
(500,286,cs),
(523,259,o),
(527,233,o),
(527,209,cs),
(527,145,o),
(502,101,o),
(462,70,cs),
(421,39,o),
(363,25,o),
(296,25,cs),
(228,25,o),
(169,43,o),
(130,76,cs),
(90,109,o),
(68,159,o),
(72,222,c),
(33,222,l),
(26,151,o),
(49,93,o),
(95,53,cs),
(141,12,o),
(210,-11,o),
(301,-11,cs)
);
}
);
width = 631;
}
);
leftKerningGroup = S2;
rightKerningGroup = S;
unicode = 83;
},
{
glyphname = T;
layers = (
{
layerId = "0A0AAF82-7A3B-4E69-84DB-BE8E4A819DF7";
shapes = (
{
closed = 1;
nodes = (
(369,0,l),
(515,535,l),
(264,535,l),
(117,0,l)
);
},
{
closed = 1;
nodes = (
(699,517,l),
(758,729,l),
(138,729,l),
(79,517,l)
);
}
);
width = 645;
},
{
layerId = "DD839978-B654-4D5F-A0C6-3C33A53FE9CB";
shapes = (
{
closed = 1;
nodes = (
(280,0,l),
(461,655,l),
(363,655,l),
(182,0,l)
);
},
{
closed = 1;
nodes = (
(693,643,l),
(716,729,l),
(149,729,l),
(126,643,l)
);
}
);
width = 610;
},
{
layerId = "3FCCCC1A-F738-479A-AD82-BA541789BD82";
shapes = (
{
closed = 1;
nodes = (
(246,0,l),
(440,702,l),
(402,702,l),
(208,0,l)
);
},
{
closed = 1;
nodes = (
(691,693,l),
(700,729,l),
(154,729,l),
(145,693,l)
);
}
);
width = 596;
}
);
leftKerningGroup = T2;
rightKerningGroup = T;
unicode = 84;
},
{
glyphname = U;
layers = (
{
layerId = "0A0AAF82-7A3B-4E69-84DB-BE8E4A819DF7";
shapes = (
{
closed = 1;
nodes = (
(421,-10,o),
(503,11,o),
(567,56,cs),
(631,100,o),
(678,168,o),
(703,261,cs),
(832,729,l),
(585,729,l),
(469,310,l),
(461,286,o),
(452,261,o),
(436,242,cs),
(420,222,o),
(395,209,o),
(355,209,cs),
(327,209,o),
(306,216,o),
(294,233,cs),
(282,249,o),
(280,275,o),
(289,311,c),
(404,729,l),
(159,729,l),
(45,325,ls),
(18,226,o),
(29,142,o),
(75,83,cs),
(121,24,o),
(205,-10,o),
(326,-10,cs)
);
}
);
width = 743;
},
{
layerId = "DD839978-B654-4D5F-A0C6-3C33A53FE9CB";
shapes = (
{
closed = 1;
nodes = (
(409,-10,o),
(483,12,o),
(540,56,cs),
(596,100,o),
(637,168,o),
(661,259,cs),
(791,729,l),
(694,729,l),
(569,279,ls),
(549,207,o),
(520,157,o),
(481,125,cs),
(441,92,o),
(391,77,o),
(331,77,cs),
(264,77,o),
(215,98,o),
(185,135,cs),
(155,172,o),
(147,227,o),
(166,294,cs),
(287,729,l),
(191,729,l),
(70,299,ls),
(45,207,o),
(54,131,o),
(97,76,cs),
(140,21,o),
(215,-10,o),
(318,-10,cs)
);
}
);
width = 728;
},
{
layerId = "3FCCCC1A-F738-479A-AD82-BA541789BD82";
shapes = (
{
closed = 1;
nodes = (
(404,-10,o),
(475,12,o),
(529,57,cs),
(583,101,o),
(620,169,o),
(645,258,cs),
(775,729,l),
(737,729,l),
(608,267,ls),
(584,176,o),
(547,115,o),
(499,78,cs),
(450,41,o),
(390,25,o),
(321,25,cs),
(240,25,o),
(178,51,o),
(142,97,cs),
(105,143,o),
(96,208,o),
(117,287,cs),
(240,729,l),
(204,729,l),
(79,289,ls),
(55,201,o),
(65,126,o),
(106,74,cs),
(147,21,o),
(220,-10,o),
(315,-10,cs)
);
}
);
width = 722;
}
);
leftKerningGroup = U2;
rightKerningGroup = U;
unicode = 85;
},
{
glyphname = V;
layers = (
{
layerId = "0A0AAF82-7A3B-4E69-84DB-BE8E4A819DF7";
shapes = (
{
closed = 1;
nodes = (
(488,0,l),
(932,729,l),
(646,729,l),
(479,414,l),
(391,241,l),
(382,241,l),
(367,410,l),
(384,729,l),
(125,729,l),
(177,0,l)
);
}
);
width = 807;
},
{
layerId = "DD839978-B654-4D5F-A0C6-3C33A53FE9CB";
shapes = (
{
closed = 1;
nodes = (
(354,0,l),
(842,729,l),
(729,729,l),
(366,165,l),
(316,94,l),
(310,94,l),
(312,163,l),
(247,729,l),
(147,729,l),
(229,0,l)
);
}
);
width = 733;
},
{
layerId = "3FCCCC1A-F738-479A-AD82-BA541789BD82";
shapes = (
{
closed = 1;
nodes = (
(302,0,l),
(807,729,l),
(762,729,l),
(321,66,l),
(287,36,l),
(282,36,l),
(290,66,l),
(193,729,l),
(156,729,l),
(250,0,l)
);
}
);
width = 704;
}
);
unicode = 86;
},
{
glyphname = W;
layers = (
{
layerId = "0A0AAF82-7A3B-4E69-84DB-BE8E4A819DF7";
shapes = (
{
closed = 1;
nodes = (
(415,0,l),
(484,193,l),
(549,338,l),
(557,338,l),
(539,193,l),
(500,0,l),
(838,0,l),
(1175,729,l),
(899,729,l),
(785,425,l),
(728,277,l),
(719,277,l),
(748,431,l),
(798,729,l),
(509,729,l),
(397,425,l),
(338,280,l),
(327,280,l),
(356,421,l),
(402,729,l),
(130,729,l),
(70,0,l)
);
}
);
width = 1054;
},
{
layerId = "DD839978-B654-4D5F-A0C6-3C33A53FE9CB";
shapes = (
{
closed = 1;
nodes = (
(260,0,l),
(518,479,l),
(585,591,l),
(591,591,l),
(583,472,l),
(587,0,l),
(718,0,l),
(1099,729,l),
(991,729,l),
(770,300,l),
(678,110,l),
(671,110,l),
(676,290,l),
(682,729,l),
(563,729,l),
(323,286,l),
(229,111,l),
(222,111,l),
(233,312,l),
(253,729,l),
(152,729,l),
(126,0,l)
);
}
);
width = 995;
},
{
layerId = "3FCCCC1A-F738-479A-AD82-BA541789BD82";
shapes = (
{
closed = 1;
nodes = (
(198,0,l),
(532,592,l),
(599,690,l),
(604,690,l),
(600,583,l),
(622,0,l),
(671,0,l),
(1068,729,l),
(1028,729,l),
(765,250,l),
(659,44,l),
(652,44,l),
(648,235,l),
(637,729,l),
(584,729,l),
(294,231,l),
(186,45,l),
(181,45,l),
(185,269,l),
(194,729,l),
(161,729,l),
(148,0,l)
);
}
);
width = 971;
}
);
leftKerningGroup = W2;
rightKerningGroup = W;
unicode = 87;
},
{
glyphname = X;
layers = (
{
layerId = "0A0AAF82-7A3B-4E69-84DB-BE8E4A819DF7";
shapes = (
{
closed = 1;
nodes = (
(218,0,l),
(319,101,l),
(413,201,l),
(419,201,l),
(459,103,l),
(494,0,l),
(781,0,l),
(623,368,l),
(987,729,l),
(679,729,l),
(606,651,l),
(518,555,l),
(512,555,l),
(480,646,l),
(461,729,l),
(174,729,l),
(316,399,l),
(-77,0,l)
);
}
);
width = 857;
},
{
layerId = "DD839978-B654-4D5F-A0C6-3C33A53FE9CB";
shapes = (
{
closed = 1;
nodes = (
(62,0,l),
(306,252,l),
(372,317,l),
(375,317,l),
(402,249,l),
(509,0,l),
(621,0,l),
(454,379,l),
(798,729,l),
(675,729,l),
(476,520,l),
(411,453,l),
(409,453,l),
(385,514,l),
(295,729,l),
(184,729,l),
(332,395,l),
(-57,0,l)
);
}
);
width = 712;
},
{
layerId = "3FCCCC1A-F738-479A-AD82-BA541789BD82";
shapes = (
{
closed = 1;
nodes = (
(1,0,l),
(301,311,l),
(355,362,l),
(357,362,l),
(379,307,l),
(515,0,l),
(558,0,l),
(387,384,l),
(724,729,l),
(673,729,l),
(425,468,l),
(369,414,l),
(368,413,l),
(348,462,l),
(229,729,l),
(188,729,l),
(338,393,l),
(-49,0,l)
);
}
);
width = 654;
}
);
unicode = 88;
},
{
glyphname = Y;
layers = (
{
layerId = "0A0AAF82-7A3B-4E69-84DB-BE8E4A819DF7";
shapes = (
{
closed = 1;
nodes = (
(447,0,l),
(517,250,l),
(924,729,l),
(627,729,l),
(535,608,l),
(445,483,l),
(435,483,l),
(408,609,l),
(395,729,l),
(123,729,l),
(267,264,l),
(196,0,l)
);
}
);
width = 795;
},
{
layerId = "DD839978-B654-4D5F-A0C6-3C33A53FE9CB";
shapes = (
{
closed = 1;
nodes = (
(312,0,l),
(390,282,l),
(791,729,l),
(672,729,l),
(450,474,l),
(364,376,l),
(358,376,l),
(332,474,l),
(248,729,l),
(144,729,l),
(293,290,l),
(214,0,l)
);
}
);
width = 679;
},
{
layerId = "3FCCCC1A-F738-479A-AD82-BA541789BD82";
shapes = (
{
closed = 1;
nodes = (
(259,0,l),
(340,295,l),
(739,729,l),
(690,729,l),
(416,421,l),
(332,334,l),
(327,334,l),
(302,420,l),
(189,729,l),
(152,729,l),
(304,300,l),
(221,0,l)
);
}
);
width = 633;
}
);
leftKerningGroup = Y2;
rightKerningGroup = Y;
unicode = 89;
},
{
glyphname = Z;
layers = (
{
layerId = "0A0AAF82-7A3B-4E69-84DB-BE8E4A819DF7";
shapes = (
{
closed = 1;
nodes = (
(556,0,l),
(613,209,l),
(333,209,l),
(694,540,l),
(748,729,l),
(168,729,l),
(110,518,l),
(360,518,l),
(1,192,l),
(-53,0,l)
);
}
);
width = 657;
},
{
layerId = "DD839978-B654-4D5F-A0C6-3C33A53FE9CB";
shapes = (
{
closed = 1;
nodes = (
(528,0,l),
(551,86,l),
(113,86,l),
(696,653,l),
(718,729,l),
(173,729,l),
(150,644,l),
(561,644,l),
(-23,77,l),
(-45,0,l)
);
}
);
width = 629;
},
{
layerId = "3FCCCC1A-F738-479A-AD82-BA541789BD82";
shapes = (
{
closed = 1;
nodes = (
(517,0,l),
(526,37,l),
(26,37,l),
(698,698,l),
(706,729,l),
(175,729,l),
(166,693,l),
(640,693,l),
(-32,32,l),
(-42,0,l)
);
}
);
width = 618;
}
);
leftKerningGroup = Z2;
rightKerningGroup = Z;
unicode = 90;
},
{
glyphname = bracketleft;
layers = (
{
layerId = "0A0AAF82-7A3B-4E69-84DB-BE8E4A819DF7";
shapes = (
{
closed = 1;
nodes = (
(256,-167,l),
(306,9,l),
(195,9,l),
(364,616,l),
(475,616,l),
(524,793,l),
(196,793,l),
(-72,-167,l)
);
}
);
width = 404;
},
{
layerId = "DD839978-B654-4D5F-A0C6-3C33A53FE9CB";
shapes = (
{
closed = 1;
nodes = (
(205,-167,l),
(226,-94,l),
(71,-94,l),
(297,720,l),
(453,720,l),
(473,793,l),
(231,793,l),
(-37,-167,l)
);
}
);
width = 358;
},
{
layerId = "3FCCCC1A-F738-479A-AD82-BA541789BD82";
shapes = (
{
closed = 1;
nodes = (
(185,-167,l),
(194,-135,l),
(22,-135,l),
(270,761,l),
(444,761,l),
(453,793,l),
(245,793,l),
(-24,-167,l)
);
}
);
width = 340;
}
);
unicode = 91;
},
{
glyphname = backslash;
layers = (
{
layerId = "0A0AAF82-7A3B-4E69-84DB-BE8E4A819DF7";
shapes = (
{
closed = 1;
nodes = (
(383,-82,l),
(323,729,l),
(108,729,l),
(172,-82,l)
);
}
);
width = 464;
},
{
layerId = "DD839978-B654-4D5F-A0C6-3C33A53FE9CB";
shapes = (
{
closed = 1;
nodes = (
(309,-81,l),
(203,729,l),
(119,729,l),
(223,-81,l)
);
}
);
width = 394;
},
{
layerId = "3FCCCC1A-F738-479A-AD82-BA541789BD82";
shapes = (
{
closed = 1;
nodes = (
(279,-81,l),
(155,729,l),
(123,729,l),
(243,-81,l)
);
}
);
width = 366;
}
);
unicode = 92;
},
{
glyphname = bracketright;
layers = (
{
layerId = "0A0AAF82-7A3B-4E69-84DB-BE8E4A819DF7";
shapes = (
{
closed = 1;
nodes = (
(168,793,l),
(118,617,l),
(229,617,l),
(60,10,l),
(-51,10,l),
(-100,-167,l),
(228,-167,l),
(496,793,l)
);
}
);
width = 404;
},
{
layerId = "DD839978-B654-4D5F-A0C6-3C33A53FE9CB";
shapes = (
{
closed = 1;
nodes = (
(181,793,l),
(160,720,l),
(315,720,l),
(89,-94,l),
(-67,-94,l),
(-88,-167,l),
(154,-167,l),
(422,793,l)
);
}
);
width = 358;
},
{
layerId = "3FCCCC1A-F738-479A-AD82-BA541789BD82";
shapes = (
{
closed = 1;
nodes = (
(186,793,l),
(177,761,l),
(348,761,l),
(100,-135,l),
(-74,-135,l),
(-83,-167,l),
(125,-167,l),
(394,793,l)
);
}
);
width = 340;
}
);
unicode = 93;
},
{
glyphname = asciicircum;
layers = (
{
layerId = "0A0AAF82-7A3B-4E69-84DB-BE8E4A819DF7";
shapes = (
{
closed = 1;
nodes = (
(306,466,l),
(398,556,l),
(436,466,l),
(609,466,l),
(513,729,l),
(377,729,l),
(135,466,l)
);
}
);
width = 636;
},
{
layerId = "DD839978-B654-4D5F-A0C6-3C33A53FE9CB";
shapes = (
{
closed = 1;
nodes = (
(275,473,l),
(429,654,l),
(480,473,l),
(557,473,l),
(480,729,l),
(415,729,l),
(196,473,l)
);
}
);
width = 636;
},
{
layerId = "3FCCCC1A-F738-479A-AD82-BA541789BD82";
shapes = (
{
closed = 1;
nodes = (
(263,475,l),
(441,693,l),
(497,475,l),
(536,475,l),
(467,729,l),
(430,729,l),
(220,475,l)
);
}
);
width = 636;
}
);
unicode = 94;
},
{
glyphname = underscore;
layers = (
{
layerId = "0A0AAF82-7A3B-4E69-84DB-BE8E4A819DF7";
shapes = (
{
closed = 1;
nodes = (
(319,-192,l),
(373,0,l),
(-44,0,l),
(-100,-192,l)
);
}
);
width = 477;
},
{
layerId = "DD839978-B654-4D5F-A0C6-3C33A53FE9CB";
shapes = (
{
closed = 1;
nodes = (
(328,-77,l),
(350,0,l),
(-24,0,l),
(-46,-77,l)
);
}
);
width = 471;
},
{
layerId = "3FCCCC1A-F738-479A-AD82-BA541789BD82";
shapes = (
{
closed = 1;
nodes = (
(332,-32,l),
(341,0,l),
(-16,0,l),
(-25,-32,l)
);
}
);
width = 468;
}
);
unicode = 95;
},
{
glyphname = a;
layers = (
{
layerId = "0A0AAF82-7A3B-4E69-84DB-BE8E4A819DF7";
shapes = (
{
closed = 1;
nodes = (
(268,-10,o),
(316,14,o),
(340,47,c),
(349,47,l),
(341,0,l),
(576,0,l),
(728,551,l),
(494,551,l),
(463,472,l),
(457,472,l),
(433,532,o),
(362,562,o),
(301,562,cs),
(220,562,o),
(157,530,o),
(110,479,cs),
(62,428,o),
(31,360,o),
(18,285,c),
(5,200,o),
(16,125,o),
(48,73,cs),
(80,20,o),
(134,-10,o),
(201,-10,cs)
);
},
{
closed = 1;
nodes = (
(304,178,o),
(284,188,o),
(272,208,cs),
(260,227,o),
(256,256,o),
(263,295,c),
(271,319,o),
(282,339,o),
(298,352,cs),
(313,365,o),
(332,373,o),
(353,372,c),
(377,372,o),
(397,360,o),
(407,344,cs),
(417,328,o),
(419,307,o),
(412,286,c),
(402,249,l),
(394,229,o),
(387,211,o),
(376,199,cs),
(364,186,o),
(349,178,o),
(325,178,cs)
);
}
);
width = 697;
},
{
layerId = "DD839978-B654-4D5F-A0C6-3C33A53FE9CB";
shapes = (
{
closed = 1;
nodes = (
(301,-10,o),
(371,21,o),
(408,54,c),
(412,54,l),
(394,0,l),
(485,0,l),
(631,527,l),
(542,527,l),
(509,436,l),
(503,436,l),
(482,491,o),
(405,536,o),
(323,536,cs),
(240,536,o),
(172,504,o),
(123,448,cs),
(74,392,o),
(44,312,o),
(39,217,cs),
(35,149,o),
(51,93,o),
(84,53,c),
(116,12,o),
(165,-10,o),
(225,-10,cs)
);
},
{
closed = 1;
nodes = (
(223,67,o),
(190,82,o),
(167,110,cs),
(144,137,o),
(133,175,o),
(136,223,cs),
(140,291,o),
(161,351,o),
(195,392,cs),
(229,433,o),
(277,458,o),
(336,458,cs),
(389,458,o),
(430,438,o),
(453,403,cs),
(476,367,o),
(481,316,o),
(464,255,cs),
(452,214,ls),
(439,167,o),
(415,131,o),
(384,106,cs),
(352,81,o),
(311,67,o),
(266,67,cs)
);
}
);
width = 627;
},
{
layerId = "3FCCCC1A-F738-479A-AD82-BA541789BD82";
shapes = (
{
closed = 1;
nodes = (
(315,-11,o),
(392,24,o),
(440,99,c),
(443,99,l),
(415,0,l),
(449,0,l),
(592,517,l),
(561,517,l),
(522,381,l),
(516,381,l),
(499,473,o),
(424,526,o),
(332,526,cs),
(249,526,o),
(179,494,o),
(129,436,cs),
(79,378,o),
(48,293,o),
(47,190,cs),
(47,130,o),
(65,80,o),
(98,45,c),
(130,9,o),
(178,-11,o),
(234,-11,cs)
);
},
{
closed = 1;
nodes = (
(191,23,o),
(153,41,o),
(126,71,cs),
(99,101,o),
(86,143,o),
(87,194,c),
(87,279,o),
(112,355,o),
(154,408,cs),
(196,460,o),
(256,492,o),
(329,492,cs),
(394,492,o),
(443,469,o),
(471,426,c),
(498,382,o),
(505,319,o),
(485,243,c),
(472,200,l),
(457,144,o),
(427,100,o),
(387,70,cs),
(347,40,o),
(297,23,o),
(242,23,cs)
);
}
);
width = 600;
}
);
leftKerningGroup = a2;
rightKerningGroup = a;
unicode = 97;
},
{
glyphname = b;
layers = (
{
layerId = "0A0AAF82-7A3B-4E69-84DB-BE8E4A819DF7";
shapes = (
{
closed = 1;
nodes = (
(477,-11,o),
(541,22,o),
(589,75,cs),
(637,127,o),
(666,197,o),
(677,273,cs),
(690,357,o),
(677,429,o),
(645,481,cs),
(613,532,o),
(562,561,o),
(493,561,cs),
(430,561,o),
(381,536,o),
(356,503,c),
(347,504,l),
(410,729,l),
(169,729,l),
(-31,0,l),
(203,0,l),
(234,79,l),
(240,79,l),
(259,19,o),
(336,-11,o),
(394,-11,cs)
);
},
{
closed = 1;
nodes = (
(320,179,o),
(301,190,o),
(291,206,cs),
(281,222,o),
(278,244,o),
(285,265,c),
(294,302,l),
(301,322,o),
(308,340,o),
(320,353,cs),
(332,365,o),
(348,373,o),
(371,373,cs),
(394,373,o),
(413,364,o),
(424,345,cs),
(435,325,o),
(440,297,o),
(432,258,c),
(425,234,o),
(414,214,o),
(398,200,cs),
(382,186,o),
(364,179,o),
(345,179,cs)
);
}
);
width = 696;
},
{
layerId = "DD839978-B654-4D5F-A0C6-3C33A53FE9CB";
shapes = (
{
closed = 1;
nodes = (
(387,-10,o),
(457,24,o),
(506,81,cs),
(555,137,o),
(584,219,o),
(588,315,cs),
(591,382,o),
(574,436,o),
(542,476,cs),
(510,515,o),
(461,537,o),
(402,537,cs),
(326,537,o),
(263,506,o),
(224,473,c),
(221,473,l),
(292,729,l),
(198,729,l),
(-4,0,l),
(86,0,l),
(119,90,l),
(124,90,l),
(145,38,o),
(222,-10,o),
(303,-10,cs)
);
},
{
closed = 1;
nodes = (
(238,68,o),
(198,88,o),
(175,124,c),
(151,159,o),
(146,211,o),
(163,272,cs),
(175,313,ls),
(188,358,o),
(211,396,o),
(243,421,cs),
(275,445,o),
(315,460,o),
(362,460,cs),
(403,460,o),
(436,445,o),
(459,418,cs),
(482,391,o),
(493,354,o),
(490,307,c),
(489,240,o),
(469,181,o),
(435,138,cs),
(401,94,o),
(352,68,o),
(291,68,cs)
);
}
);
width = 627;
},
{
layerId = "3FCCCC1A-F738-479A-AD82-BA541789BD82";
shapes = (
{
closed = 1;
nodes = (
(352,-9,o),
(422,24,o),
(473,83,cs),
(524,142,o),
(552,227,o),
(552,331,cs),
(552,391,o),
(533,439,o),
(501,474,cs),
(469,509,o),
(421,528,o),
(366,528,cs),
(285,528,o),
(208,492,o),
(159,419,c),
(158,419,l),
(245,729,l),
(209,729,l),
(7,0,l),
(39,0,l),
(80,136,l),
(84,136,l),
(101,44,o),
(175,-9,o),
(267,-9,cs)
);
},
{
closed = 1;
nodes = (
(206,25,o),
(157,48,o),
(129,92,cs),
(101,135,o),
(94,198,o),
(114,275,c),
(128,317,l),
(144,373,o),
(173,418,o),
(213,448,cs),
(253,478,o),
(303,494,o),
(358,494,cs),
(407,494,o),
(446,478,o),
(473,448,cs),
(500,418,o),
(513,377,o),
(513,326,cs),
(513,243,o),
(490,168,o),
(449,113,cs),
(408,58,o),
(347,25,o),
(270,25,cs)
);
}
);
width = 600;
}
);
leftKerningGroup = b2;
rightKerningGroup = b;
unicode = 98;
},
{
glyphname = c;
layers = (
{
layerId = "0A0AAF82-7A3B-4E69-84DB-BE8E4A819DF7";
shapes = (
{
closed = 1;
nodes = (
(375,-9,o),
(447,14,o),
(500,54,cs),
(553,93,o),
(587,148,o),
(598,215,c),
(367,215,l),
(360,199,o),
(352,189,o),
(341,184,cs),
(330,179,o),
(320,177,o),
(309,177,cs),
(292,177,o),
(276,183,o),
(268,194,cs),
(260,205,o),
(255,222,o),
(258,242,c),
(261,285,o),
(270,319,o),
(283,341,cs),
(296,363,o),
(314,374,o),
(337,374,cs),
(352,374,o),
(362,370,o),
(371,362,cs),
(379,354,o),
(383,343,o),
(382,327,c),
(617,327,l),
(616,398,o),
(588,456,o),
(541,497,cs),
(493,537,o),
(424,561,o),
(344,561,cs),
(256,561,o),
(184,539,o),
(130,497,cs),
(76,455,o),
(39,394,o),
(23,318,c),
(4,217,o),
(23,135,o),
(70,79,cs),
(117,23,o),
(194,-9,o),
(290,-9,cs)
);
}
);
width = 624;
},
{
layerId = "DD839978-B654-4D5F-A0C6-3C33A53FE9CB";
shapes = (
{
closed = 1;
nodes = (
(327,-11,o),
(389,9,o),
(437,42,cs),
(484,75,o),
(519,124,o),
(534,181,c),
(442,181,l),
(430,145,o),
(407,116,o),
(377,97,cs),
(347,77,o),
(309,66,o),
(269,66,cs),
(226,66,o),
(192,79,o),
(168,103,cs),
(144,127,o),
(132,165,o),
(132,210,cs),
(133,277,o),
(151,340,o),
(186,386,cs),
(221,432,o),
(271,461,o),
(338,461,cs),
(378,461,o),
(411,449,o),
(436,429,c),
(460,408,o),
(475,379,o),
(476,343,c),
(567,343,l),
(567,399,o),
(545,449,o),
(506,483,cs),
(466,517,o),
(410,537,o),
(345,537,cs),
(253,537,o),
(178,502,o),
(126,447,cs),
(74,391,o),
(44,314,o),
(39,233,cs),
(34,158,o),
(54,98,o),
(92,56,cs),
(130,14,o),
(188,-11,o),
(260,-11,cs)
);
}
);
width = 585;
},
{
layerId = "3FCCCC1A-F738-479A-AD82-BA541789BD82";
shapes = (
{
closed = 1;
nodes = (
(308,-11,o),
(366,6,o),
(412,38,cs),
(458,69,o),
(492,114,o),
(508,167,c),
(471,167,l),
(458,124,o),
(429,87,o),
(391,62,cs),
(353,37,o),
(306,22,o),
(253,22,cs),
(200,22,o),
(159,39,o),
(129,68,cs),
(99,97,o),
(83,141,o),
(83,198,cs),
(83,274,o),
(105,348,o),
(148,403,cs),
(191,458,o),
(255,495,o),
(339,495,cs),
(387,495,o),
(430,481,o),
(462,455,cs),
(493,429,o),
(510,393,o),
(513,349,c),
(547,349,l),
(548,400,o),
(527,445,o),
(492,477,cs),
(456,509,o),
(405,528,o),
(345,528,cs),
(252,528,o),
(176,488,o),
(125,427,cs),
(73,366,o),
(46,283,o),
(46,199,cs),
(46,135,o),
(65,83,o),
(100,47,cs),
(135,10,o),
(187,-11,o),
(248,-11,cs)
);
}
);
width = 570;
}
);
leftKerningGroup = c2;
rightKerningGroup = c;
unicode = 99;
},
{
glyphname = d;
layers = (
{
layerId = "0A0AAF82-7A3B-4E69-84DB-BE8E4A819DF7";
shapes = (
{
closed = 1;
nodes = (
(262,-10,o),
(312,14,o),
(339,47,c),
(347,46,l),
(340,0,l),
(574,0,l),
(775,729,l),
(533,729,l),
(462,472,l),
(456,472,l),
(437,531,o),
(358,561,o),
(301,561,cs),
(220,561,o),
(157,530,o),
(110,479,cs),
(62,427,o),
(31,360,o),
(18,285,cs),
(3,198,o),
(15,125,o),
(48,73,cs),
(80,20,o),
(132,-10,o),
(201,-10,cs)
);
},
{
closed = 1;
nodes = (
(302,177,o),
(282,187,o),
(271,207,cs),
(259,227,o),
(255,257,o),
(263,294,c),
(271,318,o),
(283,338,o),
(299,352,cs),
(314,366,o),
(333,373,o),
(353,372,c),
(378,372,o),
(396,360,o),
(406,344,cs),
(416,328,o),
(418,308,o),
(411,285,cs),
(401,249,l),
(394,228,o),
(386,210,o),
(375,198,cs),
(363,185,o),
(348,177,o),
(325,177,cs)
);
}
);
width = 693;
},
{
layerId = "DD839978-B654-4D5F-A0C6-3C33A53FE9CB";
shapes = (
{
closed = 1;
nodes = (
(300,-10,o),
(372,19,o),
(409,54,c),
(414,54,l),
(397,0,l),
(486,0,l),
(687,729,l),
(593,729,l),
(512,435,l),
(508,435,l),
(485,490,o),
(407,536,o),
(323,536,cs),
(240,536,o),
(172,504,o),
(123,448,cs),
(74,392,o),
(44,312,o),
(39,217,cs),
(35,150,o),
(51,93,o),
(84,53,cs),
(116,13,o),
(165,-10,o),
(225,-10,cs)
);
},
{
closed = 1;
nodes = (
(221,67,o),
(188,82,o),
(166,110,cs),
(144,137,o),
(132,175,o),
(136,223,c),
(139,291,o),
(160,351,o),
(194,392,cs),
(228,433,o),
(277,458,o),
(334,458,cs),
(389,458,o),
(429,438,o),
(452,403,cs),
(475,367,o),
(480,316,o),
(464,255,c),
(452,214,ls),
(439,169,o),
(416,132,o),
(384,107,cs),
(352,82,o),
(312,67,o),
(264,67,cs)
);
}
);
width = 628;
},
{
layerId = "3FCCCC1A-F738-479A-AD82-BA541789BD82";
shapes = (
{
closed = 1;
nodes = (
(315,-10,o),
(394,22,o),
(443,99,c),
(446,99,l),
(419,0,l),
(451,0,l),
(652,729,l),
(616,729,l),
(521,379,l),
(517,379,l),
(500,473,o),
(426,526,o),
(332,526,cs),
(248,526,o),
(179,494,o),
(129,436,cs),
(79,378,o),
(48,294,o),
(47,191,cs),
(47,131,o),
(65,81,o),
(98,46,c),
(130,10,o),
(178,-10,o),
(234,-10,cs)
);
},
{
closed = 1;
nodes = (
(190,24,o),
(151,42,o),
(125,72,cs),
(99,102,o),
(85,143,o),
(85,195,cs),
(86,280,o),
(111,355,o),
(153,408,cs),
(195,461,o),
(254,492,o),
(327,492,cs),
(394,492,o),
(443,468,o),
(471,425,cs),
(498,382,o),
(505,320,o),
(485,243,c),
(472,200,ls),
(456,145,o),
(428,102,o),
(388,71,cs),
(348,40,o),
(298,24,o),
(239,24,cs)
);
}
);
width = 603;
}
);
leftKerningGroup = a2;
rightKerningGroup = d;
unicode = 100;
},
{
glyphname = e;
layers = (
{
layerId = "0A0AAF82-7A3B-4E69-84DB-BE8E4A819DF7";
shapes = (
{
closed = 1;
nodes = (
(380,-10,o),
(447,9,o),
(499,42,cs),
(551,75,o),
(587,124,o),
(602,181,c),
(365,184,l),
(357,172,o),
(341,163,o),
(313,163,cs),
(294,163,o),
(278,166,o),
(266,175,cs),
(254,183,o),
(248,197,o),
(247,216,c),
(611,216,l),
(632,315,o),
(615,400,o),
(568,462,cs),
(520,524,o),
(442,561,o),
(343,561,cs),
(242,561,o),
(159,527,o),
(103,471,cs),
(46,414,o),
(16,335,o),
(17,242,cs),
(17,166,o),
(43,104,o),
(91,60,cs),
(139,15,o),
(212,-10,o),
(304,-10,cs)
);
},
{
closed = 1;
nodes = (
(273,351,l),
(274,362,o),
(281,370,o),
(290,378,cs),
(299,386,o),
(315,390,o),
(336,390,cs),
(353,390,o),
(367,386,o),
(378,378,cs),
(389,370,o),
(394,360,o),
(395,348,c),
(398,351,l),
(268,351,l)
);
}
);
width = 639;
},
{
layerId = "DD839978-B654-4D5F-A0C6-3C33A53FE9CB";
shapes = (
{
closed = 1;
nodes = (
(325,-10,o),
(384,8,o),
(430,38,cs),
(476,68,o),
(510,110,o),
(525,162,c),
(431,163,l),
(407,103,o),
(346,63,o),
(267,63,cs),
(219,63,o),
(181,81,o),
(157,113,cs),
(132,145,o),
(123,191,o),
(130,246,c),
(542,246,l),
(562,331,o),
(552,403,o),
(516,455,cs),
(480,507,o),
(420,537,o),
(337,537,cs),
(252,537,o),
(178,503,o),
(125,447,cs),
(72,390,o),
(40,310,o),
(37,218,cs),
(34,149,o),
(55,93,o),
(95,53,cs),
(134,12,o),
(190,-10,o),
(261,-10,cs)
);
},
{
closed = 1;
nodes = (
(141,297,l),
(154,352,o),
(180,394,o),
(213,423,cs),
(245,451,o),
(287,465,o),
(330,465,cs),
(378,465,o),
(416,448,o),
(439,419,cs),
(462,390,o),
(470,347,o),
(458,296,c),
(471,308,l),
(129,308,l)
);
}
);
width = 587;
},
{
layerId = "3FCCCC1A-F738-479A-AD82-BA541789BD82";
shapes = (
{
closed = 1;
nodes = (
(303,-10,o),
(358,7,o),
(402,36,cs),
(446,64,o),
(479,106,o),
(494,154,c),
(457,154,l),
(428,75,o),
(348,24,o),
(249,24,cs),
(189,24,o),
(142,48,o),
(113,89,cs),
(84,129,o),
(73,189,o),
(85,258,c),
(515,258,l),
(534,337,o),
(527,405,o),
(496,453,cs),
(465,500,o),
(411,528,o),
(335,528,cs),
(256,528,o),
(186,494,o),
(134,437,cs),
(82,380,o),
(49,300,o),
(44,208,cs),
(41,143,o),
(61,89,o),
(96,50,cs),
(131,11,o),
(183,-10,o),
(244,-10,cs)
);
},
{
closed = 1;
nodes = (
(89,276,l),
(106,349,o),
(139,404,o),
(182,440,cs),
(225,476,o),
(276,495,o),
(328,495,cs),
(388,495,o),
(435,474,o),
(463,436,cs),
(491,398,o),
(500,342,o),
(483,275,c),
(501,290,l),
(75,290,l)
);
}
);
width = 567;
}
);
leftKerningGroup = c2;
rightKerningGroup = e;
unicode = 101;
},
{
glyphname = f;
layers = (
{
layerId = "0A0AAF82-7A3B-4E69-84DB-BE8E4A819DF7";
shapes = (
{
closed = 1;
nodes = (
(204,-167,l),
(352,362,l),
(455,362,l),
(506,551,l),
(405,551,l),
(402,535,l),
(406,548,o),
(412,557,o),
(424,562,cs),
(435,567,o),
(450,569,o),
(471,569,cs),
(519,569,l),
(564,729,l),
(407,729,ls),
(336,729,o),
(282,716,o),
(246,689,cs),
(209,662,o),
(185,626,o),
(173,583,c),
(166,551,l),
(87,551,l),
(36,362,l),
(113,362,l),
(-35,-167,l)
);
}
);
width = 440;
},
{
layerId = "DD839978-B654-4D5F-A0C6-3C33A53FE9CB";
shapes = (
{
closed = 1;
nodes = (
(90,-167,l),
(256,450,l),
(371,450,l),
(392,527,l),
(278,527,l),
(299,605,ls),
(304,624,o),
(314,638,o),
(327,647,cs),
(339,655,o),
(355,660,o),
(378,660,cs),
(441,660,l),
(460,729,l),
(360,729,ls),
(320,729,o),
(288,720,o),
(263,703,cs),
(238,685,o),
(221,659,o),
(210,625,c),
(184,527,l),
(90,527,l),
(68,450,l),
(163,450,l),
(-4,-167,l)
);
}
);
width = 337;
},
{
layerId = "3FCCCC1A-F738-479A-AD82-BA541789BD82";
shapes = (
{
closed = 1;
nodes = (
(42,-167,l),
(218,485,l),
(338,485,l),
(347,517,l),
(228,517,l),
(258,632,l),
(265,653,o),
(275,671,o),
(288,681,cs),
(301,691,o),
(318,696,o),
(341,696,cs),
(410,696,l),
(419,729,l),
(341,729,ls),
(314,729,o),
(290,722,o),
(270,709,cs),
(249,695,o),
(234,673,o),
(224,642,c),
(191,517,l),
(91,517,l),
(81,485,l),
(183,485,l),
(5,-167,l)
);
}
);
width = 296;
}
);
leftKerningGroup = f2;
rightKerningGroup = f;
unicode = 102;
},
{
glyphname = g;
layers = (
{
layerId = "0A0AAF82-7A3B-4E69-84DB-BE8E4A819DF7";
shapes = (
{
closed = 1;
nodes = (
(343,-176,o),
(410,-157,o),
(463,-118,cs),
(515,-79,o),
(550,-24,o),
(573,47,c),
(709,551,l),
(485,551,l),
(450,473,l),
(443,473,l),
(415,538,o),
(346,561,o),
(280,561,cs),
(203,561,o),
(137,526,o),
(92,470,cs),
(47,413,o),
(20,333,o),
(19,244,cs),
(18,184,o),
(34,133,o),
(66,98,c),
(97,62,o),
(144,42,o),
(204,42,cs),
(260,42,o),
(310,65,o),
(334,97,c),
(342,97,l),
(323,27,ls),
(318,10,o),
(309,0,o),
(298,-7,cs),
(286,-14,o),
(274,-15,o),
(262,-15,cs),
(247,-15,o),
(235,-16,o),
(225,-13,cs),
(215,-9,o),
(209,-5,o),
(206,4,c),
(-14,4,l),
(-11,-52,o),
(17,-97,o),
(65,-128,cs),
(112,-159,o),
(179,-176,o),
(259,-176,cs)
);
},
{
closed = 1;
nodes = (
(306,211,o),
(292,214,o),
(281,225,cs),
(270,236,o),
(263,250,o),
(264,274,c),
(264,309,o),
(271,338,o),
(286,359,cs),
(301,380,o),
(321,393,o),
(346,393,cs),
(367,393,o),
(385,386,o),
(394,371,cs),
(403,355,o),
(406,334,o),
(399,303,c),
(391,273,l),
(384,252,o),
(377,237,o),
(366,226,cs),
(355,215,o),
(342,211,o),
(321,211,cs)
);
}
);
width = 677;
},
{
layerId = "DD839978-B654-4D5F-A0C6-3C33A53FE9CB";
shapes = (
{
closed = 1;
nodes = (
(290,-177,o),
(346,-157,o),
(389,-122,cs),
(432,-87,o),
(460,-38,o),
(477,22,cs),
(616,527,l),
(528,527,l),
(496,438,l),
(492,438,l),
(472,495,o),
(397,536,o),
(313,536,cs),
(236,536,o),
(167,502,o),
(119,445,cs),
(70,388,o),
(41,308,o),
(40,216,cs),
(39,159,o),
(56,110,o),
(88,77,cs),
(120,44,o),
(167,24,o),
(224,24,cs),
(297,24,o),
(360,57,o),
(395,83,c),
(400,83,l),
(383,23,ls),
(372,-16,o),
(353,-49,o),
(326,-72,cs),
(299,-95,o),
(264,-107,o),
(221,-107,cs),
(182,-107,o),
(149,-99,o),
(124,-83,cs),
(99,-67,o),
(83,-43,o),
(83,-11,c),
(-5,-11,l),
(-6,-62,o),
(15,-102,o),
(54,-131,cs),
(93,-160,o),
(148,-177,o),
(215,-177,cs)
);
},
{
closed = 1;
nodes = (
(226,95,o),
(194,106,o),
(171,129,cs),
(148,152,o),
(136,185,o),
(136,228,cs),
(137,295,o),
(158,354,o),
(193,397,cs),
(228,440,o),
(275,464,o),
(331,464,cs),
(378,464,o),
(417,447,o),
(440,416,cs),
(463,384,o),
(471,339,o),
(458,284,c),
(443,237,l),
(432,196,o),
(410,160,o),
(379,135,cs),
(347,110,o),
(309,95,o),
(265,95,cs)
);
}
);
width = 612;
},
{
layerId = "3FCCCC1A-F738-479A-AD82-BA541789BD82";
shapes = (
{
closed = 1;
nodes = (
(269,-177,o),
(320,-156,o),
(360,-123,cs),
(399,-90,o),
(424,-43,o),
(440,12,cs),
(580,517,l),
(546,517,l),
(508,383,l),
(506,383,l),
(495,476,o),
(415,527,o),
(326,527,cs),
(249,527,o),
(178,493,o),
(129,435,cs),
(80,377,o),
(49,297,o),
(48,205,cs),
(47,149,o),
(65,101,o),
(98,69,c),
(130,36,o),
(176,17,o),
(232,17,cs),
(313,17,o),
(387,55,o),
(432,120,c),
(435,120,l),
(406,21,l),
(393,-28,o),
(369,-69,o),
(337,-98,cs),
(304,-127,o),
(260,-143,o),
(204,-143,cs),
(157,-143,o),
(115,-132,o),
(84,-111,cs),
(53,-90,o),
(34,-58,o),
(34,-17,c),
(-2,-17,l),
(-5,-65,o),
(15,-104,o),
(51,-133,cs),
(86,-161,o),
(137,-177,o),
(198,-177,cs)
);
},
{
closed = 1;
nodes = (
(195,49,o),
(156,64,o),
(128,92,cs),
(100,119,o),
(86,159,o),
(86,210,cs),
(87,290,o),
(115,360,o),
(157,412,cs),
(199,463,o),
(258,493,o),
(325,493,cs),
(382,493,o),
(430,472,o),
(458,434,cs),
(486,396,o),
(497,341,o),
(481,277,c),
(464,222,l),
(451,174,o),
(422,131,o),
(383,100,cs),
(344,68,o),
(295,49,o),
(243,49,cs)
);
}
);
width = 586;
}
);
leftKerningGroup = g2;
rightKerningGroup = g;
unicode = 103;
},
{
glyphname = h;
layers = (
{
layerId = "0A0AAF82-7A3B-4E69-84DB-BE8E4A819DF7";
shapes = (
{
closed = 1;
nodes = (
(210,0,l),
(294,305,ls),
(301,330,o),
(311,347,o),
(324,358,cs),
(336,369,o),
(352,372,o),
(368,372,cs),
(387,372,o),
(399,365,o),
(406,350,cs),
(413,335,o),
(413,313,o),
(405,284,cs),
(327,0,l),
(568,0,l),
(656,299,l),
(683,402,o),
(669,466,o),
(637,506,cs),
(605,546,o),
(556,561,o),
(511,561,cs),
(457,561,o),
(385,532,o),
(351,489,c),
(344,489,l),
(409,729,l),
(169,729,l),
(-31,0,l)
);
}
);
width = 677;
},
{
layerId = "DD839978-B654-4D5F-A0C6-3C33A53FE9CB";
shapes = (
{
closed = 1;
nodes = (
(90,0,l),
(171,300,l),
(186,351,o),
(212,391,o),
(246,419,cs),
(280,446,o),
(320,460,o),
(364,460,cs),
(411,460,o),
(443,444,o),
(460,414,cs),
(476,384,o),
(478,339,o),
(462,280,cs),
(384,0,l),
(478,0,l),
(558,286,ls),
(582,369,o),
(576,432,o),
(549,474,cs),
(521,516,o),
(472,537,o),
(411,537,cs),
(335,537,o),
(261,499,o),
(220,468,c),
(213,468,l),
(291,729,l),
(197,729,l),
(-4,0,l)
);
}
);
width = 608;
},
{
layerId = "3FCCCC1A-F738-479A-AD82-BA541789BD82";
shapes = (
{
closed = 1;
nodes = (
(43,0,l),
(123,298,ls),
(140,359,o),
(173,410,o),
(215,443,cs),
(257,476,o),
(309,494,o),
(362,494,cs),
(419,494,o),
(460,475,o),
(481,439,cs),
(502,403,o),
(504,348,o),
(484,279,cs),
(406,0,l),
(442,0,l),
(520,281,l),
(543,356,o),
(538,417,o),
(513,461,cs),
(488,504,o),
(440,528,o),
(372,528,cs),
(286,528,o),
(213,488,o),
(163,418,c),
(156,418,l),
(245,729,l),
(208,729,l),
(7,0,l)
);
}
);
width = 580;
}
);
leftKerningGroup = b2;
rightKerningGroup = h;
unicode = 104;
},
{
glyphname = k;
layers = (
{
layerId = "0A0AAF82-7A3B-4E69-84DB-BE8E4A819DF7";
shapes = (
{
closed = 1;
nodes = (
(210,0,l),
(248,135,l),
(299,180,l),
(317,125,l),
(363,0,l),
(624,0,l),
(498,313,l),
(778,551,l),
(483,551,l),
(358,428,l),
(317,389,l),
(411,729,l),
(170,729,l),
(-31,0,l)
);
}
);
width = 698;
},
{
layerId = "DD839978-B654-4D5F-A0C6-3C33A53FE9CB";
shapes = (
{
closed = 1;
nodes = (
(91,0,l),
(137,165,l),
(267,265,l),
(288,210,l),
(372,0,l),
(477,0,l),
(345,319,l),
(614,527,l),
(491,527,l),
(238,331,l),
(166,273,l),
(293,729,l),
(198,729,l),
(-4,0,l)
);
}
);
width = 564;
},
{
layerId = "3FCCCC1A-F738-479A-AD82-BA541789BD82";
shapes = (
{
closed = 1;
nodes = (
(44,0,l),
(93,177,l),
(255,299,l),
(277,244,l),
(376,0,l),
(419,0,l),
(285,321,l),
(549,517,l),
(495,517,l),
(191,293,l),
(107,227,l),
(246,729,l),
(209,729,l),
(7,0,l)
);
}
);
width = 511;
}
);
leftKerningGroup = b2;
rightKerningGroup = k;
unicode = 107;
},
{
glyphname = m;
layers = (
{
layerId = "0A0AAF82-7A3B-4E69-84DB-BE8E4A819DF7";
shapes = (
{
closed = 1;
nodes = (
(210,0,l),
(297,307,ls),
(305,335,o),
(315,352,o),
(327,361,cs),
(339,369,o),
(354,372,o),
(367,372,cs),
(390,372,o),
(401,359,o),
(405,342,cs),
(408,325,o),
(404,299,o),
(397,274,cs),
(319,0,l),
(561,0,l),
(646,310,l),
(653,333,o),
(662,349,o),
(674,358,cs),
(686,367,o),
(699,372,o),
(714,372,cs),
(737,372,o),
(749,360,o),
(753,343,cs),
(757,326,o),
(753,301,o),
(746,274,c),
(667,0,l),
(909,0,l),
(998,311,ls),
(1019,386,o),
(1015,448,o),
(988,492,cs),
(960,536,o),
(910,561,o),
(842,561,cs),
(770,561,o),
(699,523,o),
(659,464,c),
(650,464,l),
(642,531,o),
(565,561,o),
(506,561,cs),
(447,561,o),
(384,529,o),
(353,489,c),
(345,489,l),
(355,551,l),
(122,551,l),
(-31,0,l)
);
}
);
width = 1018;
},
{
layerId = "DD839978-B654-4D5F-A0C6-3C33A53FE9CB";
shapes = (
{
closed = 1;
nodes = (
(92,0,l),
(173,296,ls),
(188,349,o),
(213,390,o),
(245,418,cs),
(277,445,o),
(317,460,o),
(358,460,cs),
(402,460,o),
(434,444,o),
(450,414,cs),
(465,384,o),
(466,339,o),
(450,280,cs),
(371,0,l),
(466,0,l),
(548,300,l),
(563,351,o),
(587,390,o),
(619,418,cs),
(650,445,o),
(688,460,o),
(732,460,cs),
(777,460,o),
(808,444,o),
(825,413,cs),
(841,382,o),
(841,338,o),
(826,281,cs),
(747,0,l),
(841,0,l),
(923,293,ls),
(946,372,o),
(941,433,o),
(914,474,cs),
(887,515,o),
(840,537,o),
(777,537,cs),
(668,537,o),
(605,511,o),
(549,442,c),
(541,442,l),
(531,496,o),
(484,537,o),
(405,537,cs),
(332,537,o),
(262,500,o),
(222,467,c),
(216,467,l),
(232,527,l),
(143,527,l),
(-3,0,l)
);
}
);
width = 971;
},
{
layerId = "3FCCCC1A-F738-479A-AD82-BA541789BD82";
shapes = (
{
closed = 1;
nodes = (
(45,0,l),
(123,292,l),
(142,355,o),
(173,405,o),
(213,440,cs),
(253,475,o),
(303,494,o),
(355,494,cs),
(407,494,o),
(447,477,o),
(468,442,cs),
(488,407,o),
(491,354,o),
(471,282,cs),
(392,0,l),
(429,0,l),
(510,296,ls),
(526,357,o),
(557,406,o),
(597,441,cs),
(636,476,o),
(684,494,o),
(739,494,cs),
(794,494,o),
(832,476,o),
(853,441,c),
(873,405,o),
(876,353,o),
(857,284,cs),
(778,0,l),
(814,0,l),
(894,286,ls),
(917,366,o),
(911,426,o),
(885,467,cs),
(859,508,o),
(812,528,o),
(752,528,cs),
(657,528,o),
(572,476,o),
(528,391,c),
(521,391,l),
(513,481,o),
(455,528,o),
(366,528,cs),
(286,528,o),
(214,489,o),
(165,417,c),
(160,417,l),
(183,517,l),
(151,517,l),
(8,0,l)
);
}
);
width = 952;
}
);
leftKerningGroup = m;
rightKerningGroup = h;
unicode = 109;
},
{
glyphname = n;
layers = (
{
layerId = "0A0AAF82-7A3B-4E69-84DB-BE8E4A819DF7";
shapes = (
{
closed = 1;
nodes = (
(210,0,l),
(295,306,l),
(300,329,o),
(311,345,o),
(323,357,cs),
(335,368,o),
(351,372,o),
(368,372,cs),
(387,372,o),
(400,365,o),
(407,350,cs),
(414,335,o),
(414,313,o),
(406,284,cs),
(328,0,l),
(569,0,l),
(656,299,l),
(683,402,o),
(670,466,o),
(638,506,cs),
(606,546,o),
(556,561,o),
(512,561,cs),
(458,561,o),
(385,532,o),
(351,489,c),
(343,489,l),
(353,551,l),
(120,551,l),
(-31,0,l)
);
}
);
width = 677;
},
{
layerId = "DD839978-B654-4D5F-A0C6-3C33A53FE9CB";
shapes = (
{
closed = 1;
nodes = (
(91,0,l),
(171,298,l),
(186,349,o),
(212,389,o),
(245,417,cs),
(278,445,o),
(320,460,o),
(364,460,cs),
(411,460,o),
(444,444,o),
(461,414,cs),
(477,384,o),
(479,339,o),
(462,280,cs),
(384,0,l),
(478,0,l),
(558,286,ls),
(582,369,o),
(576,432,o),
(549,474,cs),
(521,516,o),
(472,537,o),
(412,537,cs),
(337,537,o),
(284,530,o),
(221,468,c),
(215,468,l),
(230,527,l),
(143,527,l),
(-4,0,l)
);
}
);
width = 608;
},
{
layerId = "3FCCCC1A-F738-479A-AD82-BA541789BD82";
shapes = (
{
closed = 1;
nodes = (
(44,0,l),
(123,294,ls),
(139,355,o),
(172,407,o),
(214,441,cs),
(256,475,o),
(307,494,o),
(362,494,cs),
(421,494,o),
(460,475,o),
(481,439,cs),
(502,403,o),
(504,348,o),
(484,279,cs),
(407,0,l),
(443,0,l),
(520,281,l),
(543,356,o),
(538,417,o),
(513,461,cs),
(488,504,o),
(440,528,o),
(373,528,cs),
(287,528,o),
(214,488,o),
(164,418,c),
(159,418,l),
(181,517,l),
(151,517,l),
(7,0,l)
);
}
);
width = 580;
}
);
leftKerningGroup = m;
rightKerningGroup = h;
unicode = 110;
},
{
glyphname = o;
layers = (
{
layerId = "0A0AAF82-7A3B-4E69-84DB-BE8E4A819DF7";
shapes = (
{
closed = 1;
nodes = (
(384,-9,o),
(458,14,o),
(513,57,cs),
(568,100,o),
(603,160,o),
(618,235,cs),
(637,334,o),
(618,415,o),
(571,472,cs),
(524,528,o),
(448,561,o),
(349,561,cs),
(258,561,o),
(185,536,o),
(130,495,cs),
(75,454,o),
(39,391,o),
(23,319,c),
(4,220,o),
(23,138,o),
(70,81,cs),
(117,24,o),
(193,-9,o),
(292,-9,cs)
);
},
{
closed = 1;
nodes = (
(289,177,o),
(277,182,o),
(269,194,c),
(260,205,o),
(255,221,o),
(258,242,c),
(261,279,o),
(267,313,o),
(280,337,cs),
(292,361,o),
(312,376,o),
(337,376,cs),
(352,376,o),
(365,370,o),
(373,359,cs),
(381,348,o),
(384,332,o),
(383,312,cs),
(380,273,o),
(374,240,o),
(362,216,cs),
(349,192,o),
(332,177,o),
(305,177,cs)
);
}
);
width = 641;
},
{
layerId = "DD839978-B654-4D5F-A0C6-3C33A53FE9CB";
shapes = (
{
closed = 1;
nodes = (
(348,-10,o),
(421,22,o),
(474,76,cs),
(527,130,o),
(560,206,o),
(564,297,c),
(569,369,o),
(552,430,o),
(514,472,cs),
(476,514,o),
(418,537,o),
(345,537,cs),
(257,537,o),
(182,506,o),
(129,452,cs),
(76,398,o),
(44,320,o),
(39,231,cs),
(34,159,o),
(54,99,o),
(92,57,cs),
(130,15,o),
(188,-10,o),
(261,-10,cs)
);
},
{
closed = 1;
nodes = (
(225,66,o),
(190,79,o),
(167,104,cs),
(143,129,o),
(129,168,o),
(132,217,c),
(135,289,o),
(156,350,o),
(192,394,cs),
(227,437,o),
(277,461,o),
(337,461,cs),
(380,461,o),
(415,447,o),
(439,422,cs),
(463,397,o),
(475,358,o),
(474,310,c),
(470,239,o),
(449,178,o),
(414,135,cs),
(378,91,o),
(328,66,o),
(268,66,cs)
);
}
);
width = 604;
},
{
layerId = "3FCCCC1A-F738-479A-AD82-BA541789BD82";
shapes = (
{
closed = 1;
nodes = (
(333,-11,o),
(406,24,o),
(459,83,cs),
(511,142,o),
(543,225,o),
(543,322,cs),
(543,383,o),
(525,435,o),
(491,471,cs),
(457,507,o),
(407,528,o),
(343,528,cs),
(256,528,o),
(182,494,o),
(130,435,cs),
(77,375,o),
(46,293,o),
(46,197,cs),
(46,134,o),
(65,83,o),
(100,47,cs),
(135,10,o),
(185,-11,o),
(248,-11,cs)
);
},
{
closed = 1;
nodes = (
(200,22,o),
(155,38,o),
(126,69,cs),
(97,100,o),
(81,147,o),
(82,208,c),
(85,293,o),
(112,364,o),
(157,415,cs),
(201,466,o),
(264,495,o),
(337,495,cs),
(390,495,o),
(434,478,o),
(465,447,cs),
(496,415,o),
(512,369,o),
(509,310,cs),
(506,225,o),
(479,154,o),
(435,103,cs),
(390,52,o),
(328,22,o),
(253,22,cs)
);
}
);
width = 590;
}
);
leftKerningGroup = c2;
rightKerningGroup = o;
unicode = 111;
},
{
glyphname = p;
layers = (
{
layerId = "0A0AAF82-7A3B-4E69-84DB-BE8E4A819DF7";
shapes = (
{
closed = 1;
nodes = (
(163,-167,l),
(231,79,l),
(237,79,l),
(257,20,o),
(334,-10,o),
(391,-10,cs),
(472,-10,o),
(536,21,o),
(584,73,cs),
(631,124,o),
(662,191,o),
(674,266,cs),
(689,353,o),
(676,426,o),
(644,479,cs),
(612,531,o),
(560,561,o),
(491,561,cs),
(430,561,o),
(379,537,o),
(354,504,c),
(347,505,l),
(354,551,l),
(119,551,l),
(-79,-167,l)
);
},
{
closed = 1;
nodes = (
(315,180,o),
(297,191,o),
(287,207,cs),
(277,223,o),
(275,245,o),
(282,266,c),
(291,301,ls),
(303,344,o),
(321,373,o),
(368,373,cs),
(391,373,o),
(409,364,o),
(421,344,cs),
(433,324,o),
(437,296,o),
(429,257,c),
(422,233,o),
(410,214,o),
(394,200,cs),
(378,186,o),
(359,179,o),
(340,179,c)
);
}
);
width = 693;
},
{
layerId = "DD839978-B654-4D5F-A0C6-3C33A53FE9CB";
shapes = (
{
closed = 1;
nodes = (
(45,-167,l),
(116,91,l),
(121,91,l),
(143,37,o),
(223,-10,o),
(305,-10,cs),
(386,-10,o),
(456,23,o),
(505,79,cs),
(554,135,o),
(584,214,o),
(589,309,cs),
(593,377,o),
(577,434,o),
(545,474,cs),
(512,514,o),
(463,537,o),
(403,537,cs),
(327,537,o),
(256,507,o),
(219,472,c),
(214,472,l),
(231,527,l),
(142,527,l),
(-49,-167,l)
);
},
{
closed = 1;
nodes = (
(240,69,o),
(200,89,o),
(177,124,cs),
(153,159,o),
(148,209,o),
(164,272,c),
(176,312,l),
(201,404,o),
(268,460,o),
(364,460,cs),
(407,460,o),
(441,445,o),
(463,418,cs),
(485,390,o),
(495,352,o),
(492,304,cs),
(489,236,o),
(470,177,o),
(435,135,cs),
(400,93,o),
(352,68,o),
(293,68,c)
);
}
);
width = 628;
},
{
layerId = "3FCCCC1A-F738-479A-AD82-BA541789BD82";
shapes = (
{
closed = 1;
nodes = (
(-2,-167,l),
(82,138,l),
(86,138,l),
(103,45,o),
(178,-9,o),
(270,-9,cs),
(354,-9,o),
(425,24,o),
(474,82,cs),
(523,140,o),
(554,224,o),
(555,327,cs),
(556,387,o),
(537,437,o),
(505,473,c),
(472,508,o),
(424,528,o),
(368,528,cs),
(287,528,o),
(208,497,o),
(160,417,c),
(157,417,l),
(183,517,l),
(151,517,l),
(-38,-167,l)
);
},
{
closed = 1;
nodes = (
(210,25,o),
(161,48,o),
(133,92,cs),
(105,135,o),
(97,197,o),
(117,274,c),
(131,316,l),
(162,428,o),
(247,494,o),
(363,494,cs),
(414,494,o),
(453,477,o),
(479,446,cs),
(505,415,o),
(518,374,o),
(517,323,cs),
(516,236,o),
(493,162,o),
(451,110,cs),
(409,57,o),
(348,25,o),
(275,25,cs)
);
}
);
width = 602;
}
);
leftKerningGroup = m;
rightKerningGroup = b;
unicode = 112;
},
{
glyphname = q;
layers = (
{
layerId = "0A0AAF82-7A3B-4E69-84DB-BE8E4A819DF7";
shapes = (
{
closed = 1;
nodes = (
(529,-167,l),
(728,551,l),
(495,551,l),
(463,472,l),
(457,472,l),
(433,532,o),
(362,562,o),
(301,562,cs),
(220,562,o),
(157,530,o),
(110,479,cs),
(62,428,o),
(31,360,o),
(18,285,c),
(5,200,o),
(16,125,o),
(49,73,cs),
(81,20,o),
(134,-10,o),
(202,-10,cs),
(267,-10,o),
(316,14,o),
(340,47,c),
(349,47,l),
(289,-167,l)
);
},
{
closed = 1;
nodes = (
(304,178,o),
(284,188,o),
(272,208,cs),
(260,227,o),
(256,256,o),
(263,295,c),
(271,319,o),
(282,339,o),
(298,352,cs),
(313,365,o),
(332,373,o),
(353,372,c),
(377,372,o),
(397,360,o),
(407,344,cs),
(417,328,o),
(417,307,o),
(412,286,cs),
(403,249,l),
(395,229,o),
(387,211,o),
(376,199,cs),
(364,186,o),
(349,178,o),
(325,178,cs)
);
}
);
width = 697;
},
{
layerId = "DD839978-B654-4D5F-A0C6-3C33A53FE9CB";
shapes = (
{
closed = 1;
nodes = (
(439,-167,l),
(630,527,l),
(542,527,l),
(513,436,l),
(508,436,l),
(480,491,o),
(407,536,o),
(323,536,cs),
(240,536,o),
(172,504,o),
(123,448,cs),
(74,392,o),
(44,312,o),
(39,217,cs),
(35,149,o),
(51,93,o),
(84,53,c),
(116,12,o),
(165,-10,o),
(225,-10,cs),
(301,-10,o),
(369,21,o),
(403,54,c),
(406,54,l),
(344,-167,l)
);
},
{
closed = 1;
nodes = (
(224,67,o),
(190,82,o),
(167,110,cs),
(144,137,o),
(133,175,o),
(136,223,cs),
(140,291,o),
(161,351,o),
(195,392,cs),
(229,433,o),
(277,458,o),
(336,458,cs),
(389,458,o),
(429,438,o),
(452,403,cs),
(475,367,o),
(480,316,o),
(464,255,c),
(452,214,l),
(440,167,o),
(416,131,o),
(384,106,cs),
(352,81,o),
(312,67,o),
(265,67,cs)
);
}
);
width = 627;
},
{
layerId = "3FCCCC1A-F738-479A-AD82-BA541789BD82";
shapes = (
{
closed = 1;
nodes = (
(403,-167,l),
(592,517,l),
(560,517,l),
(520,381,l),
(515,381,l),
(500,474,o),
(423,526,o),
(332,526,cs),
(248,526,o),
(179,494,o),
(129,436,cs),
(79,378,o),
(48,293,o),
(47,190,cs),
(47,130,o),
(65,80,o),
(98,45,c),
(130,9,o),
(177,-11,o),
(234,-11,cs),
(314,-11,o),
(392,24,o),
(440,99,c),
(442,99,l),
(366,-167,l)
);
},
{
closed = 1;
nodes = (
(191,23,o),
(153,41,o),
(126,71,cs),
(99,101,o),
(86,143,o),
(87,194,c),
(87,279,o),
(112,355,o),
(154,408,cs),
(196,460,o),
(256,492,o),
(329,492,cs),
(394,492,o),
(443,469,o),
(471,426,c),
(498,382,o),
(505,319,o),
(485,243,c),
(471,200,l),
(458,144,o),
(427,100,o),
(387,70,cs),
(347,40,o),
(297,23,o),
(242,23,cs)
);
}
);
width = 600;
}
);
leftKerningGroup = a2;
rightKerningGroup = a;
unicode = 113;
},
{
glyphname = r;
layers = (
{
layerId = "0A0AAF82-7A3B-4E69-84DB-BE8E4A819DF7";
shapes = (
{
closed = 1;
nodes = (
(207,0,l),
(256,163,l),
(271,230,o),
(295,272,o),
(320,297,cs),
(344,321,o),
(372,330,o),
(396,330,cs),
(412,330,o),
(428,327,o),
(439,322,c),
(503,559,l),
(490,562,o),
(477,562,o),
(464,562,cs),
(415,562,o),
(358,521,o),
(333,464,c),
(324,464,l),
(337,551,l),
(121,551,l),
(-31,0,l)
);
}
);
width = 441;
},
{
layerId = "DD839978-B654-4D5F-A0C6-3C33A53FE9CB";
shapes = (
{
closed = 1;
nodes = (
(90,0,l),
(171,287,l),
(188,340,o),
(215,380,o),
(247,406,cs),
(279,432,o),
(317,443,o),
(353,443,cs),
(372,443,o),
(390,442,o),
(401,435,c),
(427,528,l),
(416,532,o),
(398,535,o),
(378,535,cs),
(309,535,o),
(244,492,o),
(207,428,c),
(203,428,l),
(225,527,l),
(143,527,l),
(-4,0,l)
);
}
);
width = 372;
},
{
layerId = "3FCCCC1A-F738-479A-AD82-BA541789BD82";
shapes = (
{
closed = 1;
nodes = (
(43,0,l),
(138,336,l),
(155,384,o),
(184,423,o),
(219,449,cs),
(254,475,o),
(295,488,o),
(336,488,cs),
(356,488,o),
(377,485,o),
(386,480,c),
(398,516,l),
(387,520,o),
(367,524,o),
(344,524,cs),
(268,524,o),
(199,481,o),
(158,414,c),
(155,414,l),
(181,517,l),
(151,517,l),
(7,0,l)
);
}
);
width = 344;
}
);
leftKerningGroup = m;
rightKerningGroup = r;
unicode = 114;
},
{
glyphname = s;
layers = (
{
layerId = "0A0AAF82-7A3B-4E69-84DB-BE8E4A819DF7";
shapes = (
{
closed = 1;
nodes = (
(344,-10,o),
(417,11,o),
(467,49,cs),
(517,87,o),
(541,140,o),
(541,208,cs),
(541,253,o),
(528,286,o),
(500,310,cs),
(471,334,o),
(426,350,o),
(365,361,c),
(334,368,o),
(316,369,o),
(307,373,cs),
(298,376,o),
(295,379,o),
(295,383,cs),
(295,395,o),
(305,402,o),
(321,402,cs),
(329,402,o),
(336,400,o),
(342,396,cs),
(348,391,o),
(350,384,o),
(350,379,c),
(573,379,l),
(578,438,o),
(558,482,o),
(515,514,cs),
(472,545,o),
(410,561,o),
(327,561,cs),
(244,561,o),
(173,540,o),
(124,503,cs),
(75,466,o),
(47,412,o),
(47,341,cs),
(47,296,o),
(62,264,o),
(93,240,cs),
(124,216,o),
(166,201,o),
(222,189,c),
(251,184,o),
(267,182,o),
(278,179,cs),
(289,176,o),
(291,174,o),
(291,171,cs),
(291,150,o),
(273,149,o),
(260,149,cs),
(245,149,o),
(233,152,o),
(225,157,cs),
(217,161,o),
(214,168,o),
(215,180,c),
(-17,180,l),
(-20,123,o),
(2,75,o),
(47,43,cs),
(91,10,o),
(158,-10,o),
(245,-10,cs)
);
}
);
width = 578;
},
{
layerId = "DD839978-B654-4D5F-A0C6-3C33A53FE9CB";
shapes = (
{
closed = 1;
nodes = (
(296,-10,o),
(354,6,o),
(393,36,cs),
(432,66,o),
(453,110,o),
(453,166,cs),
(453,206,o),
(439,236,o),
(412,257,cs),
(385,278,o),
(347,292,o),
(296,303,c),
(253,314,o),
(223,322,o),
(204,334,cs),
(184,346,o),
(176,361,o),
(176,384,cs),
(176,436,o),
(217,468,o),
(284,468,cs),
(324,468,o),
(357,459,o),
(378,443,cs),
(399,426,o),
(410,402,o),
(409,373,c),
(499,373,l),
(503,424,o),
(483,464,o),
(447,492,cs),
(410,520,o),
(356,537,o),
(289,537,cs),
(225,537,o),
(173,520,o),
(137,492,cs),
(101,463,o),
(80,421,o),
(80,369,cs),
(80,333,o),
(93,307,o),
(120,285,cs),
(147,263,o),
(187,246,o),
(242,233,c),
(283,222,o),
(312,214,o),
(330,202,cs),
(348,190,o),
(355,175,o),
(355,151,cs),
(355,95,o),
(316,59,o),
(229,59,cs),
(184,59,o),
(150,69,o),
(127,89,c),
(103,108,o),
(92,135,o),
(96,168,c),
(5,168,l),
(1,115,o),
(19,71,o),
(56,40,c),
(92,8,o),
(150,-10,o),
(223,-10,cs)
);
}
);
width = 520;
},
{
layerId = "3FCCCC1A-F738-479A-AD82-BA541789BD82";
shapes = (
{
closed = 1;
nodes = (
(278,-10,o),
(329,4,o),
(364,31,cs),
(399,58,o),
(418,98,o),
(418,149,cs),
(418,188,o),
(402,216,o),
(377,236,cs),
(352,256,o),
(314,270,o),
(269,281,cs),
(221,292,o),
(186,304,o),
(163,320,cs),
(140,335,o),
(129,355,o),
(129,384,cs),
(129,453,o),
(183,494,o),
(270,494,cs),
(322,494,o),
(364,482,o),
(393,461,cs),
(421,440,o),
(435,410,o),
(432,371,c),
(469,371,l),
(473,418,o),
(454,457,o),
(419,484,cs),
(384,511,o),
(335,527,o),
(274,527,cs),
(218,527,o),
(174,512,o),
(143,487,cs),
(111,462,o),
(94,424,o),
(94,380,cs),
(94,348,o),
(106,323,o),
(131,302,cs),
(155,281,o),
(195,263,o),
(250,250,cs),
(297,238,o),
(329,227,o),
(350,212,cs),
(371,196,o),
(380,175,o),
(380,144,cs),
(380,72,o),
(333,23,o),
(216,23,cs),
(160,23,o),
(116,37,o),
(88,62,c),
(59,86,o),
(45,120,o),
(49,164,c),
(14,164,l),
(9,112,o),
(26,69,o),
(59,38,cs),
(92,7,o),
(146,-10,o),
(214,-10,cs)
);
}
);
width = 497;
}
);
leftKerningGroup = s2;
rightKerningGroup = s;
unicode = 115;
},
{
glyphname = t;
layers = (
{
layerId = "0A0AAF82-7A3B-4E69-84DB-BE8E4A819DF7";
shapes = (
{
closed = 1;
nodes = (
(358,0,l),
(412,196,l),
(344,196,ls),
(332,196,o),
(325,198,o),
(321,202,cs),
(317,206,o),
(316,213,o),
(319,221,c),
(359,362,l),
(459,362,l),
(511,551,l),
(411,551,l),
(454,705,l),
(210,678,l),
(174,551,l),
(89,551,l),
(35,362,l),
(122,362,l),
(71,188,ls),
(55,131,o),
(61,83,o),
(87,51,cs),
(113,19,o),
(160,0,o),
(225,0,cs)
);
}
);
width = 469;
},
{
layerId = "DD839978-B654-4D5F-A0C6-3C33A53FE9CB";
shapes = (
{
closed = 1;
nodes = (
(261,0,l),
(283,79,l),
(232,79,ls),
(208,79,o),
(192,82,o),
(182,91,cs),
(172,100,o),
(170,116,o),
(177,144,c),
(262,450,l),
(387,450,l),
(407,527,l),
(283,527,l),
(330,694,l),
(233,680,l),
(191,527,l),
(90,527,l),
(69,450,l),
(170,450,l),
(81,133,ls),
(69,90,o),
(73,57,o),
(90,34,cs),
(107,11,o),
(139,0,o),
(183,0,cs)
);
}
);
width = 364;
},
{
layerId = "3FCCCC1A-F738-479A-AD82-BA541789BD82";
shapes = (
{
closed = 1;
nodes = (
(223,0,l),
(233,33,l),
(188,33,ls),
(160,33,o),
(138,36,o),
(126,48,cs),
(114,59,o),
(112,78,o),
(121,114,c),
(224,485,l),
(359,485,l),
(367,517,l),
(233,517,l),
(281,690,l),
(243,681,l),
(198,517,l),
(91,517,l),
(83,485,l),
(188,485,l),
(85,111,l),
(76,74,o),
(78,46,o),
(92,28,cs),
(106,10,o),
(131,0,o),
(167,0,cs)
);
}
);
width = 323;
}
);
leftKerningGroup = t2;
rightKerningGroup = t;
unicode = 116;
},
{
glyphname = u;
layers = (
{
layerId = "0A0AAF82-7A3B-4E69-84DB-BE8E4A819DF7";
shapes = (
{
closed = 1;
nodes = (
(228,-10,o),
(286,10,o),
(326,62,c),
(334,62,l),
(327,0,l),
(556,0,l),
(709,551,l),
(467,551,l),
(382,245,l),
(377,222,o),
(370,206,o),
(359,195,cs),
(348,183,o),
(334,178,o),
(313,178,cs),
(293,178,o),
(279,186,o),
(272,202,c),
(264,217,o),
(264,239,o),
(271,266,cs),
(349,551,l),
(109,551,l),
(23,254,l),
(2,173,o),
(3,106,o),
(27,61,cs),
(51,16,o),
(97,-10,o),
(164,-10,cs)
);
}
);
width = 677;
},
{
layerId = "DD839978-B654-4D5F-A0C6-3C33A53FE9CB";
shapes = (
{
closed = 1;
nodes = (
(267,-11,o),
(340,18,o),
(383,59,c),
(387,59,l),
(378,0,l),
(465,0,l),
(611,527,l),
(517,527,l),
(436,229,ls),
(421,177,o),
(396,137,o),
(364,110,cs),
(331,82,o),
(291,67,o),
(244,67,cs),
(199,67,o),
(165,83,o),
(149,113,cs),
(132,143,o),
(130,189,o),
(146,249,cs),
(224,527,l),
(129,527,l),
(49,244,ls),
(26,161,o),
(31,98,o),
(58,55,cs),
(85,11,o),
(132,-11,o),
(196,-11,cs)
);
}
);
width = 608;
},
{
layerId = "3FCCCC1A-F738-479A-AD82-BA541789BD82";
shapes = (
{
closed = 1;
nodes = (
(281,-11,o),
(361,21,o),
(418,100,c),
(421,100,l),
(398,0,l),
(430,0,l),
(572,517,l),
(537,517,l),
(458,222,l),
(439,161,o),
(408,110,o),
(366,76,cs),
(324,42,o),
(273,23,o),
(217,23,cs),
(161,23,o),
(121,41,o),
(101,78,c),
(80,114,o),
(77,169,o),
(97,242,cs),
(174,517,l),
(138,517,l),
(59,240,ls),
(36,157,o),
(43,95,o),
(71,53,cs),
(98,11,o),
(146,-11,o),
(209,-11,cs)
);
}
);
width = 581;
}
);
leftKerningGroup = u;
rightKerningGroup = a;
unicode = 117;
},
{
glyphname = v;
layers = (
{
layerId = "0A0AAF82-7A3B-4E69-84DB-BE8E4A819DF7";
shapes = (
{
closed = 1;
nodes = (
(396,0,l),
(710,551,l),
(458,551,l),
(341,286,l),
(301,192,l),
(293,192,l),
(298,290,l),
(308,551,l),
(72,551,l),
(113,0,l)
);
}
);
width = 634;
},
{
layerId = "DD839978-B654-4D5F-A0C6-3C33A53FE9CB";
shapes = (
{
closed = 1;
nodes = (
(254,0,l),
(598,527,l),
(494,527,l),
(268,156,l),
(221,83,l),
(218,83,l),
(217,159,l),
(181,527,l),
(88,527,l),
(147,0,l)
);
}
);
width = 540;
},
{
layerId = "3FCCCC1A-F738-479A-AD82-BA541789BD82";
shapes = (
{
closed = 1;
nodes = (
(198,0,l),
(553,517,l),
(508,517,l),
(240,105,l),
(189,40,l),
(188,40,l),
(186,108,l),
(132,517,l),
(95,517,l),
(160,0,l)
);
}
);
width = 503;
}
);
unicode = 118;
},
{
glyphname = w;
layers = (
{
layerId = "0A0AAF82-7A3B-4E69-84DB-BE8E4A819DF7";
shapes = (
{
closed = 1;
nodes = (
(336,0,l),
(384,129,l),
(435,267,l),
(442,267,l),
(424,130,l),
(399,0,l),
(705,0,l),
(975,551,l),
(731,551,l),
(654,372,l),
(589,213,l),
(584,213,l),
(607,369,l),
(647,551,l),
(399,551,l),
(329,369,l),
(275,219,l),
(267,219,l),
(282,372,l),
(311,551,l),
(79,551,l),
(39,0,l)
);
}
);
width = 903;
},
{
layerId = "DD839978-B654-4D5F-A0C6-3C33A53FE9CB";
shapes = (
{
closed = 1;
nodes = (
(211,0,l),
(352,270,l),
(427,415,l),
(431,415,l),
(428,267,l),
(426,0,l),
(546,0,l),
(834,527,l),
(737,527,l),
(581,235,l),
(503,88,l),
(500,88,l),
(505,243,l),
(511,527,l),
(410,527,l),
(255,232,l),
(181,89,l),
(177,89,l),
(181,226,l),
(182,527,l),
(93,527,l),
(88,0,l)
);
}
);
width = 780;
},
{
layerId = "3FCCCC1A-F738-479A-AD82-BA541789BD82";
shapes = (
{
closed = 1;
nodes = (
(161,0,l),
(340,325,l),
(423,473,l),
(426,473,l),
(429,321,l),
(437,0,l),
(483,0,l),
(778,517,l),
(739,517,l),
(552,181,l),
(469,39,l),
(466,39,l),
(464,194,l),
(457,517,l),
(414,517,l),
(226,179,l),
(144,38,l),
(141,38,l),
(141,169,l),
(131,517,l),
(99,517,l),
(108,0,l)
);
}
);
width = 732;
}
);
leftKerningGroup = w2;
rightKerningGroup = w;
unicode = 119;
},
{
glyphname = x;
layers = (
{
layerId = "0A0AAF82-7A3B-4E69-84DB-BE8E4A819DF7";
shapes = (
{
closed = 1;
nodes = (
(207,0,l),
(297,104,l),
(321,129,l),
(330,129,l),
(341,104,l),
(392,0,l),
(658,0,l),
(518,279,l),
(792,551,l),
(500,551,l),
(430,468,l),
(408,444,l),
(400,444,l),
(389,468,l),
(359,551,l),
(91,551,l),
(216,306,l),
(-80,0,l)
);
}
);
width = 728;
},
{
layerId = "DD839978-B654-4D5F-A0C6-3C33A53FE9CB";
shapes = (
{
closed = 1;
nodes = (
(53,0,l),
(249,191,l),
(272,214,l),
(277,214,l),
(288,192,l),
(382,0,l),
(487,0,l),
(350,274,l),
(609,527,l),
(493,527,l),
(329,364,l),
(305,341,l),
(300,341,l),
(289,364,l),
(211,527,l),
(107,527,l),
(229,285,l),
(-61,0,l)
);
}
);
width = 572;
},
{
layerId = "3FCCCC1A-F738-479A-AD82-BA541789BD82";
shapes = (
{
closed = 1;
nodes = (
(-7,0,l),
(230,226,l),
(253,247,l),
(256,247,l),
(267,226,l),
(378,0,l),
(420,0,l),
(284,272,l),
(537,517,l),
(490,517,l),
(289,323,l),
(265,300,l),
(261,300,l),
(250,323,l),
(153,517,l),
(113,517,l),
(234,277,l),
(-53,0,l)
);
}
);
width = 510;
}
);
unicode = 120;
},
{
glyphname = y;
layers = (
{
layerId = "0A0AAF82-7A3B-4E69-84DB-BE8E4A819DF7";
shapes = (
{
closed = 1;
nodes = (
(33,-167,ls),
(130,-167,o),
(203,-151,o),
(260,-119,cs),
(316,-86,o),
(360,-36,o),
(400,29,cs),
(710,551,l),
(441,551,l),
(334,310,l),
(316,253,l),
(308,253,l),
(310,311,l),
(311,551,l),
(72,551,l),
(138,16,l),
(146,84,l),
(140,70,l),
(131,55,o),
(119,45,o),
(104,38,cs),
(88,30,o),
(68,27,o),
(48,27,cs),
(-18,27,l),
(-69,-167,l)
);
}
);
width = 634;
},
{
layerId = "DD839978-B654-4D5F-A0C6-3C33A53FE9CB";
shapes = (
{
closed = 1;
nodes = (
(-18,-167,ls),
(35,-167,o),
(76,-161,o),
(112,-143,cs),
(147,-125,o),
(177,-95,o),
(206,-51,cs),
(594,527,l),
(487,527,l),
(318,259,l),
(234,122,l),
(228,122,l),
(214,258,l),
(181,527,l),
(87,527,l),
(166,12,l),
(169,54,l),
(115,-24,l),
(98,-51,o),
(80,-68,o),
(60,-77,c),
(39,-85,o),
(15,-88,o),
(-16,-88,cs),
(-52,-88,l),
(-73,-167,l)
);
}
);
width = 537;
},
{
layerId = "3FCCCC1A-F738-479A-AD82-BA541789BD82";
shapes = (
{
closed = 1;
nodes = (
(-38,-167,ls),
(-2,-167,o),
(26,-164,o),
(54,-152,cs),
(81,-140,o),
(105,-119,o),
(129,-83,c),
(548,517,l),
(505,517,l),
(311,239,l),
(202,71,l),
(197,71,l),
(176,237,l),
(130,517,l),
(94,517,l),
(177,11,l),
(179,42,l),
(106,-61,ls),
(83,-93,o),
(65,-112,o),
(42,-122,cs),
(19,-132,o),
(-6,-134,o),
(-42,-134,cs),
(-65,-134,l),
(-74,-167,l)
);
}
);
width = 498;
}
);
leftKerningGroup = y2;
rightKerningGroup = y;
unicode = 121;
},
{
glyphname = z;
layers = (
{
layerId = "0A0AAF82-7A3B-4E69-84DB-BE8E4A819DF7";
shapes = (
{
closed = 1;
nodes = (
(473,0,l),
(525,189,l),
(317,189,l),
(567,389,l),
(611,551,l),
(120,551,l),
(69,362,l),
(243,362,l),
(-5,167,l),
(-51,0,l)
);
}
);
width = 575;
},
{
layerId = "DD839978-B654-4D5F-A0C6-3C33A53FE9CB";
shapes = (
{
closed = 1;
nodes = (
(409,0,l),
(429,76,l),
(101,76,l),
(524,459,l),
(543,527,l),
(112,527,l),
(91,450,l),
(396,450,l),
(-29,68,l),
(-48,0,l)
);
}
);
width = 509;
},
{
layerId = "3FCCCC1A-F738-479A-AD82-BA541789BD82";
shapes = (
{
closed = 1;
nodes = (
(384,0,l),
(392,32,l),
(16,32,l),
(507,487,l),
(516,517,l),
(109,517,l),
(99,485,l),
(456,485,l),
(-38,29,l),
(-46,0,l)
);
}
);
width = 482;
}
);
leftKerningGroup = z2;
rightKerningGroup = z;
unicode = 122;
},
{
glyphname = braceleft;
layers = (
{
layerId = "0A0AAF82-7A3B-4E69-84DB-BE8E4A819DF7";
shapes = (
{
closed = 1;
nodes = (
(305,-167,l),
(355,9,l),
(243,9,l),
(283,160,ls),
(291,192,o),
(296,222,o),
(289,247,cs),
(282,271,o),
(266,293,o),
(231,308,c),
(233,311,l),
(294,327,o),
(340,360,o),
(365,453,cs),
(411,616,l),
(523,616,l),
(573,793,l),
(395,793,ls),
(344,793,o),
(302,779,o),
(269,750,cs),
(236,721,o),
(214,685,o),
(202,643,cs),
(152,466,ls),
(140,422,o),
(110,390,o),
(69,390,cs),
(44,390,l),
(-6,215,l),
(19,215,ls),
(59,215,o),
(74,186,o),
(62,141,cs),
(18,-17,l),
(7,-60,o),
(8,-96,o),
(25,-124,cs),
(42,-151,o),
(75,-167,o),
(127,-167,cs)
);
}
);
width = 451;
},
{
layerId = "DD839978-B654-4D5F-A0C6-3C33A53FE9CB";
shapes = (
{
closed = 1;
nodes = (
(243,-167,l),
(264,-94,l),
(109,-94,l),
(190,194,l),
(198,225,o),
(199,251,o),
(191,271,cs),
(183,291,o),
(170,305,o),
(147,310,c),
(147,314,l),
(191,319,o),
(235,356,o),
(254,427,cs),
(336,720,l),
(490,720,l),
(511,793,l),
(342,793,ls),
(317,793,o),
(297,786,o),
(282,772,cs),
(266,758,o),
(255,741,o),
(249,720,cs),
(169,431,ls),
(154,378,o),
(117,348,o),
(84,348,cs),
(51,348,l),
(30,272,l),
(63,272,ls),
(95,272,o),
(115,243,o),
(102,190,c),
(23,-94,l),
(18,-114,o),
(18,-133,o),
(26,-146,cs),
(34,-159,o),
(49,-167,o),
(74,-167,cs)
);
}
);
width = 395;
},
{
layerId = "3FCCCC1A-F738-479A-AD82-BA541789BD82";
shapes = (
{
closed = 1;
nodes = (
(218,-167,l),
(227,-135,l),
(57,-135,l),
(153,208,ls),
(161,237,o),
(160,263,o),
(153,281,cs),
(145,299,o),
(131,310,o),
(114,311,c),
(114,315,l),
(149,316,o),
(195,356,o),
(211,417,cs),
(307,761,l),
(477,761,l),
(486,793,l),
(321,793,ls),
(307,793,o),
(296,789,o),
(287,781,cs),
(278,773,o),
(271,763,o),
(268,750,c),
(176,417,ls),
(160,361,o),
(121,331,o),
(90,331,cs),
(54,331,l),
(45,294,l),
(80,294,ls),
(109,294,o),
(133,265,o),
(118,209,cs),
(25,-124,ls),
(22,-136,o),
(22,-147,o),
(26,-155,cs),
(30,-163,o),
(40,-167,o),
(53,-167,cs)
);
}
);
width = 373;
}
);
unicode = 123;
},
{
glyphname = bar;
layers = (
{
layerId = "0A0AAF82-7A3B-4E69-84DB-BE8E4A819DF7";
shapes = (
{
closed = 1;
nodes = (
(174,-67,l),
(396,729,l),
(181,729,l),
(-39,-67,l)
);
}
);
width = 325;
},
{
layerId = "DD839978-B654-4D5F-A0C6-3C33A53FE9CB";
shapes = (
{
closed = 1;
nodes = (
(85,-67,l),
(305,729,l),
(220,729,l),
(-1,-67,l)
);
}
);
width = 266;
},
{
layerId = "3FCCCC1A-F738-479A-AD82-BA541789BD82";
shapes = (
{
closed = 1;
nodes = (
(49,-67,l),
(270,729,l),
(235,729,l),
(14,-67,l)
);
}
);
width = 243;
}
);
unicode = 124;
},
{
glyphname = braceright;
layers = (
{
layerId = "0A0AAF82-7A3B-4E69-84DB-BE8E4A819DF7";
shapes = (
{
closed = 1;
nodes = (
(167,793,l),
(117,617,l),
(229,617,l),
(189,466,ls),
(181,434,o),
(176,404,o),
(183,380,cs),
(190,355,o),
(208,333,o),
(241,318,c),
(239,315,l),
(178,299,o),
(132,266,o),
(107,173,cs),
(61,10,l),
(-51,10,l),
(-101,-167,l),
(78,-167,ls),
(129,-167,o),
(171,-153,o),
(204,-124,cs),
(236,-95,o),
(258,-59,o),
(270,-17,cs),
(320,160,ls),
(332,204,o),
(362,236,o),
(403,236,cs),
(428,236,l),
(478,411,l),
(453,411,ls),
(413,411,o),
(398,440,o),
(410,485,cs),
(454,643,l),
(467,686,o),
(464,722,o),
(447,750,cs),
(430,777,o),
(397,793,o),
(345,793,cs)
);
}
);
width = 451;
},
{
layerId = "DD839978-B654-4D5F-A0C6-3C33A53FE9CB";
shapes = (
{
closed = 1;
nodes = (
(181,793,l),
(160,720,l),
(314,720,l),
(234,432,ls),
(226,401,o),
(224,375,o),
(232,355,cs),
(240,335,o),
(255,321,o),
(276,316,c),
(276,312,l),
(233,307,o),
(188,270,o),
(169,199,cs),
(87,-94,l),
(-67,-94,l),
(-88,-167,l),
(82,-167,ls),
(107,-167,o),
(127,-160,o),
(142,-146,cs),
(157,-132,o),
(168,-115,o),
(174,-94,cs),
(254,195,l),
(270,248,o),
(305,278,o),
(340,278,cs),
(372,278,l),
(393,354,l),
(360,354,ls),
(328,354,o),
(308,383,o),
(321,436,c),
(400,720,l),
(407,740,o),
(406,759,o),
(398,772,cs),
(390,785,o),
(374,793,o),
(349,793,cs)
);
}
);
width = 395;
},
{
layerId = "3FCCCC1A-F738-479A-AD82-BA541789BD82";
shapes = (
{
closed = 1;
nodes = (
(186,793,l),
(177,761,l),
(347,761,l),
(251,418,ls),
(243,389,o),
(244,364,o),
(252,346,cs),
(259,328,o),
(273,316,o),
(290,315,c),
(290,311,l),
(255,310,o),
(209,270,o),
(193,209,cs),
(97,-135,l),
(-73,-135,l),
(-83,-167,l),
(83,-167,ls),
(97,-167,o),
(109,-163,o),
(118,-155,cs),
(127,-147,o),
(133,-137,o),
(136,-124,c),
(228,209,ls),
(244,265,o),
(283,295,o),
(314,295,cs),
(350,295,l),
(359,332,l),
(324,332,ls),
(295,332,o),
(271,361,o),
(286,417,cs),
(379,750,ls),
(382,762,o),
(382,773,o),
(378,781,cs),
(374,789,o),
(366,793,o),
(351,793,cs)
);
}
);
width = 373;
}
);
unicode = 125;
},
{
glyphname = asciitilde;
layers = (
{
layerId = "0A0AAF82-7A3B-4E69-84DB-BE8E4A819DF7";
shapes = (
{
closed = 1;
nodes = (
(185,265,l),
(185,284,o),
(208,311,o),
(237,311,cs),
(262,311,o),
(278,298,o),
(300,283,cs),
(322,268,o),
(348,255,o),
(395,255,cs),
(427,255,o),
(465,266,o),
(499,297,cs),
(533,328,o),
(564,378,o),
(580,455,c),
(491,455,l),
(486,436,o),
(468,410,o),
(425,410,cs),
(397,410,o),
(379,423,o),
(359,436,cs),
(339,449,o),
(317,463,o),
(278,463,cs),
(247,463,o),
(211,453,o),
(177,424,cs),
(143,395,o),
(111,345,o),
(94,265,c)
);
}
);
width = 636;
},
{
layerId = "DD839978-B654-4D5F-A0C6-3C33A53FE9CB";
shapes = (
{
closed = 1;
nodes = (
(152,291,l),
(159,324,o),
(182,349,o),
(211,349,cs),
(235,349,o),
(256,336,o),
(280,324,c),
(303,311,o),
(331,299,o),
(364,299,cs),
(391,299,o),
(420,307,o),
(444,328,cs),
(468,348,o),
(487,382,o),
(498,430,c),
(452,430,l),
(443,394,o),
(419,372,o),
(382,372,cs),
(354,372,o),
(332,384,o),
(309,397,c),
(285,409,o),
(262,421,o),
(231,421,cs),
(206,421,o),
(180,413,o),
(157,393,cs),
(134,372,o),
(115,339,o),
(106,291,c)
);
}
);
width = 636;
},
{
layerId = "3FCCCC1A-F738-479A-AD82-BA541789BD82";
shapes = (
{
closed = 1;
nodes = (
(140,301,l),
(148,341,o),
(172,364,o),
(201,364,cs),
(224,364,o),
(247,352,o),
(272,340,cs),
(296,328,o),
(324,316,o),
(352,316,cs),
(377,316,o),
(402,324,o),
(422,341,cs),
(442,357,o),
(458,384,o),
(466,421,c),
(437,421,l),
(426,377,o),
(400,357,o),
(365,357,cs),
(338,357,o),
(313,369,o),
(289,381,cs),
(264,393,o),
(240,405,o),
(212,405,cs),
(189,405,o),
(168,396,o),
(150,380,cs),
(132,363,o),
(118,337,o),
(110,301,c)
);
}
);
width = 636;
}
);
unicode = 126;
},
{
glyphname = exclamdown;
layers = (
{
layerId = "0A0AAF82-7A3B-4E69-84DB-BE8E4A819DF7";
shapes = (
{
closed = 1;
nodes = (
(104,308,l),
(-21,67,l),
(-88,-178,l),
(146,-178,l),
(213,67,l),
(223,308,l)
);
},
{
closed = 1;
nodes = (
(132,560,o),
(77,517,o),
(77,444,cs),
(77,388,o),
(122,351,o),
(190,351,cs),
(274,351,o),
(330,395,o),
(330,468,cs),
(330,524,o),
(286,560,o),
(217,560,cs)
);
}
);
width = 309;
},
{
layerId = "DD839978-B654-4D5F-A0C6-3C33A53FE9CB";
shapes = (
{
closed = 1;
nodes = (
(114,324,l),
(10,36,l),
(-56,-202,l),
(38,-202,l),
(104,36,l),
(162,324,l)
);
},
{
closed = 1;
nodes = (
(149,534,o),
(124,513,o),
(124,480,cs),
(124,452,o),
(145,433,o),
(176,433,cs),
(213,433,o),
(239,455,o),
(239,488,cs),
(239,516,o),
(218,534,o),
(186,534,cs)
);
}
);
width = 241;
},
{
layerId = "3FCCCC1A-F738-479A-AD82-BA541789BD82";
shapes = (
{
closed = 1;
nodes = (
(118,331,l),
(23,24,l),
(-43,-212,l),
(-5,-212,l),
(62,24,l),
(138,331,l)
);
},
{
closed = 1;
nodes = (
(155,524,o),
(143,513,o),
(143,494,cs),
(143,477,o),
(154,466,o),
(171,466,cs),
(190,466,o),
(203,477,o),
(203,496,cs),
(203,513,o),
(191,524,o),
(174,524,cs)
);
}
);
width = 215;
}
);
unicode = 161;
},
{
glyphname = cent;
layers = (
{
layerId = "0A0AAF82-7A3B-4E69-84DB-BE8E4A819DF7";
shapes = (
{
closed = 1;
nodes = (
(396,80,o),
(468,102,o),
(522,142,cs),
(576,181,o),
(610,236,o),
(621,305,c),
(390,305,l),
(381,289,o),
(372,282,o),
(362,276,cs),
(352,270,o),
(343,269,o),
(331,269,cs),
(318,269,o),
(307,274,o),
(299,283,cs),
(291,291,o),
(285,302,o),
(285,318,c),
(284,338,o),
(287,373,o),
(299,405,cs),
(311,436,o),
(332,461,o),
(365,461,cs),
(376,461,o),
(388,458,o),
(397,450,cs),
(405,442,o),
(411,431,o),
(411,415,c),
(646,415,l),
(653,487,o),
(630,547,o),
(583,588,cs),
(535,628,o),
(464,650,o),
(376,650,cs),
(275,650,o),
(192,616,o),
(136,556,cs),
(79,495,o),
(47,407,o),
(48,299,cs),
(48,226,o),
(74,170,o),
(121,134,cs),
(168,98,o),
(232,80,o),
(311,80,cs)
);
},
{
closed = 1;
nodes = (
(324,0,l),
(373,180,l),
(220,180,l),
(172,0,l)
);
},
{
closed = 1;
nodes = (
(470,536,l),
(523,729,l),
(371,729,l),
(318,536,l)
);
}
);
width = 633;
},
{
layerId = "DD839978-B654-4D5F-A0C6-3C33A53FE9CB";
shapes = (
{
closed = 1;
nodes = (
(363,91,o),
(424,110,o),
(472,143,cs),
(520,176,o),
(556,224,o),
(569,281,c),
(477,281,l),
(465,246,o),
(442,218,o),
(412,199,cs),
(382,179,o),
(345,168,o),
(305,168,cs),
(262,168,o),
(228,181,o),
(205,206,cs),
(181,231,o),
(169,268,o),
(169,316,c),
(172,383,o),
(192,444,o),
(228,489,cs),
(263,533,o),
(313,561,o),
(376,561,cs),
(413,561,o),
(447,550,o),
(472,530,c),
(496,509,o),
(512,481,o),
(513,446,c),
(604,446,l),
(607,502,o),
(586,551,o),
(547,585,cs),
(507,619,o),
(451,639,o),
(383,639,cs),
(295,639,o),
(219,605,o),
(165,548,cs),
(111,491,o),
(77,409,o),
(76,310,cs),
(75,242,o),
(95,186,o),
(134,149,cs),
(173,112,o),
(228,91,o),
(296,91,cs)
);
},
{
closed = 1;
nodes = (
(271,0,l),
(306,133,l),
(239,133,l),
(204,0,l)
);
},
{
closed = 1;
nodes = (
(433,593,l),
(470,729,l),
(403,729,l),
(366,593,l)
);
}
);
width = 607;
},
{
layerId = "3FCCCC1A-F738-479A-AD82-BA541789BD82";
shapes = (
{
closed = 1;
nodes = (
(350,96,o),
(407,114,o),
(453,144,cs),
(499,174,o),
(533,219,o),
(549,272,c),
(512,272,l),
(497,229,o),
(468,193,o),
(431,168,cs),
(394,143,o),
(346,129,o),
(294,129,cs),
(241,129,o),
(198,145,o),
(168,177,cs),
(138,208,o),
(123,255,o),
(124,315,c),
(127,400,o),
(154,473,o),
(199,523,cs),
(244,573,o),
(307,601,o),
(380,601,cs),
(428,601,o),
(470,586,o),
(502,561,cs),
(533,536,o),
(551,499,o),
(554,458,c),
(587,458,l),
(588,509,o),
(568,552,o),
(532,584,cs),
(496,615,o),
(446,634,o),
(386,634,cs),
(302,634,o),
(229,601,o),
(176,545,cs),
(123,489,o),
(90,409,o),
(87,314,cs),
(86,249,o),
(104,194,o),
(140,156,cs),
(175,118,o),
(226,96,o),
(290,96,cs)
);
},
{
closed = 1;
nodes = (
(249,0,l),
(280,114,l),
(247,114,l),
(216,0,l)
);
},
{
closed = 1;
nodes = (
(418,616,l),
(448,729,l),
(415,729,l),
(385,616,l)
);
}
);
width = 597;
}
);
unicode = 162;
},
{
glyphname = sterling;
layers = (
{
layerId = "0A0AAF82-7A3B-4E69-84DB-BE8E4A819DF7";
shapes = (
{
closed = 1;
nodes = (
(593,0,l),
(657,231,l),
(461,231,l),
(453,199,l),
(310,199,l),
(328,262,l),
(466,262,l),
(513,434,l),
(376,434,l),
(389,483,ls),
(396,510,o),
(412,527,o),
(444,527,cs),
(460,527,o),
(470,522,o),
(475,514,cs),
(480,506,o),
(483,495,o),
(480,482,c),
(480,481,l),
(709,481,l),
(710,478,l),
(729,557,o),
(714,621,o),
(670,666,cs),
(626,710,o),
(554,736,o),
(459,736,cs),
(388,736,o),
(323,721,o),
(268,685,cs),
(213,649,o),
(173,594,o),
(149,514,c),
(128,434,l),
(60,434,l),
(12,262,l),
(79,262,l),
(62,199,l),
(-5,199,l),
(-61,0,l)
);
}
);
width = 715;
},
{
layerId = "DD839978-B654-4D5F-A0C6-3C33A53FE9CB";
shapes = (
{
closed = 1;
nodes = (
(507,0,l),
(561,193,l),
(481,193,l),
(450,82,l),
(138,82,l),
(206,321,l),
(426,321,l),
(447,394,l),
(226,394,l),
(261,527,l),
(284,606,o),
(335,652,o),
(416,652,cs),
(465,652,o),
(502,639,o),
(523,612,cs),
(544,585,o),
(550,546,o),
(537,498,c),
(532,482,l),
(623,482,l),
(628,498,l),
(648,570,o),
(637,629,o),
(601,671,cs),
(565,713,o),
(505,736,o),
(424,736,cs),
(363,736,o),
(309,720,o),
(265,688,cs),
(220,656,o),
(187,608,o),
(168,540,cs),
(129,394,l),
(51,394,l),
(30,321,l),
(109,321,l),
(43,82,l),
(-36,82,l),
(-60,0,l)
);
}
);
width = 632;
},
{
layerId = "3FCCCC1A-F738-479A-AD82-BA541789BD82";
shapes = (
{
closed = 1;
nodes = (
(474,0,l),
(524,178,l),
(489,178,l),
(449,36,l),
(71,36,l),
(157,344,l),
(411,344,l),
(422,379,l),
(167,379,l),
(210,545,l),
(239,644,o),
(305,702,o),
(405,702,cs),
(466,702,o),
(514,685,o),
(542,651,cs),
(570,617,o),
(577,567,o),
(560,504,c),
(553,483,l),
(590,483,l),
(596,506,l),
(616,575,o),
(607,632,o),
(575,672,cs),
(542,712,o),
(486,736,o),
(410,736,cs),
(354,736,o),
(303,720,o),
(263,689,cs),
(223,658,o),
(193,612,o),
(176,551,cs),
(130,379,l),
(47,379,l),
(37,344,l),
(121,344,l),
(36,36,l),
(-48,36,l),
(-59,0,l)
);
}
);
width = 599;
}
);
unicode = 163;
},
{
glyphname = currency;
layers = (
{
layerId = "0A0AAF82-7A3B-4E69-84DB-BE8E4A819DF7";
shapes = (
{
closed = 1;
nodes = (
(282,144,l),
(306,143,o),
(330,140,o),
(361,140,cs),
(385,140,o),
(417,141,o),
(442,144,c),
(534,48,l),
(669,180,l),
(585,267,l),
(596,296,o),
(602,324,o),
(603,352,c),
(603,383,o),
(603,409,o),
(591,440,c),
(683,526,l),
(561,658,l),
(458,559,l),
(430,564,o),
(400,566,o),
(381,566,cs),
(361,566,o),
(330,564,o),
(303,559,c),
(210,658,l),
(75,526,l),
(159,440,l),
(148,413,o),
(142,385,o),
(141,352,cs),
(140,329,o),
(138,299,o),
(149,267,c),
(57,180,l),
(180,48,l)
);
},
{
closed = 1;
nodes = (
(360,318,o),
(350,321,o),
(343,326,cs),
(336,331,o),
(333,340,o),
(333,351,cs),
(333,362,o),
(338,370,o),
(346,377,cs),
(353,384,o),
(362,387,o),
(371,387,cs),
(383,387,o),
(392,384,o),
(399,378,cs),
(406,372,o),
(409,363,o),
(409,351,cs),
(409,342,o),
(404,332,o),
(397,327,cs),
(389,322,o),
(380,318,o),
(369,318,cs)
);
}
);
width = 701;
},
{
layerId = "DD839978-B654-4D5F-A0C6-3C33A53FE9CB";
shapes = (
{
closed = 1;
nodes = (
(254,188,l),
(283,169,o),
(320,157,o),
(361,157,cs),
(400,157,o),
(439,168,o),
(470,189,c),
(572,80,l),
(628,133,l),
(529,239,l),
(553,270,o),
(566,310,o),
(569,350,cs),
(572,393,o),
(560,431,o),
(539,463,c),
(648,567,l),
(597,622,l),
(485,512,l),
(454,533,o),
(416,542,o),
(379,542,cs),
(338,542,o),
(301,531,o),
(270,512,c),
(169,622,l),
(113,567,l),
(211,463,l),
(188,432,o),
(172,393,o),
(171,350,c),
(168,309,o),
(179,270,o),
(199,239,c),
(92,133,l),
(143,80,l)
);
},
{
closed = 1;
nodes = (
(330,233,o),
(301,245,o),
(281,266,c),
(260,286,o),
(250,317,o),
(250,350,c),
(253,385,o),
(267,414,o),
(289,435,cs),
(311,456,o),
(340,468,o),
(375,468,cs),
(410,468,o),
(439,456,o),
(460,435,cs),
(480,414,o),
(491,385,o),
(490,350,cs),
(489,317,o),
(474,286,o),
(452,266,cs),
(430,245,o),
(400,233,o),
(365,233,cs)
);
}
);
width = 694;
},
{
layerId = "3FCCCC1A-F738-479A-AD82-BA541789BD82";
shapes = (
{
closed = 1;
nodes = (
(243,205,l),
(275,180,o),
(316,164,o),
(361,164,cs),
(406,164,o),
(449,179,o),
(481,206,c),
(587,93,l),
(613,115,l),
(507,229,l),
(536,260,o),
(553,304,o),
(556,349,cs),
(559,397,o),
(543,440,o),
(519,472,c),
(634,583,l),
(612,607,l),
(496,494,l),
(464,521,o),
(423,533,o),
(378,533,cs),
(330,533,o),
(289,518,o),
(257,494,c),
(153,607,l),
(128,583,l),
(232,472,l),
(204,440,o),
(185,396,o),
(182,349,cs),
(179,301,o),
(195,258,o),
(219,229,c),
(106,115,l),
(129,93,l)
);
},
{
closed = 1;
nodes = (
(319,199,o),
(281,214,o),
(256,242,cs),
(231,269,o),
(217,306,o),
(218,349,c),
(221,393,o),
(238,431,o),
(266,458,cs),
(294,485,o),
(333,501,o),
(376,501,cs),
(420,501,o),
(456,485,o),
(483,458,cs),
(510,431,o),
(524,393,o),
(521,349,c),
(520,306,o),
(501,269,o),
(473,242,cs),
(445,214,o),
(407,199,o),
(363,199,cs)
);
}
);
width = 691;
}
);
unicode = 164;
},
{
glyphname = yen;
layers = (
{
layerId = "0A0AAF82-7A3B-4E69-84DB-BE8E4A819DF7";
shapes = (
{
closed = 1;
nodes = (
(440,0,l),
(457,63,l),
(636,63,l),
(681,220,l),
(501,220,l),
(515,268,l),
(696,268,l),
(737,425,l),
(660,425,l),
(900,729,l),
(615,729,l),
(435,464,l),
(425,464,l),
(398,729,l),
(131,729,l),
(208,425,l),
(129,425,l),
(85,268,l),
(262,268,l),
(249,220,l),
(72,220,l),
(27,63,l),
(205,63,l),
(189,0,l)
);
}
);
width = 781;
},
{
layerId = "DD839978-B654-4D5F-A0C6-3C33A53FE9CB";
shapes = (
{
closed = 1;
nodes = (
(311,0,l),
(348,132,l),
(539,132,l),
(557,200,l),
(367,200,l),
(394,297,l),
(585,297,l),
(603,365,l),
(458,365,l),
(775,729,l),
(660,729,l),
(365,377,l),
(359,377,l),
(260,729,l),
(159,729,l),
(274,365,l),
(128,365,l),
(110,297,l),
(296,297,l),
(269,200,l),
(83,200,l),
(64,132,l),
(250,132,l),
(214,0,l)
);
}
);
width = 677;
},
{
layerId = "3FCCCC1A-F738-479A-AD82-BA541789BD82";
shapes = (
{
closed = 1;
nodes = (
(261,0,l),
(305,159,l),
(501,159,l),
(509,192,l),
(314,192,l),
(346,309,l),
(542,309,l),
(550,342,l),
(378,342,l),
(725,729,l),
(678,729,l),
(337,342,l),
(333,342,l),
(206,729,l),
(170,729,l),
(299,342,l),
(128,342,l),
(120,309,l),
(309,309,l),
(277,192,l),
(87,192,l),
(79,159,l),
(268,159,l),
(224,0,l)
);
}
);
width = 636;
}
);
unicode = 165;
},
{
glyphname = brokenbar;
layers = (
{
layerId = "0A0AAF82-7A3B-4E69-84DB-BE8E4A819DF7";
shapes = (
{
closed = 1;
nodes = (
(297,370,l),
(396,729,l),
(181,729,l),
(84,370,l)
);
},
{
closed = 1;
nodes = (
(174,-67,l),
(274,292,l),
(59,292,l),
(-39,-67,l)
);
}
);
width = 326;
},
{
layerId = "DD839978-B654-4D5F-A0C6-3C33A53FE9CB";
shapes = (
{
closed = 1;
nodes = (
(215,404,l),
(305,729,l),
(220,729,l),
(129,404,l)
);
},
{
closed = 1;
nodes = (
(85,-67,l),
(175,258,l),
(88,258,l),
(-1,-67,l)
);
}
);
width = 266;
},
{
layerId = "3FCCCC1A-F738-479A-AD82-BA541789BD82";
shapes = (
{
closed = 1;
nodes = (
(183,417,l),
(270,729,l),
(235,729,l),
(148,417,l)
);
},
{
closed = 1;
nodes = (
(49,-67,l),
(136,245,l),
(100,245,l),
(14,-67,l)
);
}
);
width = 243;
}
);
unicode = 166;
},
{
glyphname = section;
layers = (
{
layerId = "0A0AAF82-7A3B-4E69-84DB-BE8E4A819DF7";
shapes = (
{
closed = 1;
nodes = (
(343,-10,o),
(402,5,o),
(447,37,cs),
(491,68,o),
(521,113,o),
(521,172,cs),
(521,199,o),
(514,232,o),
(499,256,c),
(555,277,o),
(583,323,o),
(583,376,cs),
(583,411,o),
(571,436,o),
(547,460,cs),
(522,484,o),
(484,505,o),
(432,525,c),
(384,546,o),
(355,558,o),
(355,569,cs),
(355,578,o),
(362,579,o),
(366,579,cs),
(373,579,o),
(385,579,o),
(393,576,c),
(400,572,o),
(406,564,o),
(402,548,c),
(625,548,l),
(626,611,o),
(596,657,o),
(548,689,cs),
(500,721,o),
(435,736,o),
(362,736,cs),
(297,736,o),
(237,720,o),
(193,688,cs),
(149,655,o),
(122,607,o),
(122,546,cs),
(122,522,o),
(130,496,o),
(149,473,c),
(92,446,o),
(58,398,o),
(58,346,cs),
(58,309,o),
(74,280,o),
(101,257,cs),
(128,234,o),
(162,217,o),
(202,201,c),
(237,185,o),
(257,178,o),
(269,172,cs),
(281,166,o),
(284,162,o),
(284,157,cs),
(284,146,o),
(275,147,o),
(272,147,cs),
(259,147,o),
(245,150,o),
(236,155,cs),
(227,159,o),
(221,168,o),
(222,179,c),
(-6,179,l),
(-9,114,o),
(27,66,o),
(82,35,cs),
(137,4,o),
(210,-10,o),
(282,-10,cs)
);
},
{
closed = 1;
nodes = (
(330,352,o),
(307,363,o),
(300,366,c),
(279,378,o),
(280,386,o),
(284,398,c),
(287,391,o),
(282,391,o),
(278,394,c),
(294,386,o),
(310,378,o),
(318,373,c),
(345,360,o),
(350,350,o),
(343,341,c),
(340,345,o),
(342,344,o),
(349,343,c)
);
}
);
width = 584;
},
{
layerId = "DD839978-B654-4D5F-A0C6-3C33A53FE9CB";
shapes = (
{
closed = 1;
nodes = (
(303,-10,o),
(355,5,o),
(392,34,cs),
(429,63,o),
(452,107,o),
(452,162,cs),
(452,187,o),
(444,212,o),
(429,231,c),
(486,258,o),
(517,302,o),
(517,361,cs),
(517,398,o),
(502,426,o),
(478,448,cs),
(453,470,o),
(416,486,o),
(372,499,cs),
(299,522,o),
(258,543,o),
(258,580,cs),
(258,635,o),
(299,668,o),
(364,668,cs),
(401,668,o),
(432,659,o),
(453,643,cs),
(474,626,o),
(484,603,o),
(480,572,c),
(570,572,l),
(573,623,o),
(551,664,o),
(515,692,cs),
(478,720,o),
(427,736,o),
(366,736,cs),
(314,736,o),
(263,723,o),
(226,695,cs),
(189,667,o),
(165,627,o),
(165,572,cs),
(165,543,o),
(172,519,o),
(195,498,c),
(138,471,o),
(101,421,o),
(101,366,cs),
(101,331,o),
(115,304,o),
(140,284,c),
(164,263,o),
(200,248,o),
(245,233,cs),
(285,220,o),
(312,210,o),
(331,198,cs),
(350,185,o),
(358,173,o),
(358,153,cs),
(358,90,o),
(314,58,o),
(241,58,cs),
(200,58,o),
(165,69,o),
(142,88,cs),
(119,107,o),
(108,134,o),
(112,169,c),
(23,169,l),
(19,113,o),
(39,68,o),
(78,37,cs),
(117,6,o),
(174,-10,o),
(243,-10,cs)
);
},
{
closed = 1;
nodes = (
(343,285,o),
(311,297,o),
(282,305,cs),
(219,324,o),
(192,344,o),
(193,381,c),
(193,420,o),
(216,444,o),
(251,464,c),
(272,451,o),
(297,441,o),
(330,432,c),
(394,412,o),
(423,390,o),
(420,347,c),
(420,311,o),
(402,288,o),
(370,269,c)
);
}
);
width = 551;
},
{
layerId = "3FCCCC1A-F738-479A-AD82-BA541789BD82";
shapes = (
{
closed = 1;
nodes = (
(287,-10,o),
(336,5,o),
(371,34,cs),
(406,62,o),
(425,105,o),
(425,158,cs),
(425,183,o),
(416,204,o),
(401,221,c),
(458,250,o),
(490,295,o),
(490,355,cs),
(490,394,o),
(475,422,o),
(450,443,cs),
(425,463,o),
(389,477,o),
(348,489,cs),
(265,512,o),
(220,536,o),
(220,585,cs),
(220,657,o),
(275,703,o),
(363,703,cs),
(411,703,o),
(451,690,o),
(477,669,cs),
(503,648,o),
(515,618,o),
(511,582,c),
(548,582,l),
(551,627,o),
(534,666,o),
(502,693,cs),
(470,720,o),
(424,736,o),
(368,736,cs),
(320,736,o),
(273,724,o),
(239,698,cs),
(205,672,o),
(182,634,o),
(182,582,cs),
(182,551,o),
(191,529,o),
(212,508,c),
(156,481,o),
(118,430,o),
(118,374,cs),
(118,341,o),
(131,314,o),
(155,294,cs),
(179,274,o),
(214,259,o),
(261,246,cs),
(304,234,o),
(334,223,o),
(355,208,cs),
(376,193,o),
(386,176,o),
(386,152,cs),
(386,68,o),
(330,23,o),
(229,23,cs),
(176,23,o),
(133,37,o),
(105,62,cs),
(77,86,o),
(63,121,o),
(68,165,c),
(34,165,l),
(29,113,o),
(44,69,o),
(77,38,cs),
(109,7,o),
(159,-10,o),
(227,-10,cs)
);
},
{
closed = 1;
nodes = (
(349,259,o),
(314,270,o),
(275,281,cs),
(195,302,o),
(156,327,o),
(156,374,cs),
(156,430,o),
(189,466,o),
(240,491,c),
(263,476,o),
(291,467,o),
(334,455,cs),
(414,432,o),
(451,405,o),
(451,349,cs),
(451,298,o),
(425,265,o),
(378,240,c)
);
}
);
width = 538;
}
);
unicode = 167;
},
{
glyphname = copyright;
layers = (
{
layerId = "0A0AAF82-7A3B-4E69-84DB-BE8E4A819DF7";
shapes = (
{
closed = 1;
nodes = (
(576,-9,o),
(673,28,o),
(743,93,cs),
(813,158,o),
(853,252,o),
(853,365,cs),
(853,478,o),
(813,572,o),
(743,637,cs),
(673,702,o),
(576,740,o),
(463,740,cs),
(350,740,o),
(253,702,o),
(183,637,cs),
(113,572,o),
(71,478,o),
(71,365,cs),
(71,252,o),
(113,158,o),
(183,93,cs),
(253,28,o),
(350,-9,o),
(463,-9,cs)
);
},
{
closed = 1;
nodes = (
(375,79,o),
(301,108,o),
(249,158,cs),
(197,208,o),
(167,278,o),
(167,365,cs),
(167,452,o),
(197,524,o),
(249,574,cs),
(301,624,o),
(375,651,o),
(463,651,cs),
(551,651,o),
(623,624,o),
(676,574,cs),
(728,524,o),
(757,452,o),
(757,365,cs),
(757,278,o),
(728,208,o),
(676,158,cs),
(624,108,o),
(551,79,o),
(463,79,cs)
);
},
{
closed = 1;
nodes = (
(526,160,o),
(579,176,o),
(616,205,cs),
(653,233,o),
(676,273,o),
(677,324,c),
(509,324,l),
(505,305,o),
(492,295,o),
(468,295,cs),
(455,295,o),
(443,298,o),
(435,310,cs),
(426,322,o),
(421,339,o),
(421,366,cs),
(421,387,o),
(424,404,o),
(432,416,cs),
(439,428,o),
(451,435,o),
(468,435,cs),
(491,435,o),
(505,424,o),
(508,404,c),
(677,404,l),
(677,451,o),
(657,493,o),
(622,523,cs),
(586,553,o),
(535,570,o),
(471,570,cs),
(403,570,o),
(347,550,o),
(308,515,cs),
(269,480,o),
(247,430,o),
(247,366,cs),
(247,303,o),
(269,253,o),
(306,217,cs),
(343,181,o),
(400,160,o),
(465,160,cs)
);
}
);
width = 876;
},
{
layerId = "DD839978-B654-4D5F-A0C6-3C33A53FE9CB";
shapes = (
{
closed = 1;
nodes = (
(587,-10,o),
(682,28,o),
(750,93,cs),
(817,158,o),
(856,251,o),
(856,364,cs),
(856,476,o),
(817,570,o),
(750,635,cs),
(682,699,o),
(587,737,o),
(475,737,cs),
(363,737,o),
(268,699,o),
(201,635,cs),
(133,570,o),
(94,476,o),
(94,364,cs),
(94,251,o),
(133,158,o),
(201,93,cs),
(268,28,o),
(363,-10,o),
(475,-10,cs)
);
},
{
closed = 1;
nodes = (
(378,38,o),
(294,71,o),
(237,128,cs),
(180,185,o),
(146,267,o),
(146,364,cs),
(146,461,o),
(180,543,o),
(237,600,cs),
(294,657,o),
(378,690,o),
(475,690,cs),
(572,690,o),
(655,657,o),
(713,600,cs),
(771,543,o),
(804,461,o),
(804,364,cs),
(804,267,o),
(770,185,o),
(713,128,cs),
(656,71,o),
(572,38,o),
(475,38,cs)
);
},
{
closed = 1;
nodes = (
(533,160,o),
(578,175,o),
(611,201,cs),
(644,227,o),
(665,263,o),
(669,307,c),
(596,307,l),
(587,252,o),
(542,221,o),
(482,221,cs),
(443,221,o),
(413,234,o),
(391,259,cs),
(369,283,o),
(356,319,o),
(356,363,cs),
(356,406,o),
(368,442,o),
(390,467,cs),
(412,492,o),
(443,506,o),
(483,506,cs),
(536,506,o),
(583,481,o),
(594,426,c),
(667,426,l),
(663,467,o),
(643,503,o),
(612,528,cs),
(580,553,o),
(536,567,o),
(485,567,cs),
(424,567,o),
(372,547,o),
(337,512,cs),
(301,476,o),
(281,424,o),
(281,363,cs),
(281,302,o),
(301,251,o),
(336,216,cs),
(371,180,o),
(421,160,o),
(481,160,cs)
);
}
);
width = 894;
},
{
layerId = "3FCCCC1A-F738-479A-AD82-BA541789BD82";
shapes = (
{
closed = 1;
nodes = (
(592,-10,o),
(687,28,o),
(753,93,cs),
(819,158,o),
(857,251,o),
(857,363,cs),
(857,475,o),
(819,569,o),
(753,634,cs),
(687,698,o),
(592,736,o),
(480,736,cs),
(368,736,o),
(274,698,o),
(207,634,cs),
(140,569,o),
(102,475,o),
(102,363,cs),
(102,251,o),
(140,158,o),
(207,93,cs),
(274,28,o),
(368,-10,o),
(480,-10,cs)
);
},
{
closed = 1;
nodes = (
(379,22,o),
(293,57,o),
(233,117,cs),
(172,176,o),
(137,262,o),
(137,363,cs),
(137,466,o),
(172,550,o),
(233,610,cs),
(293,670,o),
(379,705,o),
(480,705,cs),
(581,705,o),
(667,670,o),
(728,610,cs),
(788,550,o),
(822,466,o),
(822,363,cs),
(822,262,o),
(788,176,o),
(728,117,cs),
(667,57,o),
(581,22,o),
(480,22,cs)
);
},
{
closed = 1;
nodes = (
(536,160,o),
(578,174,o),
(609,199,cs),
(640,223,o),
(661,259,o),
(665,300,c),
(630,300,l),
(619,232,o),
(563,192,o),
(487,192,cs),
(440,192,o),
(400,209,o),
(373,238,cs),
(345,267,o),
(330,310,o),
(330,362,cs),
(330,413,o),
(345,456,o),
(373,487,cs),
(401,518,o),
(440,534,o),
(489,534,cs),
(556,534,o),
(613,502,o),
(628,435,c),
(663,435,l),
(659,474,o),
(638,507,o),
(608,530,cs),
(578,553,o),
(537,566,o),
(490,566,cs),
(431,566,o),
(383,546,o),
(349,510,cs),
(315,474,o),
(295,423,o),
(295,362,cs),
(295,302,o),
(314,251,o),
(347,216,cs),
(380,180,o),
(430,160,o),
(487,160,cs)
);
}
);
width = 901;
}
);
unicode = 169;
},
{
glyphname = ordfeminine;
leftMetricsKey = "=10";
rightMetricsKey = "=13";
layers = (
{
hints = (
{
horizontal = 1;
place = (532,43);
type = Stem;
},
{
horizontal = 1;
place = (620,84);
type = Stem;
},
{
horizontal = 1;
place = (743,119);
type = Stem;
}
);
layerId = "0A0AAF82-7A3B-4E69-84DB-BE8E4A819DF7";
leftMetricsKey = "=4";
rightMetricsKey = "=3";
shapes = (
{
closed = 1;
nodes = (
(212,359,o),
(274,374,o),
(290,407,c),
(297,407,l),
(297,404,ls),
(297,368,o),
(336,359,o),
(367,359,cs),
(388,359,o),
(405,363,o),
(420,367,c),
(443,438,l),
(438,437,o),
(434,437,o),
(431,437,cs),
(420,437,o),
(420,445,o),
(425,461,c),
(457,577,l),
(473,628,o),
(464,669,o),
(432,696,c),
(403,723,o),
(356,737,o),
(299,737,cs),
(206,737,o),
(126,699,o),
(107,595,c),
(237,595,l),
(244,611,o),
(256,618,o),
(281,618,cs),
(295,618,o),
(308,616,o),
(315,611,cs),
(323,606,o),
(325,599,o),
(320,587,c),
(316,579,l),
(222,579,ls),
(135,579,o),
(66,537,o),
(67,449,cs),
(67,387,o),
(122,359,o),
(177,359,cs)
);
},
{
closed = 1;
nodes = (
(223,450,o),
(210,456,o),
(211,468,c),
(211,490,o),
(229,495,o),
(257,495,cs),
(295,495,l),
(291,476,l),
(284,462,o),
(272,450,o),
(245,450,cs)
);
}
);
width = 393;
},
{
hints = (
{
horizontal = 1;
place = (466,52);
type = Stem;
},
{
horizontal = 1;
place = (632,51);
type = Stem;
},
{
horizontal = 1;
place = (776,56);
type = Stem;
},
{
place = (78,71);
type = Stem;
},
{
place = (129,68);
type = Stem;
}
);
layerId = "DD839978-B654-4D5F-A0C6-3C33A53FE9CB";
leftMetricsKey = "=13";
shapes = (
{
closed = 1;
nodes = (
(247,371,o),
(308,389,o),
(327,407,c),
(337,407,l),
(337,405,ls),
(337,380,o),
(366,371,o),
(390,371,cs),
(404,371,o),
(416,373,o),
(424,376,c),
(437,420,l),
(431,418,o),
(425,417,o),
(417,417,cs),
(402,417,o),
(396,426,o),
(403,449,c),
(456,597,l),
(469,639,o),
(462,675,o),
(438,699,cs),
(413,723,o),
(369,737,o),
(308,737,cs),
(221,737,o),
(150,700,o),
(129,622,c),
(197,622,l),
(209,657,o),
(244,681,o),
(302,681,cs),
(332,681,o),
(358,676,o),
(374,664,cs),
(389,652,o),
(395,634,o),
(386,604,cs),
(381,588,l),
(259,588,ls),
(151,588,o),
(81,539,o),
(78,465,cs),
(76,394,o),
(143,371,o),
(202,371,cs)
);
},
{
closed = 1;
nodes = (
(179,423,o),
(148,441,o),
(149,473,cs),
(150,517,o),
(188,537,o),
(268,537,cs),
(363,537,l),
(347,494,l),
(332,449,o),
(293,423,o),
(226,423,cs)
);
}
);
width = 403;
},
{
layerId = "3FCCCC1A-F738-479A-AD82-BA541789BD82";
rightMetricsKey = "=9";
shapes = (
{
closed = 1;
nodes = (
(235,377,o),
(288,395,o),
(313,432,c),
(317,432,l),
(313,420,ls),
(306,399,o),
(327,377,o),
(351,377,cs),
(360,377,o),
(368,379,o),
(373,382,c),
(379,404,l),
(373,402,o),
(367,400,o),
(358,400,cs),
(342,400,o),
(332,409,o),
(341,437,cs),
(393,604,ls),
(405,642,o),
(402,675,o),
(382,699,cs),
(362,722,o),
(325,736,o),
(269,736,cs),
(198,736,o),
(139,699,o),
(121,631,c),
(149,631,l),
(163,678,o),
(203,710,o),
(270,710,cs),
(304,710,o),
(335,705,o),
(353,689,cs),
(373,673,o),
(378,648,o),
(367,609,cs),
(360,585,l),
(246,585,ls),
(169,585,o),
(82,563,o),
(76,472,cs),
(72,405,o),
(135,377,o),
(194,377,cs)
);
},
{
closed = 1;
nodes = (
(136,401,o),
(101,431,o),
(102,468,cs),
(104,542,o),
(171,560,o),
(238,560,cs),
(352,560,l),
(333,498,l),
(316,437,o),
(266,401,o),
(186,401,cs)
);
}
);
width = 345;
}
);
unicode = 170;
},
{
glyphname = guillemotleft;
layers = (
{
layerId = "0A0AAF82-7A3B-4E69-84DB-BE8E4A819DF7";
shapes = (
{
closed = 1;
nodes = (
(354,77,l),
(255,319,l),
(422,551,l),
(223,551,l),
(35,330,l),
(163,77,l)
);
},
{
closed = 1;
nodes = (
(617,77,l),
(531,307,l),
(712,551,l),
(501,551,l),
(318,316,l),
(422,77,l)
);
}
);
width = 683;
},
{
layerId = "DD839978-B654-4D5F-A0C6-3C33A53FE9CB";
shapes = (
{
closed = 1;
nodes = (
(212,79,l),
(141,304,l),
(300,527,l),
(219,527,l),
(53,307,l),
(138,79,l)
);
},
{
closed = 1;
nodes = (
(389,79,l),
(322,300,l),
(486,527,l),
(402,527,l),
(236,303,l),
(314,79,l)
);
}
);
width = 474;
},
{
layerId = "3FCCCC1A-F738-479A-AD82-BA541789BD82";
shapes = (
{
closed = 1;
nodes = (
(156,80,l),
(96,298,l),
(253,517,l),
(217,517,l),
(60,298,l),
(128,80,l)
);
},
{
closed = 1;
nodes = (
(300,79,l),
(240,298,l),
(398,517,l),
(364,517,l),
(204,298,l),
(272,79,l)
);
}
);
width = 392;
}
);
leftKerningGroup = guillemotleft;
unicode = 171;
},
{
glyphname = logicalnot;
layers = (
{
layerId = "0A0AAF82-7A3B-4E69-84DB-BE8E4A819DF7";
shapes = (
{
closed = 1;
nodes = (
(506,129,l),
(594,444,l),
(121,444,l),
(69,258,l),
(359,258,l),
(323,129,l)
);
}
);
width = 636;
},
{
layerId = "DD839978-B654-4D5F-A0C6-3C33A53FE9CB";
shapes = (
{
closed = 1;
nodes = (
(501,139,l),
(576,407,l),
(100,407,l),
(79,331,l),
(479,331,l),
(426,139,l)
);
}
);
width = 636;
},
{
layerId = "3FCCCC1A-F738-479A-AD82-BA541789BD82";
shapes = (
{
closed = 1;
nodes = (
(499,143,l),
(568,392,l),
(92,392,l),
(83,360,l),
(527,360,l),
(467,143,l)
);
}
);
width = 636;
}
);
unicode = 172;
},
{
glyphname = registered;
layers = (
{
layerId = "0A0AAF82-7A3B-4E69-84DB-BE8E4A819DF7";
shapes = (
{
closed = 1;
nodes = (
(427,200,o),
(501,232,o),
(553,285,cs),
(605,337,o),
(635,410,o),
(635,495,cs),
(635,571,o),
(609,632,o),
(565,673,cs),
(520,714,o),
(456,738,o),
(379,738,cs),
(287,738,o),
(213,705,o),
(162,652,cs),
(110,599,o),
(82,525,o),
(82,440,cs),
(82,367,o),
(107,307,o),
(151,265,cs),
(195,223,o),
(260,200,o),
(336,200,cs)
);
},
{
closed = 1;
nodes = (
(281,261,o),
(230,281,o),
(195,314,cs),
(160,347,o),
(142,396,o),
(142,453,cs),
(142,521,o),
(165,579,o),
(205,620,cs),
(244,660,o),
(302,684,o),
(373,684,cs),
(434,684,o),
(483,666,o),
(518,633,cs),
(553,600,o),
(571,554,o),
(571,495,cs),
(571,427,o),
(551,370,o),
(512,328,cs),
(472,286,o),
(416,261,o),
(344,261,cs)
);
},
{
closed = 1;
nodes = (
(302,338,l),
(353,526,l),
(383,526,ls),
(392,526,o),
(399,526,o),
(399,517,c),
(400,498,o),
(388,491,o),
(369,491,cs),
(326,491,l),
(309,426,l),
(347,426,ls),
(368,426,o),
(372,419,o),
(367,403,c),
(358,368,ls),
(355,356,o),
(354,346,o),
(354,338,c),
(460,338,l),
(460,343,o),
(460,354,o),
(464,370,c),
(473,397,l),
(485,438,o),
(476,459,o),
(451,464,c),
(451,466,l),
(491,478,o),
(507,505,o),
(507,540,cs),
(507,557,o),
(502,574,o),
(488,586,cs),
(474,597,o),
(451,604,o),
(416,604,cs),
(269,604,l),
(195,338,l)
);
}
);
width = 610;
},
{
layerId = "DD839978-B654-4D5F-A0C6-3C33A53FE9CB";
shapes = (
{
closed = 1;
nodes = (
(434,222,o),
(506,254,o),
(558,306,cs),
(610,357,o),
(641,428,o),
(641,508,cs),
(641,580,o),
(617,637,o),
(575,677,cs),
(533,716,o),
(473,738,o),
(404,738,cs),
(323,738,o),
(251,707,o),
(200,655,cs),
(148,603,o),
(117,532,o),
(117,451,cs),
(117,380,o),
(142,323,o),
(184,284,cs),
(226,244,o),
(285,222,o),
(354,222,cs)
);
},
{
closed = 1;
nodes = (
(294,260,o),
(244,280,o),
(209,314,cs),
(173,348,o),
(155,395,o),
(155,454,cs),
(155,525,o),
(181,586,o),
(225,631,cs),
(269,676,o),
(330,703,o),
(401,703,cs),
(464,703,o),
(513,684,o),
(548,650,cs),
(583,616,o),
(602,567,o),
(602,508,cs),
(602,439,o),
(577,376,o),
(533,332,cs),
(489,287,o),
(428,260,o),
(357,260,cs)
);
},
{
closed = 1;
nodes = (
(288,346,l),
(352,578,l),
(426,578,ls),
(455,578,o),
(468,566,o),
(467,541,cs),
(466,513,o),
(446,492,o),
(407,492,cs),
(319,492,l),
(310,456,l),
(401,456,ls),
(426,456,o),
(436,448,o),
(427,412,cs),
(418,377,l),
(415,369,o),
(414,353,o),
(413,346,c),
(463,346,l),
(463,355,o),
(464,363,o),
(467,374,cs),
(478,415,ls),
(487,447,o),
(480,466,o),
(457,475,c),
(457,476,l),
(493,487,o),
(518,511,o),
(519,550,c),
(519,570,o),
(513,586,o),
(501,598,cs),
(488,610,o),
(468,617,o),
(444,617,cs),
(314,617,l),
(238,346,l)
);
}
);
width = 640;
},
{
layerId = "3FCCCC1A-F738-479A-AD82-BA541789BD82";
shapes = (
{
closed = 1;
nodes = (
(437,231,o),
(509,262,o),
(561,314,cs),
(612,365,o),
(644,436,o),
(644,513,cs),
(644,584,o),
(619,639,o),
(579,678,cs),
(538,717,o),
(479,738,o),
(414,738,cs),
(337,738,o),
(266,707,o),
(215,656,cs),
(163,604,o),
(130,535,o),
(130,456,cs),
(130,387,o),
(155,330,o),
(197,291,cs),
(239,252,o),
(296,231,o),
(361,231,cs)
);
},
{
closed = 1;
nodes = (
(299,259,o),
(249,280,o),
(214,314,cs),
(179,348,o),
(160,396,o),
(160,455,cs),
(160,526,o),
(187,590,o),
(233,636,cs),
(279,682,o),
(342,710,o),
(413,710,cs),
(474,710,o),
(525,691,o),
(561,656,cs),
(596,621,o),
(615,573,o),
(615,513,cs),
(615,444,o),
(588,380,o),
(542,334,cs),
(496,288,o),
(433,259,o),
(362,259,cs)
);
},
{
closed = 1;
nodes = (
(282,350,l),
(352,599,l),
(443,599,ls),
(480,599,o),
(497,582,o),
(494,551,c),
(493,519,o),
(470,493,o),
(423,493,cs),
(316,493,l),
(311,468,l),
(423,468,ls),
(450,468,o),
(462,459,o),
(451,415,c),
(441,380,l),
(438,375,o),
(437,355,o),
(437,350,c),
(465,350,l),
(465,359,o),
(466,367,o),
(469,376,c),
(481,422,ls),
(489,450,o),
(481,468,o),
(460,479,c),
(460,480,l),
(493,489,o),
(523,514,o),
(524,554,c),
(524,574,o),
(518,591,o),
(506,603,cs),
(494,615,o),
(476,622,o),
(455,622,cs),
(332,622,l),
(255,350,l)
);
}
);
width = 651;
}
);
unicode = 174;
},
{
glyphname = degree;
layers = (
{
layerId = "0A0AAF82-7A3B-4E69-84DB-BE8E4A819DF7";
shapes = (
{
closed = 1;
nodes = (
(359,370,o),
(414,391,o),
(451,427,cs),
(488,462,o),
(512,512,o),
(512,573,cs),
(512,624,o),
(493,667,o),
(459,696,cs),
(425,725,o),
(377,740,o),
(325,740,cs),
(262,740,o),
(208,720,o),
(169,685,cs),
(130,649,o),
(108,597,o),
(108,540,cs),
(108,484,o),
(130,443,o),
(166,415,c),
(201,386,o),
(247,370,o),
(298,370,cs)
);
},
{
closed = 1;
nodes = (
(294,513,o),
(284,517,o),
(277,523,cs),
(270,529,o),
(266,538,o),
(266,549,cs),
(266,562,o),
(271,575,o),
(279,584,cs),
(287,592,o),
(300,598,o),
(315,598,cs),
(328,598,o),
(338,594,o),
(346,587,cs),
(353,580,o),
(356,571,o),
(356,559,cs),
(356,546,o),
(351,533,o),
(343,526,cs),
(334,518,o),
(322,513,o),
(307,513,cs)
);
}
);
width = 466;
},
{
layerId = "DD839978-B654-4D5F-A0C6-3C33A53FE9CB";
shapes = (
{
closed = 1;
nodes = (
(358,422,o),
(401,440,o),
(433,470,cs),
(464,500,o),
(483,542,o),
(483,591,cs),
(483,635,o),
(466,672,o),
(438,698,cs),
(410,724,o),
(370,738,o),
(326,738,cs),
(277,738,o),
(234,720,o),
(203,691,cs),
(171,662,o),
(152,619,o),
(152,570,cs),
(152,525,o),
(170,489,o),
(199,463,cs),
(227,437,o),
(265,422,o),
(309,422,cs)
);
},
{
closed = 1;
nodes = (
(287,488,o),
(264,496,o),
(248,512,cs),
(232,528,o),
(223,548,o),
(223,575,cs),
(223,603,o),
(235,627,o),
(252,645,cs),
(269,663,o),
(295,672,o),
(322,672,cs),
(349,672,o),
(371,664,o),
(387,649,cs),
(403,633,o),
(412,612,o),
(412,585,cs),
(412,557,o),
(400,532,o),
(383,515,cs),
(366,498,o),
(340,488,o),
(312,488,cs)
);
}
);
width = 461;
},
{
layerId = "3FCCCC1A-F738-479A-AD82-BA541789BD82";
shapes = (
{
closed = 1;
nodes = (
(358,443,o),
(397,459,o),
(426,487,cs),
(454,514,o),
(472,553,o),
(472,598,cs),
(472,639,o),
(457,674,o),
(431,699,cs),
(405,723,o),
(369,737,o),
(326,737,cs),
(283,737,o),
(244,721,o),
(216,694,cs),
(188,667,o),
(170,629,o),
(170,582,cs),
(170,541,o),
(186,506,o),
(212,482,cs),
(238,457,o),
(273,443,o),
(314,443,cs)
);
},
{
closed = 1;
nodes = (
(283,478,o),
(257,488,o),
(238,508,c),
(218,527,o),
(207,553,o),
(207,585,cs),
(207,620,o),
(221,648,o),
(242,669,cs),
(263,690,o),
(293,702,o),
(325,702,cs),
(357,702,o),
(384,692,o),
(404,673,c),
(423,653,o),
(434,627,o),
(434,595,cs),
(434,562,o),
(420,532,o),
(399,511,cs),
(378,490,o),
(347,478,o),
(314,478,cs)
);
}
);
width = 459;
}
);
unicode = 176;
},
{
glyphname = plusminus;
layers = (
{
layerId = "0A0AAF82-7A3B-4E69-84DB-BE8E4A819DF7";
shapes = (
{
closed = 1;
nodes = (
(392,206,l),
(425,317,l),
(587,317,l),
(638,502,l),
(476,502,l),
(507,613,l),
(316,613,l),
(285,502,l),
(125,502,l),
(73,317,l),
(233,317,l),
(203,206,l)
);
},
{
closed = 1;
nodes = (
(499,0,l),
(542,162,l),
(29,162,l),
(-16,0,l)
);
}
);
width = 636;
},
{
layerId = "DD839978-B654-4D5F-A0C6-3C33A53FE9CB";
shapes = (
{
closed = 1;
nodes = (
(332,177,l),
(381,351,l),
(586,351,l),
(607,427,l),
(403,427,l),
(451,601,l),
(373,601,l),
(325,427,l),
(120,427,l),
(99,351,l),
(303,351,l),
(254,177,l)
);
},
{
closed = 1;
nodes = (
(489,0,l),
(508,69,l),
(20,69,l),
(1,0,l)
);
}
);
width = 636;
},
{
layerId = "3FCCCC1A-F738-479A-AD82-BA541789BD82";
shapes = (
{
closed = 1;
nodes = (
(309,165,l),
(364,365,l),
(585,365,l),
(595,398,l),
(374,398,l),
(428,596,l),
(396,596,l),
(340,398,l),
(118,398,l),
(109,365,l),
(330,365,l),
(275,165,l)
);
},
{
closed = 1;
nodes = (
(484,0,l),
(494,33,l),
(17,33,l),
(8,0,l)
);
}
);
width = 636;
}
);
unicode = 177;
},
{
glyphname = paragraph;
layers = (
{
layerId = "0A0AAF82-7A3B-4E69-84DB-BE8E4A819DF7";
shapes = (
{
closed = 1;
nodes = (
(486,0,l),
(486,526,l),
(553,526,l),
(553,0,l),
(782,0,l),
(782,526,l),
(854,526,l),
(854,729,l),
(340,729,ls),
(259,729,o),
(195,709,o),
(154,673,cs),
(113,636,o),
(91,581,o),
(91,512,cs),
(91,449,o),
(113,399,o),
(153,364,cs),
(193,328,o),
(252,308,o),
(325,311,c),
(325,0,l)
);
}
);
width = 847;
},
{
layerId = "DD839978-B654-4D5F-A0C6-3C33A53FE9CB";
shapes = (
{
closed = 1;
nodes = (
(397,0,l),
(397,647,l),
(509,647,l),
(509,0,l),
(600,0,l),
(600,647,l),
(696,647,l),
(696,729,l),
(330,729,ls),
(267,729,o),
(217,713,o),
(182,684,cs),
(147,655,o),
(128,611,o),
(128,554,cs),
(128,501,o),
(146,457,o),
(179,426,cs),
(212,395,o),
(262,379,o),
(326,379,c),
(326,0,l)
);
}
);
width = 686;
},
{
layerId = "3FCCCC1A-F738-479A-AD82-BA541789BD82";
shapes = (
{
closed = 1;
nodes = (
(362,0,l),
(362,695,l),
(492,695,l),
(492,0,l),
(528,0,l),
(528,695,l),
(633,695,l),
(633,729,l),
(326,729,ls),
(270,729,o),
(224,716,o),
(193,689,cs),
(161,662,o),
(143,623,o),
(143,571,cs),
(143,522,o),
(159,479,o),
(190,451,cs),
(221,422,o),
(267,406,o),
(326,406,c),
(326,0,l)
);
}
);
width = 622;
}
);
unicode = 182;
},
{
glyphname = periodcentered;
layers = (
{
layerId = "0A0AAF82-7A3B-4E69-84DB-BE8E4A819DF7";
shapes = (
{
closed = 1;
nodes = (
(142,169,o),
(172,183,o),
(193,205,cs),
(214,227,o),
(227,257,o),
(227,290,cs),
(227,346,o),
(191,385,o),
(132,385,cs),
(97,385,o),
(67,372,o),
(46,350,cs),
(25,328,o),
(11,297,o),
(11,264,cs),
(11,208,o),
(51,169,o),
(107,169,cs)
);
}
);
width = 238;
},
{
layerId = "DD839978-B654-4D5F-A0C6-3C33A53FE9CB";
shapes = (
{
closed = 1;
nodes = (
(125,209,o),
(143,218,o),
(156,231,cs),
(169,244,o),
(178,264,o),
(178,285,cs),
(178,321,o),
(155,345,o),
(116,345,cs),
(95,345,o),
(76,336,o),
(62,323,cs),
(48,310,o),
(40,290,o),
(40,269,cs),
(40,233,o),
(65,209,o),
(102,209,cs)
);
}
);
width = 210;
},
{
layerId = "3FCCCC1A-F738-479A-AD82-BA541789BD82";
shapes = (
{
closed = 1;
nodes = (
(117,224,o),
(131,230,o),
(142,241,cs),
(153,252,o),
(158,266,o),
(158,283,cs),
(158,311,o),
(141,330,o),
(110,330,cs),
(94,330,o),
(79,323,o),
(68,313,cs),
(57,303,o),
(51,287,o),
(51,271,cs),
(51,243,o),
(71,224,o),
(100,224,cs)
);
}
);
width = 199;
}
);
unicode = 183;
},
{
glyphname = ordmasculine;
leftMetricsKey = "=11";
rightMetricsKey = "=11";
layers = (
{
hints = (
{
horizontal = 1;
place = (485,123);
type = Stem;
},
{
horizontal = 1;
place = (740,122);
type = Stem;
}
);
layerId = "0A0AAF82-7A3B-4E69-84DB-BE8E4A819DF7";
shapes = (
{
closed = 1;
nodes = (
(387,360,o),
(471,418,o),
(490,531,c),
(513,654,o),
(442,737,o),
(318,737,cs),
(207,737,o),
(124,678,o),
(103,567,cs),
(79,445,o),
(153,360,o),
(276,360,cs)
);
},
{
closed = 1;
nodes = (
(258,483,o),
(238,501,o),
(241,528,cs),
(245,562,o),
(257,615,o),
(310,615,cs),
(338,615,o),
(355,598,o),
(353,570,cs),
(350,536,o),
(337,483,o),
(284,483,cs)
);
}
);
width = 423;
},
{
hints = (
{
horizontal = 1;
place = (467,57);
type = Stem;
},
{
horizontal = 1;
place = (775,57);
type = Stem;
}
);
layerId = "DD839978-B654-4D5F-A0C6-3C33A53FE9CB";
leftMetricsKey = "=25";
rightMetricsKey = "=24";
shapes = (
{
closed = 1;
nodes = (
(380,372,o),
(458,462,o),
(463,577,c),
(471,675,o),
(416,737,o),
(317,737,cs),
(196,737,o),
(120,650,o),
(113,533,c),
(105,438,o),
(166,372,o),
(261,372,cs)
);
},
{
closed = 1;
nodes = (
(206,429,o),
(171,465,o),
(175,525,c),
(178,603,o),
(221,680,o),
(312,680,cs),
(372,680,o),
(405,643,o),
(403,584,c),
(398,507,o),
(357,429,o),
(266,429,cs)
);
}
);
width = 402;
},
{
hints = (
{
horizontal = 1;
place = (457,25);
type = Stem;
},
{
horizontal = 1;
place = (792,25);
type = Stem;
},
{
place = (119,27);
type = Stem;
},
{
place = (431,26);
type = Stem;
}
);
layerId = "3FCCCC1A-F738-479A-AD82-BA541789BD82";
leftMetricsKey = "=32";
rightMetricsKey = "=32";
shapes = (
{
closed = 1;
nodes = (
(382,377,o),
(457,483,o),
(457,599,cs),
(457,682,o),
(407,737,o),
(321,737,cs),
(194,737,o),
(119,634,o),
(119,516,cs),
(119,434,o),
(171,377,o),
(256,377,cs)
);
},
{
closed = 1;
nodes = (
(183,402,o),
(144,449,o),
(146,524,cs),
(149,622,o),
(208,712,o),
(316,712,cs),
(390,712,o),
(435,665,o),
(431,591,c),
(428,492,o),
(369,402,o),
(260,402,cs)
);
}
);
width = 401;
}
);
unicode = 186;
},
{
glyphname = guillemotright;
layers = (
{
layerId = "0A0AAF82-7A3B-4E69-84DB-BE8E4A819DF7";
shapes = (
{
closed = 1;
nodes = (
(349,550,l),
(448,308,l),
(281,76,l),
(480,76,l),
(668,297,l),
(540,550,l)
);
},
{
closed = 1;
nodes = (
(86,550,l),
(172,321,l),
(-9,76,l),
(202,76,l),
(385,311,l),
(281,550,l)
);
}
);
width = 683;
},
{
layerId = "DD839978-B654-4D5F-A0C6-3C33A53FE9CB";
shapes = (
{
closed = 1;
nodes = (
(284,529,l),
(355,304,l),
(195,81,l),
(277,81,l),
(443,301,l),
(358,529,l)
);
},
{
closed = 1;
nodes = (
(107,530,l),
(174,308,l),
(10,81,l),
(93,81,l),
(260,305,l),
(182,530,l)
);
}
);
width = 474;
},
{
layerId = "3FCCCC1A-F738-479A-AD82-BA541789BD82";
shapes = (
{
closed = 1;
nodes = (
(259,521,l),
(319,303,l),
(162,84,l),
(197,84,l),
(354,303,l),
(286,521,l)
);
},
{
closed = 1;
nodes = (
(115,522,l),
(175,303,l),
(17,84,l),
(51,84,l),
(211,303,l),
(143,522,l)
);
}
);
width = 392;
}
);
leftKerningGroup = guillemotright2;
rightKerningGroup = guillemotright;
unicode = 187;
},
{
glyphname = questiondown;
layers = (
{
layerId = "0A0AAF82-7A3B-4E69-84DB-BE8E4A819DF7";
shapes = (
{
closed = 1;
nodes = (
(198,315,l),
(197,312,l),
(194,301,o),
(187,291,o),
(174,281,cs),
(148,260,o),
(110,238,o),
(70,211,c),
(49,198,o),
(30,182,o),
(12,165,cs),
(-24,129,o),
(-50,85,o),
(-53,25,cs),
(-57,-63,o),
(-21,-116,o),
(32,-147,cs),
(84,-178,o),
(151,-187,o),
(210,-187,cs),
(294,-187,o),
(369,-165,o),
(423,-123,cs),
(477,-81,o),
(514,-20,o),
(527,59,c),
(298,59,l),
(289,24,o),
(270,9,o),
(234,9,cs),
(226,9,o),
(216,12,o),
(208,17,cs),
(200,21,o),
(196,31,o),
(197,44,c),
(197,58,o),
(202,70,o),
(211,81,cs),
(229,102,o),
(257,119,o),
(289,139,cs),
(305,148,o),
(321,159,o),
(336,172,cs),
(366,196,o),
(391,229,o),
(402,277,c),
(409,315,l)
);
},
{
closed = 1;
nodes = (
(267,560,o),
(212,517,o),
(212,444,cs),
(212,388,o),
(256,351,o),
(325,351,cs),
(409,351,o),
(464,395,o),
(464,468,cs),
(464,524,o),
(420,560,o),
(351,560,cs)
);
}
);
width = 599;
},
{
layerId = "DD839978-B654-4D5F-A0C6-3C33A53FE9CB";
shapes = (
{
closed = 1;
nodes = (
(247,340,l),
(242,327,l),
(235,306,o),
(224,287,o),
(209,271,cs),
(177,239,o),
(135,211,o),
(92,180,cs),
(70,165,o),
(50,148,o),
(31,129,cs),
(-6,91,o),
(-33,43,o),
(-37,-22,cs),
(-40,-86,o),
(-17,-132,o),
(22,-164,cs),
(61,-195,o),
(114,-210,o),
(174,-210,cs),
(237,-210,o),
(293,-194,o),
(338,-162,cs),
(382,-129,o),
(415,-78,o),
(431,-10,c),
(341,-10,l),
(320,-85,o),
(272,-131,o),
(185,-131,cs),
(149,-131,o),
(117,-122,o),
(95,-103,cs),
(73,-83,o),
(59,-56,o),
(62,-17,c),
(63,10,o),
(69,34,o),
(81,54,cs),
(104,93,o),
(140,122,o),
(181,150,c),
(202,163,o),
(222,178,o),
(241,193,cs),
(280,224,o),
(313,261,o),
(326,317,cs),
(331,340,l)
);
},
{
closed = 1;
nodes = (
(290,534,o),
(265,513,o),
(265,480,cs),
(265,452,o),
(286,433,o),
(318,433,cs),
(355,433,o),
(380,455,o),
(380,488,cs),
(380,516,o),
(359,534,o),
(327,534,cs)
);
}
);
width = 537;
},
{
layerId = "3FCCCC1A-F738-479A-AD82-BA541789BD82";
shapes = (
{
closed = 1;
nodes = (
(266,350,l),
(260,332,ls),
(251,307,o),
(239,286,o),
(222,268,cs),
(189,231,o),
(145,200,o),
(100,168,cs),
(77,151,o),
(57,134,o),
(38,115,cs),
(1,77,o),
(-27,27,o),
(-31,-41,cs),
(-34,-94,o),
(-15,-139,o),
(18,-171,cs),
(51,-202,o),
(100,-219,o),
(160,-219,cs),
(215,-219,o),
(264,-206,o),
(305,-177,cs),
(345,-148,o),
(377,-102,o),
(394,-37,c),
(358,-37,l),
(333,-128,o),
(273,-187,o),
(166,-187,cs),
(118,-187,o),
(78,-174,o),
(50,-150,cs),
(22,-125,o),
(7,-89,o),
(8,-41,cs),
(9,-9,o),
(16,19,o),
(29,42,cs),
(54,89,o),
(94,124,o),
(139,154,cs),
(161,169,o),
(183,185,o),
(204,202,cs),
(246,236,o),
(281,275,o),
(296,332,c),
(300,350,l)
);
},
{
closed = 1;
nodes = (
(299,524,o),
(286,513,o),
(286,494,cs),
(286,477,o),
(298,466,o),
(315,466,cs),
(334,466,o),
(346,477,o),
(346,496,cs),
(346,513,o),
(335,524,o),
(318,524,cs)
);
}
);
width = 513;
}
);
unicode = 191;
},
